<svg width="50" height="72" viewBox="0 0 50 72" fill="none" xmlns="http://www.w3.org/2000/svg">
<path d="M0.75 7C0.75 3.54822 3.54822 0.75 7 0.75H49.25V43C49.25 46.4518 46.4518 49.25 43 49.25H0.75V7Z" fill="white" stroke="url(#paint0_linear_1602_2582)" stroke-width="1.5"/>
<path d="M41 22.926V29.7732C41 29.9194 40.9438 30.0596 40.8438 30.163C40.7439 30.2664 40.6082 30.3245 40.4669 30.3245H39.2001C39.0586 30.3245 38.9229 30.2664 38.8229 30.1629C38.7228 30.0595 38.6666 29.9192 38.6666 29.7729C38.6666 29.6266 38.7228 29.4863 38.8229 29.3829C38.9229 29.2794 39.0586 29.2213 39.2001 29.2213H39.9331V22.926C39.9327 22.4911 39.833 22.0625 39.6422 21.6749C39.4514 21.2874 39.1748 20.9519 38.8349 20.6957C36.7932 19.163 32.8711 16.8592 28.0017 17.1217L28.3493 19.8869C28.3583 19.9588 28.3535 20.0317 28.3352 20.1017C28.317 20.1716 28.2856 20.2371 28.2428 20.2945C28.2 20.3519 28.1468 20.4 28.086 20.4361C28.0253 20.4722 27.9583 20.4956 27.8888 20.5049C27.8193 20.5142 27.7488 20.5093 27.6811 20.4904C27.6135 20.4715 27.5501 20.439 27.4947 20.3948C27.4392 20.3506 27.3926 20.2955 27.3577 20.2327C27.3228 20.1699 27.3002 20.1006 27.2912 20.0287L26.9382 17.2191C23.7423 17.6489 20.7559 19.0996 18.3957 21.3689H31.8704C32.2684 21.3698 32.6615 21.2781 33.0207 21.1006C33.3798 20.9232 33.6957 20.6645 33.9451 20.3437C33.9891 20.2873 34.0434 20.2405 34.1049 20.2058C34.1664 20.1712 34.2338 20.1494 34.3035 20.1417C34.3731 20.134 34.4435 20.1405 34.5107 20.161C34.5779 20.1814 34.6405 20.2153 34.695 20.2608C34.7495 20.3063 34.7948 20.3624 34.8283 20.426C34.8619 20.4896 34.8829 20.5594 34.8904 20.6314C34.8978 20.7034 34.8915 20.7762 34.8717 20.8457C34.8519 20.9151 34.8191 20.9799 34.7751 21.0363C34.426 21.4855 33.9837 21.8478 33.4809 22.0963C32.9781 22.3449 32.4277 22.4733 31.8704 22.4721H17.1718L11.2383 24.1768C10.9017 24.2743 10.605 24.4828 10.3934 24.7707C10.1819 25.0585 10.067 25.41 10.0663 25.7715V29.0749H10.8666C11.008 29.0749 11.1437 29.133 11.2438 29.2365C11.3438 29.3399 11.4 29.4802 11.4 29.6265C11.4 29.7728 11.3438 29.9131 11.2438 30.0166C11.1437 30.12 11.008 30.1781 10.8666 30.1781H9.53315C9.39204 30.1781 9.25668 30.1203 9.15674 30.0173C9.0568 29.9142 9.00044 29.7744 9 29.6285V25.7709C9.00144 25.1687 9.19296 24.5833 9.54547 24.1038C9.89798 23.6244 10.3922 23.277 10.953 23.1146L16.8067 21.4332C22.6162 15.1591 31.6352 13.9288 39.4617 19.8043C39.9376 20.163 40.325 20.6327 40.5923 21.1753C40.8596 21.718 40.9993 22.3171 41 22.926ZM25.9688 29.2281H21.6678C21.5263 29.2281 21.3907 29.2862 21.2906 29.3897C21.1906 29.4931 21.1344 29.6334 21.1344 29.7797C21.1344 29.926 21.1906 30.0663 21.2906 30.1698C21.3907 30.2732 21.5263 30.3313 21.6678 30.3313H25.9699C26.1114 30.3313 26.2471 30.2732 26.3471 30.1698C26.4471 30.0663 26.5033 29.926 26.5033 29.7797C26.5033 29.6334 26.4471 29.4931 26.3471 29.3897C26.2471 29.2862 26.1103 29.2281 25.9688 29.2281Z" fill="#ED1C24"/>
<path d="M27.7531 30.3308C28.0476 30.3308 28.2863 30.084 28.2863 29.7795C28.2863 29.475 28.0476 29.2281 27.7531 29.2281C27.4587 29.2281 27.22 29.475 27.22 29.7795C27.22 30.084 27.4587 30.3308 27.7531 30.3308Z" fill="#ED1C24"/>
<path d="M19.1671 29.3939C19.1671 31.3093 17.6698 32.8333 15.8576 32.8333C14.0455 32.8333 12.5481 31.3093 12.5481 29.3939C12.5481 27.4784 14.0455 25.9545 15.8576 25.9545C17.6698 25.9545 19.1671 27.4784 19.1671 29.3939Z" stroke="#ED1C24"/>
<path d="M37.4523 29.3939C37.4523 31.3093 35.9549 32.8333 34.1428 32.8333C32.3306 32.8333 30.8333 31.3093 30.8333 29.3939C30.8333 27.4784 32.3306 25.9545 34.1428 25.9545C35.9549 25.9545 37.4523 27.4784 37.4523 29.3939Z" stroke="#ED1C24"/>
<path d="M12.7638 67.178L11.3078 63.342L9.83778 67.178H12.7638ZM9.48778 68.34L8.68978 70.412C8.59645 70.664 8.47978 70.8367 8.33978 70.93C8.19978 71.0233 8.05045 71.07 7.89178 71.07C7.67711 71.07 7.48578 71.014 7.31778 70.902C7.15911 70.79 7.08911 70.7013 7.10778 70.636L10.3278 62.32C10.3838 62.1707 10.4818 62.0587 10.6218 61.984C10.7618 61.9 10.9951 61.858 11.3218 61.858C11.6578 61.858 11.8911 61.9 12.0218 61.984C12.1618 62.0587 12.2598 62.1707 12.3158 62.32L15.5638 70.636C15.5731 70.664 15.5544 70.7013 15.5078 70.748C15.4704 70.7947 15.4144 70.846 15.3398 70.902C15.2651 70.9487 15.1764 70.986 15.0738 71.014C14.9804 71.0513 14.8778 71.07 14.7658 71.07C14.6071 71.07 14.4484 71.0233 14.2898 70.93C14.1404 70.8367 14.0144 70.6593 13.9118 70.398L13.1138 68.34H9.48778ZM21.3038 69.992C21.0704 70.3373 20.7671 70.622 20.3938 70.846C20.0298 71.0607 19.5864 71.168 19.0638 71.168C18.6158 71.168 18.2284 71.098 17.9018 70.958C17.5844 70.8087 17.3184 70.608 17.1038 70.356C16.8891 70.104 16.7304 69.8007 16.6278 69.446C16.5251 69.0913 16.4738 68.704 16.4738 68.284V64.868C16.4738 64.616 16.5298 64.4433 16.6418 64.35C16.7538 64.2473 16.8984 64.196 17.0758 64.196H17.2298C17.4164 64.196 17.5658 64.2427 17.6778 64.336C17.7898 64.4293 17.8458 64.6067 17.8458 64.868V68.116C17.8458 68.704 17.9858 69.1613 18.2658 69.488C18.5458 69.8053 18.9424 69.964 19.4558 69.964C19.8758 69.964 20.2444 69.8567 20.5618 69.642C20.8791 69.418 21.1264 69.1287 21.3038 68.774V64.868C21.3038 64.616 21.3598 64.4433 21.4718 64.35C21.5838 64.2473 21.7284 64.196 21.9058 64.196H22.0598C22.2464 64.196 22.3958 64.2427 22.5078 64.336C22.6198 64.4293 22.6758 64.6067 22.6758 64.868V70.902C22.6758 70.9207 22.6244 70.9533 22.5218 71C22.4284 71.0373 22.3164 71.056 22.1858 71.056C22.0831 71.056 21.9804 71.0373 21.8778 71C21.7751 70.972 21.6818 70.9207 21.5978 70.846C21.5231 70.762 21.4578 70.6547 21.4018 70.524C21.3458 70.384 21.3131 70.2067 21.3038 69.992ZM24.3914 65.4C24.1768 65.4 24.0228 65.358 23.9294 65.274C23.8361 65.1807 23.7894 65.05 23.7894 64.882V64.784C23.7894 64.616 23.8361 64.49 23.9294 64.406C24.0228 64.3127 24.1768 64.266 24.3914 64.266H24.8814V63.23C24.8814 62.9873 24.9374 62.8193 25.0494 62.726C25.1614 62.6233 25.3108 62.572 25.4974 62.572H25.6374C25.8241 62.572 25.9688 62.6187 26.0714 62.712C26.1834 62.796 26.2394 62.9687 26.2394 63.23V64.266H27.7654C27.9801 64.266 28.1294 64.308 28.2134 64.392C28.3068 64.476 28.3534 64.602 28.3534 64.77V64.868C28.3534 65.0453 28.3068 65.1807 28.2134 65.274C28.1201 65.358 27.9661 65.4 27.7514 65.4H26.2254V68.802C26.2254 69.222 26.2908 69.5347 26.4214 69.74C26.5614 69.9453 26.7948 70.048 27.1214 70.048C27.3361 70.048 27.5228 70.006 27.6814 69.922C27.8401 69.8287 27.9708 69.712 28.0734 69.572C28.0828 69.5627 28.1061 69.5673 28.1434 69.586C28.1901 69.6047 28.2368 69.6373 28.2834 69.684C28.3301 69.7307 28.3721 69.796 28.4094 69.88C28.4468 69.9547 28.4654 70.048 28.4654 70.16C28.4654 70.4213 28.3301 70.6593 28.0594 70.874C27.7888 71.0793 27.4014 71.182 26.8974 71.182C26.1974 71.182 25.6841 70.9953 25.3574 70.622C25.0401 70.2393 24.8814 69.684 24.8814 68.956V65.4H24.3914ZM32.599 71.182C32.0764 71.182 31.5957 71.098 31.157 70.93C30.7277 70.7527 30.359 70.5053 30.051 70.188C29.743 69.8707 29.5004 69.4973 29.323 69.068C29.155 68.6293 29.071 68.1487 29.071 67.626C29.071 67.1127 29.155 66.6413 29.323 66.212C29.5004 65.7733 29.743 65.4 30.051 65.092C30.3684 64.7747 30.7417 64.532 31.171 64.364C31.6097 64.1867 32.0904 64.098 32.613 64.098C33.1264 64.098 33.5977 64.1867 34.027 64.364C34.4564 64.5413 34.825 64.7887 35.133 65.106C35.4504 65.414 35.693 65.7873 35.861 66.226C36.0384 66.6553 36.127 67.1313 36.127 67.654C36.127 68.1673 36.0384 68.6433 35.861 69.082C35.693 69.5113 35.4504 69.8847 35.133 70.202C34.825 70.51 34.4564 70.7527 34.027 70.93C33.5977 71.098 33.1217 71.182 32.599 71.182ZM32.599 70.048C32.9257 70.048 33.2244 69.9873 33.495 69.866C33.7657 69.7447 33.999 69.5767 34.195 69.362C34.4004 69.1473 34.559 68.8953 34.671 68.606C34.783 68.3167 34.839 67.9993 34.839 67.654C34.839 67.2993 34.783 66.9773 34.671 66.688C34.559 66.3893 34.405 66.1327 34.209 65.918C34.013 65.7033 33.775 65.5353 33.495 65.414C33.2244 65.2927 32.9257 65.232 32.599 65.232C32.2817 65.232 31.983 65.2927 31.703 65.414C31.4324 65.5353 31.1944 65.7033 30.989 65.918C30.7837 66.1233 30.625 66.3753 30.513 66.674C30.401 66.9633 30.345 67.2807 30.345 67.626C30.345 67.9713 30.401 68.2933 30.513 68.592C30.625 68.8813 30.7837 69.138 30.989 69.362C31.1944 69.5767 31.4324 69.7447 31.703 69.866C31.983 69.9873 32.2817 70.048 32.599 70.048ZM39.7861 71.168C39.3194 71.168 38.9087 71.1213 38.5541 71.028C38.1994 70.944 37.9007 70.832 37.6581 70.692C37.4247 70.552 37.2474 70.398 37.1261 70.23C37.0047 70.062 36.9441 69.8987 36.9441 69.74C36.9441 69.628 36.9674 69.5347 37.0141 69.46C37.0701 69.376 37.1307 69.306 37.1961 69.25C37.2614 69.194 37.3221 69.1567 37.3781 69.138C37.4434 69.11 37.4807 69.1007 37.4901 69.11C37.7141 69.3993 38.0127 69.642 38.3861 69.838C38.7687 70.0247 39.2261 70.118 39.7581 70.118C40.2341 70.118 40.5981 70.0387 40.8501 69.88C41.1114 69.712 41.2421 69.488 41.2421 69.208C41.2421 69.04 41.2001 68.9 41.1161 68.788C41.0414 68.676 40.9294 68.5873 40.7801 68.522C40.6401 68.4473 40.4627 68.382 40.2481 68.326C40.0334 68.27 39.7861 68.214 39.5061 68.158C39.2541 68.102 38.9881 68.0367 38.7081 67.962C38.4374 67.8873 38.1854 67.78 37.9521 67.64C37.7187 67.5 37.5227 67.318 37.3641 67.094C37.2147 66.8607 37.1401 66.5667 37.1401 66.212C37.1401 65.5773 37.3827 65.0687 37.8681 64.686C38.3534 64.294 39.0067 64.098 39.8281 64.098C40.2574 64.098 40.6307 64.14 40.9481 64.224C41.2747 64.308 41.5454 64.4153 41.7601 64.546C41.9841 64.6767 42.1474 64.8213 42.2501 64.98C42.3621 65.1387 42.4181 65.2973 42.4181 65.456C42.4181 65.568 42.3901 65.666 42.3341 65.75C42.2781 65.834 42.2127 65.904 42.1381 65.96C42.0727 66.016 42.0121 66.058 41.9561 66.086C41.9001 66.1047 41.8674 66.1093 41.8581 66.1C41.6434 65.82 41.3681 65.5913 41.0321 65.414C40.6961 65.2367 40.3134 65.148 39.8841 65.148C39.4081 65.148 39.0441 65.232 38.7921 65.4C38.5494 65.568 38.4281 65.792 38.4281 66.072C38.4281 66.2213 38.4654 66.3473 38.5401 66.45C38.6147 66.5527 38.7221 66.6413 38.8621 66.716C39.0021 66.7813 39.1747 66.842 39.3801 66.898C39.5947 66.954 39.8374 67.01 40.1081 67.066C40.3694 67.122 40.6447 67.192 40.9341 67.276C41.2234 67.3507 41.4894 67.458 41.7321 67.598C41.9841 67.738 42.1894 67.9247 42.3481 68.158C42.5067 68.3913 42.5861 68.69 42.5861 69.054C42.5861 69.698 42.3387 70.2113 41.8441 70.594C41.3494 70.9767 40.6634 71.168 39.7861 71.168Z" fill="#ED1C24"/>
<defs>
<linearGradient id="paint0_linear_1602_2582" x1="25" y1="0" x2="25" y2="50" gradientUnits="userSpaceOnUse">
<stop stop-color="#E91D27"/>
<stop offset="1" stop-color="#3E484A"/>
</linearGradient>
</defs>
</svg>
