<svg width="50" height="50" viewBox="0 0 50 50" fill="none" xmlns="http://www.w3.org/2000/svg">
<path d="M7 0.75H49.25V43C49.25 46.4518 46.4518 49.25 43 49.25H0.75V7C0.75 3.54822 3.54822 0.75 7 0.75Z" fill="white" stroke="url(#paint0_linear_402_358)" stroke-width="1.5"/>
<path d="M15.9904 28.4425C15.8354 28.4425 15.6868 28.5041 15.5772 28.6137C15.4675 28.7233 15.406 28.8719 15.406 29.027C15.406 29.138 15.373 29.2465 15.3114 29.3389C15.2497 29.4312 15.162 29.5032 15.0594 29.5457C14.9568 29.5882 14.8439 29.5993 14.735 29.5776C14.6261 29.5559 14.526 29.5025 14.4475 29.4239C14.369 29.3454 14.3155 29.2454 14.2939 29.1365C14.2722 29.0276 14.2833 28.9147 14.3258 28.8121C14.3683 28.7095 14.4403 28.6218 14.5326 28.5601C14.6249 28.4984 14.7335 28.4655 14.8445 28.4655C14.9228 28.468 15.0007 28.4547 15.0738 28.4264C15.1468 28.3982 15.2134 28.3555 15.2696 28.301C15.3258 28.2466 15.3705 28.1813 15.4011 28.1092C15.4316 28.0371 15.4473 27.9596 15.4473 27.8813C15.4473 27.803 15.4316 27.7255 15.4011 27.6534C15.3705 27.5813 15.3258 27.5161 15.2696 27.4616C15.2134 27.4072 15.1468 27.3645 15.0738 27.3363C15.0007 27.308 14.9228 27.2947 14.8445 27.2972C14.5024 27.2972 14.168 27.3986 13.8835 27.5887C13.5991 27.7788 13.3773 28.0489 13.2464 28.365C13.1155 28.6811 13.0812 29.0289 13.148 29.3644C13.2147 29.7 13.3795 30.0082 13.6214 30.2501C13.8633 30.492 14.1715 30.6568 14.5071 30.7235C14.8426 30.7902 15.1904 30.756 15.5065 30.6251C15.8226 30.4941 16.0927 30.2724 16.2828 29.988C16.4729 29.7035 16.5743 29.3691 16.5743 29.027C16.5743 28.872 16.5128 28.7235 16.4033 28.6139C16.2938 28.5043 16.1453 28.4426 15.9904 28.4425V28.4425Z" fill="#ED1C24"/>
<path d="M37.0488 28.4425C36.972 28.4425 36.896 28.4576 36.8251 28.487C36.7542 28.5164 36.6898 28.5594 36.6355 28.6137C36.5812 28.668 36.5382 28.7324 36.5088 28.8033C36.4794 28.8742 36.4643 28.9502 36.4643 29.027C36.4643 29.138 36.4314 29.2466 36.3697 29.3389C36.308 29.4312 36.2203 29.5032 36.1177 29.5457C36.0151 29.5882 35.9023 29.5993 35.7933 29.5776C35.6844 29.556 35.5844 29.5025 35.5059 29.424C35.4274 29.3454 35.3739 29.2454 35.3522 29.1365C35.3306 29.0276 35.3417 28.9147 35.3842 28.8121C35.4267 28.7095 35.4986 28.6218 35.591 28.5601C35.6833 28.4984 35.7918 28.4655 35.9029 28.4655C36.0546 28.4608 36.1986 28.3971 36.3042 28.2881C36.4099 28.1791 36.469 28.0332 36.469 27.8813C36.469 27.7295 36.4099 27.5836 36.3042 27.4746C36.1986 27.3656 36.0546 27.3019 35.9029 27.2972C35.5608 27.2972 35.2263 27.3986 34.9419 27.5887C34.6574 27.7788 34.4357 28.0489 34.3048 28.365C34.1738 28.6811 34.1396 29.0289 34.2063 29.3644C34.2731 29.7 34.4378 30.0082 34.6797 30.2501C34.9216 30.492 35.2299 30.6568 35.5654 30.7235C35.901 30.7903 36.2488 30.756 36.5648 30.6251C36.8809 30.4942 37.1511 30.2724 37.3411 29.988C37.5312 29.7035 37.6327 29.3691 37.6327 29.027C37.6327 28.8721 37.5712 28.7235 37.4617 28.6139C37.3522 28.5043 37.2037 28.4427 37.0488 28.4425V28.4425Z" fill="#ED1C24"/>
<path d="M39.379 15H11.3367C10.7172 15.0008 10.1233 15.2472 9.68524 15.6852C9.24719 16.1233 9.00076 16.7172 9 17.3367V26.8893C9 28.4885 10.3541 29.2478 11.3718 29.5101C11.4819 30.2845 11.8475 30.9998 12.4106 31.5426C12.9738 32.0854 13.7021 32.4244 14.4799 32.506C15.2578 32.5876 16.0406 32.4069 16.704 31.9928C17.3675 31.5786 17.8736 30.9546 18.1419 30.22H32.606C32.8523 30.8966 33.3009 31.4811 33.8907 31.8941C34.4806 32.3071 35.1833 32.5287 35.9034 32.5287C36.6234 32.5287 37.3261 32.3071 37.916 31.8941C38.5058 31.4811 38.9544 30.8966 39.2007 30.22H41.1318C41.2868 30.22 41.4355 30.1584 41.5451 30.0488C41.6547 29.9392 41.7163 29.7906 41.7163 29.6355V17.3367C41.7155 16.7171 41.469 16.1231 41.0308 15.685C40.5927 15.247 39.9986 15.0006 39.379 15ZM40.5474 23.1634H38.2377C38.0797 23.1632 37.9282 23.1004 37.8165 22.9887C37.7048 22.8769 37.6419 22.7254 37.6418 22.5674V17.939H40.5474V23.1634ZM14.8446 31.3642C14.2482 31.3638 13.6744 31.1358 13.2404 30.7268C12.8064 30.3178 12.5448 29.7586 12.509 29.1633C12.5315 29.0734 12.5315 28.9793 12.509 28.8894C12.5354 28.4335 12.6948 27.9952 12.9674 27.6288C13.2401 27.2623 13.6141 26.9838 14.0432 26.8274C14.4724 26.6711 14.9379 26.6439 15.3824 26.7492C15.8268 26.8544 16.2307 27.0875 16.5442 27.4197C16.8577 27.7519 17.067 28.1686 17.1464 28.6183C17.2257 29.0681 17.1716 29.5313 16.9907 29.9507C16.8098 30.3701 16.5101 30.7273 16.1285 30.9783C15.7469 31.2293 15.3001 31.363 14.8434 31.363L14.8446 31.3642ZM21.8948 17.9384H28.2991V23.1628H21.8954L21.8948 17.9384ZM20.7265 23.1628H13.1021C12.9441 23.1627 12.7926 23.0998 12.6809 22.9881C12.5691 22.8764 12.5063 22.7249 12.5062 22.5669V17.9384H20.7271L20.7265 23.1628ZM34.7511 17.9384V22.591C34.7502 22.7424 34.6897 22.8873 34.5826 22.9943C34.4756 23.1014 34.3307 23.1619 34.1793 23.1628H29.4674V17.9384H34.7511ZM28.2991 24.3317V29.0488H21.8954V24.3317H28.2991ZM35.9034 31.3642C35.4409 31.3643 34.9887 31.2273 34.6041 30.9704C34.2195 30.7136 33.9197 30.3484 33.7426 29.9212C33.5655 29.4939 33.5191 29.0238 33.6092 28.5701C33.6993 28.1165 33.9219 27.6998 34.2489 27.3727C34.5758 27.0456 34.9924 26.8228 35.446 26.7324C35.8996 26.6421 36.3698 26.6883 36.7971 26.8652C37.2244 27.042 37.5897 27.3417 37.8468 27.7262C38.1038 28.1106 38.2411 28.5627 38.2412 29.0252C38.2406 29.6451 37.9941 30.2395 37.5558 30.678C37.1176 31.1165 36.5233 31.3633 35.9034 31.3642ZM39.4089 29.0511C39.4089 29.0425 39.4089 29.0344 39.4089 29.0258C39.376 28.1177 38.9922 27.2578 38.3381 26.627C37.6841 25.9963 36.8109 25.6438 35.9022 25.6438C34.9935 25.6438 34.1203 25.9963 33.4663 26.627C32.8122 27.2578 32.4284 28.1177 32.3955 29.0258C32.3955 29.0344 32.3955 29.0425 32.3955 29.0511H29.4674V24.334H34.1793C34.6414 24.334 35.0846 24.1504 35.4114 23.8237C35.7382 23.4969 35.9218 23.0537 35.9218 22.5916V17.3568C35.9218 17.2801 35.9066 17.2041 35.8773 17.1331C35.8479 17.0622 35.8048 16.9978 35.7506 16.9435C35.6963 16.8893 35.6319 16.8462 35.561 16.8168C35.4901 16.7875 35.4141 16.7723 35.3373 16.7723H11.9217C11.8449 16.7723 11.7689 16.7875 11.698 16.8168C11.6271 16.8462 11.5627 16.8893 11.5084 16.9435C11.4542 16.9978 11.4111 17.0622 11.3817 17.1331C11.3524 17.2041 11.3372 17.2801 11.3372 17.3568V22.5692C11.3379 23.0369 11.5239 23.4853 11.8547 23.816C12.1854 24.1468 12.6338 24.3328 13.1015 24.3335H20.7271V29.0505H18.3507C18.3507 29.0419 18.3507 29.0338 18.3507 29.0252C18.3421 28.1638 18.017 27.3356 17.4372 26.6984C16.8574 26.0613 16.0634 25.6597 15.2066 25.5701C14.3498 25.4806 13.49 25.7093 12.791 26.2128C12.092 26.7163 11.6026 27.4593 11.4161 28.3004C11.0845 28.2302 10.7844 28.0551 10.5601 27.8011C10.3358 27.547 10.1992 27.2275 10.1706 26.8899V17.3367C10.1709 17.0269 10.2941 16.7299 10.5132 16.5109C10.7322 16.2918 11.0292 16.1686 11.339 16.1683H39.379C39.5876 16.1685 39.7923 16.2244 39.9719 16.3303C40.1515 16.4362 40.2996 16.5882 40.4007 16.7706H37.0573C36.9023 16.7706 36.7536 16.8322 36.644 16.9418C36.5344 17.0514 36.4729 17.2001 36.4729 17.3551V22.5674C36.4735 23.0352 36.6595 23.4836 36.9903 23.8143C37.321 24.145 37.7694 24.3311 38.2371 24.3317H40.5468V24.9375H39.9779C39.8261 24.9422 39.6822 25.0059 39.5765 25.1149C39.4708 25.2239 39.4117 25.3698 39.4117 25.5216C39.4117 25.6735 39.4708 25.8193 39.5765 25.9284C39.6822 26.0374 39.8261 26.101 39.9779 26.1058H40.5468V29.0511H39.4089Z" fill="#ED1C24"/>
<defs>
<linearGradient id="paint0_linear_402_358" x1="25" y1="0" x2="25" y2="50" gradientUnits="userSpaceOnUse">
<stop stop-color="#E91D27"/>
<stop offset="1" stop-color="#3E484A"/>
</linearGradient>
</defs>
</svg>
