<svg width="50" height="72" viewBox="0 0 50 72" fill="none" xmlns="http://www.w3.org/2000/svg">
<path d="M0.75 7C0.75 3.54822 3.54822 0.75 7 0.75H49.25V43C49.25 46.4518 46.4518 49.25 43 49.25H0.75V7Z" fill="white" stroke="url(#paint0_linear_1602_1810)" stroke-width="1.5"/>
<path d="M7.736 71C7.50267 71 7.316 70.9253 7.176 70.776C7.036 70.6267 6.966 70.4307 6.966 70.188V62.754C6.966 62.5113 7.036 62.3153 7.176 62.166C7.316 62.0167 7.50267 61.942 7.736 61.942H10.718C11.7073 61.942 12.4633 62.1427 12.986 62.544C13.5087 62.9453 13.77 63.5287 13.77 64.294C13.77 64.7887 13.6347 65.1993 13.364 65.526C13.0933 65.8433 12.6967 66.0813 12.174 66.24C12.846 66.3987 13.3407 66.6787 13.658 67.08C13.9753 67.472 14.134 67.934 14.134 68.466C14.134 69.3153 13.8587 69.95 13.308 70.37C12.7573 70.79 11.8847 71 10.69 71H7.736ZM10.606 65.89C11.138 65.89 11.5487 65.764 11.838 65.512C12.1273 65.2507 12.272 64.9007 12.272 64.462C12.272 64.014 12.1367 63.678 11.866 63.454C11.5953 63.2207 11.166 63.104 10.578 63.104H8.394V65.89H10.606ZM10.662 69.838C11.39 69.838 11.9033 69.726 12.202 69.502C12.5007 69.2687 12.65 68.886 12.65 68.354C12.65 67.878 12.4913 67.5233 12.174 67.29C11.866 67.0473 11.376 66.926 10.704 66.926H8.394V69.838H10.662ZM20.2823 69.992C20.049 70.3373 19.7456 70.622 19.3723 70.846C19.0083 71.0607 18.565 71.168 18.0423 71.168C17.5943 71.168 17.207 71.098 16.8803 70.958C16.563 70.8087 16.297 70.608 16.0823 70.356C15.8676 70.104 15.709 69.8007 15.6063 69.446C15.5036 69.0913 15.4523 68.704 15.4523 68.284V64.868C15.4523 64.616 15.5083 64.4433 15.6203 64.35C15.7323 64.2473 15.877 64.196 16.0543 64.196H16.2083C16.395 64.196 16.5443 64.2427 16.6563 64.336C16.7683 64.4293 16.8243 64.6067 16.8243 64.868V68.116C16.8243 68.704 16.9643 69.1613 17.2443 69.488C17.5243 69.8053 17.921 69.964 18.4343 69.964C18.8543 69.964 19.223 69.8567 19.5403 69.642C19.8576 69.418 20.105 69.1287 20.2823 68.774V64.868C20.2823 64.616 20.3383 64.4433 20.4503 64.35C20.5623 64.2473 20.707 64.196 20.8843 64.196H21.0383C21.225 64.196 21.3743 64.2427 21.4863 64.336C21.5983 64.4293 21.6543 64.6067 21.6543 64.868V70.902C21.6543 70.9207 21.603 70.9533 21.5003 71C21.407 71.0373 21.295 71.056 21.1643 71.056C21.0616 71.056 20.959 71.0373 20.8563 71C20.7536 70.972 20.6603 70.9207 20.5763 70.846C20.5016 70.762 20.4363 70.6547 20.3803 70.524C20.3243 70.384 20.2916 70.2067 20.2823 69.992ZM25.708 71.168C25.2413 71.168 24.8306 71.1213 24.476 71.028C24.1213 70.944 23.8226 70.832 23.58 70.692C23.3466 70.552 23.1693 70.398 23.048 70.23C22.9266 70.062 22.866 69.8987 22.866 69.74C22.866 69.628 22.8893 69.5347 22.936 69.46C22.992 69.376 23.0526 69.306 23.118 69.25C23.1833 69.194 23.244 69.1567 23.3 69.138C23.3653 69.11 23.4026 69.1007 23.412 69.11C23.636 69.3993 23.9346 69.642 24.308 69.838C24.6906 70.0247 25.148 70.118 25.68 70.118C26.156 70.118 26.52 70.0387 26.772 69.88C27.0333 69.712 27.164 69.488 27.164 69.208C27.164 69.04 27.122 68.9 27.038 68.788C26.9633 68.676 26.8513 68.5873 26.702 68.522C26.562 68.4473 26.3846 68.382 26.17 68.326C25.9553 68.27 25.708 68.214 25.428 68.158C25.176 68.102 24.91 68.0367 24.63 67.962C24.3593 67.8873 24.1073 67.78 23.874 67.64C23.6406 67.5 23.4446 67.318 23.286 67.094C23.1366 66.8607 23.062 66.5667 23.062 66.212C23.062 65.5773 23.3046 65.0687 23.79 64.686C24.2753 64.294 24.9286 64.098 25.75 64.098C26.1793 64.098 26.5526 64.14 26.87 64.224C27.1966 64.308 27.4673 64.4153 27.682 64.546C27.906 64.6767 28.0693 64.8213 28.172 64.98C28.284 65.1387 28.34 65.2973 28.34 65.456C28.34 65.568 28.312 65.666 28.256 65.75C28.2 65.834 28.1346 65.904 28.06 65.96C27.9946 66.016 27.934 66.058 27.878 66.086C27.822 66.1047 27.7893 66.1093 27.78 66.1C27.5653 65.82 27.29 65.5913 26.954 65.414C26.618 65.2367 26.2353 65.148 25.806 65.148C25.33 65.148 24.966 65.232 24.714 65.4C24.4713 65.568 24.35 65.792 24.35 66.072C24.35 66.2213 24.3873 66.3473 24.462 66.45C24.5366 66.5527 24.644 66.6413 24.784 66.716C24.924 66.7813 25.0966 66.842 25.302 66.898C25.5166 66.954 25.7593 67.01 26.03 67.066C26.2913 67.122 26.5666 67.192 26.856 67.276C27.1453 67.3507 27.4113 67.458 27.654 67.598C27.906 67.738 28.1113 67.9247 28.27 68.158C28.4286 68.3913 28.508 68.69 28.508 69.054C28.508 69.698 28.2606 70.2113 27.766 70.594C27.2713 70.9767 26.5853 71.168 25.708 71.168ZM34.7781 67.066C34.7408 66.478 34.5541 66.0113 34.2181 65.666C33.8821 65.3207 33.4341 65.148 32.8741 65.148C32.5941 65.148 32.3328 65.1947 32.0901 65.288C31.8568 65.3813 31.6468 65.5167 31.4601 65.694C31.2734 65.862 31.1194 66.0627 30.9981 66.296C30.8768 66.5293 30.7928 66.786 30.7461 67.066H34.7781ZM30.7461 68.004C30.7741 68.312 30.8488 68.5967 30.9701 68.858C31.0914 69.11 31.2501 69.3293 31.4461 69.516C31.6421 69.6933 31.8754 69.8333 32.1461 69.936C32.4168 70.0387 32.7108 70.09 33.0281 70.09C33.3268 70.09 33.5881 70.062 33.8121 70.006C34.0361 69.9407 34.2321 69.8567 34.4001 69.754C34.5681 69.6513 34.7128 69.5347 34.8341 69.404C34.9554 69.264 35.0581 69.1193 35.1421 68.97C35.1514 68.9607 35.1934 68.9653 35.2681 68.984C35.3428 69.0027 35.4221 69.0353 35.5061 69.082C35.5994 69.1287 35.6834 69.1987 35.7581 69.292C35.8328 69.3853 35.8701 69.5067 35.8701 69.656C35.8701 69.8053 35.8048 69.9687 35.6741 70.146C35.5528 70.3233 35.3661 70.4913 35.1141 70.65C34.8714 70.7993 34.5728 70.9253 34.2181 71.028C33.8634 71.1307 33.4574 71.182 33.0001 71.182C32.4681 71.182 31.9828 71.098 31.5441 70.93C31.1054 70.762 30.7321 70.524 30.4241 70.216C30.1161 69.908 29.8734 69.5393 29.6961 69.11C29.5281 68.6713 29.4441 68.1907 29.4441 67.668C29.4441 67.1547 29.5281 66.6833 29.6961 66.254C29.8734 65.8153 30.1161 65.4373 30.4241 65.12C30.7321 64.8027 31.0961 64.5553 31.5161 64.378C31.9361 64.1913 32.3934 64.098 32.8881 64.098C33.3734 64.098 33.8121 64.182 34.2041 64.35C34.6054 64.5087 34.9461 64.7373 35.2261 65.036C35.5154 65.3347 35.7348 65.694 35.8841 66.114C36.0428 66.5247 36.1221 66.982 36.1221 67.486V67.598C36.1221 67.7473 36.0894 67.8547 36.0241 67.92C35.9681 67.976 35.8608 68.004 35.7021 68.004H30.7461ZM39.7626 71.168C39.296 71.168 38.8853 71.1213 38.5306 71.028C38.176 70.944 37.8773 70.832 37.6346 70.692C37.4013 70.552 37.224 70.398 37.1026 70.23C36.9813 70.062 36.9206 69.8987 36.9206 69.74C36.9206 69.628 36.944 69.5347 36.9906 69.46C37.0466 69.376 37.1073 69.306 37.1726 69.25C37.238 69.194 37.2986 69.1567 37.3546 69.138C37.42 69.11 37.4573 69.1007 37.4666 69.11C37.6906 69.3993 37.9893 69.642 38.3626 69.838C38.7453 70.0247 39.2026 70.118 39.7346 70.118C40.2106 70.118 40.5746 70.0387 40.8266 69.88C41.088 69.712 41.2186 69.488 41.2186 69.208C41.2186 69.04 41.1766 68.9 41.0926 68.788C41.018 68.676 40.906 68.5873 40.7566 68.522C40.6166 68.4473 40.4393 68.382 40.2246 68.326C40.01 68.27 39.7626 68.214 39.4826 68.158C39.2306 68.102 38.9646 68.0367 38.6846 67.962C38.414 67.8873 38.162 67.78 37.9286 67.64C37.6953 67.5 37.4993 67.318 37.3406 67.094C37.1913 66.8607 37.1166 66.5667 37.1166 66.212C37.1166 65.5773 37.3593 65.0687 37.8446 64.686C38.33 64.294 38.9833 64.098 39.8046 64.098C40.234 64.098 40.6073 64.14 40.9246 64.224C41.2513 64.308 41.522 64.4153 41.7366 64.546C41.9606 64.6767 42.124 64.8213 42.2266 64.98C42.3386 65.1387 42.3946 65.2973 42.3946 65.456C42.3946 65.568 42.3666 65.666 42.3106 65.75C42.2546 65.834 42.1893 65.904 42.1146 65.96C42.0493 66.016 41.9886 66.058 41.9326 66.086C41.8766 66.1047 41.844 66.1093 41.8346 66.1C41.62 65.82 41.3446 65.5913 41.0086 65.414C40.6726 65.2367 40.29 65.148 39.8606 65.148C39.3846 65.148 39.0206 65.232 38.7686 65.4C38.526 65.568 38.4046 65.792 38.4046 66.072C38.4046 66.2213 38.442 66.3473 38.5166 66.45C38.5913 66.5527 38.6986 66.6413 38.8386 66.716C38.9786 66.7813 39.1513 66.842 39.3566 66.898C39.5713 66.954 39.814 67.01 40.0846 67.066C40.346 67.122 40.6213 67.192 40.9106 67.276C41.2 67.3507 41.466 67.458 41.7086 67.598C41.9606 67.738 42.166 67.9247 42.3246 68.158C42.4833 68.3913 42.5626 68.69 42.5626 69.054C42.5626 69.698 42.3153 70.2113 41.8206 70.594C41.326 70.9767 40.64 71.168 39.7626 71.168Z" fill="#ED1C24"/>
<path d="M15.9904 31.9137C15.8354 31.9137 15.6868 31.9753 15.5772 32.0849C15.4675 32.1945 15.406 32.3431 15.406 32.4981C15.406 32.6092 15.373 32.7177 15.3114 32.8101C15.2497 32.9024 15.162 32.9744 15.0594 33.0169C14.9568 33.0593 14.8439 33.0705 14.735 33.0488C14.6261 33.0271 14.526 32.9737 14.4475 32.8951C14.369 32.8166 14.3155 32.7166 14.2939 32.6077C14.2722 32.4988 14.2833 32.3859 14.3258 32.2833C14.3683 32.1807 14.4403 32.093 14.5326 32.0313C14.6249 31.9696 14.7335 31.9367 14.8445 31.9367C14.9228 31.9391 15.0007 31.9258 15.0738 31.8976C15.1468 31.8693 15.2134 31.8267 15.2696 31.7722C15.3258 31.7177 15.3705 31.6525 15.4011 31.5804C15.4316 31.5083 15.4473 31.4308 15.4473 31.3525C15.4473 31.2742 15.4316 31.1967 15.4011 31.1246C15.3705 31.0525 15.3258 30.9873 15.2696 30.9328C15.2134 30.8783 15.1468 30.8357 15.0738 30.8074C15.0007 30.7792 14.9228 30.7659 14.8445 30.7684C14.5024 30.7684 14.168 30.8698 13.8835 31.0599C13.5991 31.2499 13.3773 31.5201 13.2464 31.8362C13.1155 32.1523 13.0812 32.5001 13.148 32.8356C13.2147 33.1712 13.3795 33.4794 13.6214 33.7213C13.8633 33.9632 14.1715 34.1279 14.5071 34.1947C14.8426 34.2614 15.1904 34.2272 15.5065 34.0963C15.8226 33.9653 16.0927 33.7436 16.2828 33.4592C16.4729 33.1747 16.5743 32.8403 16.5743 32.4981C16.5743 32.3432 16.5128 32.1947 16.4033 32.0851C16.2938 31.9755 16.1453 31.9138 15.9904 31.9137Z" fill="#ED1C24"/>
<path d="M37.0488 31.9136C36.972 31.9136 36.896 31.9288 36.8251 31.9581C36.7542 31.9875 36.6898 32.0305 36.6355 32.0848C36.5812 32.1391 36.5382 32.2035 36.5088 32.2744C36.4794 32.3453 36.4643 32.4214 36.4643 32.4981C36.4643 32.6091 36.4314 32.7177 36.3697 32.81C36.308 32.9024 36.2203 32.9743 36.1177 33.0168C36.0151 33.0593 35.9023 33.0704 35.7933 33.0488C35.6844 33.0271 35.5844 32.9736 35.5059 32.8951C35.4274 32.8166 35.3739 32.7165 35.3522 32.6076C35.3306 32.4987 35.3417 32.3858 35.3842 32.2832C35.4267 32.1807 35.4986 32.093 35.591 32.0313C35.6833 31.9696 35.7918 31.9366 35.9029 31.9366C36.0546 31.9319 36.1986 31.8683 36.3042 31.7592C36.4099 31.6502 36.469 31.5043 36.469 31.3525C36.469 31.2006 36.4099 31.0548 36.3042 30.9457C36.1986 30.8367 36.0546 30.7731 35.9029 30.7683C35.5608 30.7683 35.2263 30.8698 34.9419 31.0598C34.6574 31.2499 34.4357 31.5201 34.3048 31.8361C34.1738 32.1522 34.1396 32.5 34.2063 32.8356C34.2731 33.1711 34.4378 33.4793 34.6797 33.7212C34.9216 33.9631 35.2299 34.1279 35.5654 34.1946C35.901 34.2614 36.2488 34.2271 36.5648 34.0962C36.8809 33.9653 37.1511 33.7436 37.3411 33.4591C37.5312 33.1747 37.6326 32.8402 37.6326 32.4981C37.6327 32.3432 37.5712 32.1946 37.4617 32.085C37.3522 31.9754 37.2037 31.9138 37.0488 31.9136Z" fill="#ED1C24"/>
<path d="M39.379 18.4712H11.3367C10.7172 18.472 10.1233 18.7184 9.68524 19.1564C9.24719 19.5945 9.00076 20.1884 9 20.8079V30.3605C9 31.9597 10.3541 32.719 11.3718 32.9813C11.4819 33.7557 11.8475 34.471 12.4106 35.0138C12.9738 35.5565 13.7021 35.8956 14.4799 35.9772C15.2578 36.0588 16.0406 35.8781 16.704 35.4639C17.3675 35.0498 17.8736 34.4258 18.1419 33.6912H32.606C32.8523 34.3678 33.3009 34.9523 33.8907 35.3653C34.4806 35.7783 35.1833 35.9999 35.9034 35.9999C36.6234 35.9999 37.3261 35.7783 37.916 35.3653C38.5058 34.9523 38.9544 34.3678 39.2007 33.6912H41.1318C41.2868 33.6912 41.4355 33.6296 41.5451 33.52C41.6547 33.4104 41.7163 33.2617 41.7163 33.1067V20.8079C41.7155 20.1883 41.469 19.5943 41.0308 19.1562C40.5927 18.7182 39.9986 18.4718 39.379 18.4712ZM40.5474 26.6346H38.2377C38.0797 26.6344 37.9282 26.5716 37.8165 26.4599C37.7048 26.3481 37.6419 26.1966 37.6418 26.0386V21.4101H40.5474V26.6346ZM14.8446 34.8354C14.2482 34.835 13.6744 34.607 13.2404 34.198C12.8064 33.789 12.5448 33.2298 12.509 32.6345C12.5315 32.5446 12.5315 32.4505 12.509 32.3606C12.5354 31.9047 12.6948 31.4664 12.9674 31.1C13.2401 30.7335 13.6141 30.4549 14.0432 30.2986C14.4724 30.1423 14.9379 30.1151 15.3824 30.2203C15.8268 30.3256 16.2307 30.5587 16.5442 30.8909C16.8577 31.223 17.067 31.6397 17.1464 32.0895C17.2257 32.5393 17.1716 33.0025 16.9907 33.4219C16.8098 33.8413 16.5101 34.1985 16.1285 34.4495C15.7469 34.7005 15.3001 34.8342 14.8434 34.8342L14.8446 34.8354ZM21.8948 21.4096H28.2991V26.634H21.8954L21.8948 21.4096ZM20.7265 26.634H13.1021C12.9441 26.6339 12.7926 26.571 12.6809 26.4593C12.5691 26.3476 12.5063 26.1961 12.5062 26.038V21.4096H20.7271V26.634H20.7265ZM34.7511 21.4096V26.0622C34.7502 26.2136 34.6897 26.3585 34.5826 26.4655C34.4756 26.5726 34.3307 26.6331 34.1793 26.634H29.4674V21.4096H34.7511ZM28.2991 27.8029V32.52H21.8954V27.8029H28.2991ZM35.9034 34.8354C35.4409 34.8355 34.9887 34.6984 34.6041 34.4416C34.2195 34.1847 33.9197 33.8196 33.7426 33.3924C33.5655 32.9651 33.5191 32.495 33.6092 32.0413C33.6993 31.5877 33.9219 31.171 34.2489 30.8439C34.5758 30.5168 34.9924 30.294 35.446 30.2036C35.8996 30.1133 36.3698 30.1595 36.7971 30.3364C37.2244 30.5132 37.5897 30.8129 37.8468 31.1973C38.1038 31.5818 38.2411 32.0339 38.2412 32.4964C38.2406 33.1163 37.9941 33.7107 37.5558 34.1492C37.1176 34.5877 36.5233 34.8344 35.9034 34.8354ZM39.4089 32.5223C39.4089 32.5136 39.4089 32.5056 39.4089 32.497C39.376 31.5889 38.9922 30.729 38.3381 30.0982C37.6841 29.4675 36.8109 29.115 35.9022 29.115C34.9935 29.115 34.1203 29.4675 33.4663 30.0982C32.8122 30.729 32.4284 31.5889 32.3955 32.497C32.3955 32.5056 32.3955 32.5136 32.3955 32.5223H29.4674V27.8052H34.1793C34.6414 27.8052 35.0846 27.6216 35.4114 27.2949C35.7382 26.9681 35.9218 26.5249 35.9218 26.0628V20.828C35.9218 20.7512 35.9066 20.6752 35.8773 20.6043C35.8479 20.5334 35.8048 20.469 35.7506 20.4147C35.6963 20.3605 35.6319 20.3174 35.561 20.288C35.4901 20.2587 35.4141 20.2435 35.3373 20.2435H11.9217C11.8449 20.2435 11.7689 20.2587 11.698 20.288C11.6271 20.3174 11.5627 20.3605 11.5084 20.4147C11.4542 20.469 11.4111 20.5334 11.3817 20.6043C11.3524 20.6752 11.3372 20.7512 11.3372 20.828V26.0403C11.3379 26.5081 11.5239 26.9565 11.8547 27.2872C12.1854 27.618 12.6338 27.804 13.1015 27.8046H20.7271V32.5217H18.3507C18.3507 32.5131 18.3507 32.505 18.3507 32.4964C18.3421 31.635 18.017 30.8068 17.4372 30.1696C16.8574 29.5325 16.0634 29.1309 15.2066 29.0413C14.3498 28.9518 13.49 29.1805 12.791 29.684C12.092 30.1875 11.6026 30.9305 11.4161 31.7716C11.0845 31.7014 10.7844 31.5263 10.5601 31.2723C10.3358 31.0182 10.1992 30.6987 10.1706 30.3611V20.8079C10.1709 20.4981 10.2941 20.2011 10.5132 19.9821C10.7322 19.763 11.0292 19.6398 11.339 19.6395H39.379C39.5876 19.6397 39.7923 19.6956 39.9719 19.8015C40.1515 19.9074 40.2996 20.0594 40.4007 20.2418H37.0573C36.9023 20.2418 36.7536 20.3034 36.644 20.413C36.5344 20.5226 36.4729 20.6713 36.4729 20.8263V26.0386C36.4735 26.5064 36.6595 26.9548 36.9903 27.2855C37.321 27.6162 37.7694 27.8023 38.2371 27.8029H40.5468V28.4087H39.9779C39.8261 28.4134 39.6822 28.4771 39.5765 28.5861C39.4708 28.6951 39.4117 28.841 39.4117 28.9928C39.4117 29.1447 39.4708 29.2905 39.5765 29.3996C39.6822 29.5086 39.8261 29.5722 39.9779 29.577H40.5468V32.5223H39.4089Z" fill="#ED1C24"/>
<defs>
<linearGradient id="paint0_linear_1602_1810" x1="25" y1="0" x2="25" y2="50" gradientUnits="userSpaceOnUse">
<stop stop-color="#E91D27"/>
<stop offset="1" stop-color="#3E484A"/>
</linearGradient>
</defs>
</svg>
