<svg width="50" height="50" viewBox="0 0 50 50" fill="none" xmlns="http://www.w3.org/2000/svg">
<g opacity="0.59">
<path d="M7 0.5H49.5V43C49.5 46.5899 46.5899 49.5 43 49.5H0.5V7C0.5 3.41015 3.41015 0.5 7 0.5Z" fill="white" stroke="#828282"/>
<path d="M22.3203 23.4093C23.4187 23.4093 24.3091 22.5189 24.3091 21.4205C24.3091 20.3222 23.4187 19.4318 22.3203 19.4318C21.2219 19.4318 20.3315 20.3222 20.3315 21.4205C20.3315 22.5189 21.2219 23.4093 22.3203 23.4093Z" fill="white"/>
<path d="M22.3203 23.4093C23.4187 23.4093 24.3091 22.5189 24.3091 21.4205C24.3091 20.3222 23.4187 19.4318 22.3203 19.4318C21.2219 19.4318 20.3315 20.3222 20.3315 21.4205C20.3315 22.5189 21.2219 23.4093 22.3203 23.4093Z" fill="white"/>
</g>
<g opacity="0.59">
<path d="M40.8424 20.7838H37.1562V26.3695L38.5944 27.3387L40.8452 27.2099L40.8424 20.7838Z" fill="#6B253C"/>
<path d="M15.9904 31.9138C15.8354 31.9138 15.6868 31.9754 15.5772 32.085C15.4675 32.1946 15.406 32.3433 15.406 32.4983C15.406 32.6093 15.373 32.7179 15.3114 32.8102C15.2497 32.9025 15.162 32.9745 15.0594 33.017C14.9568 33.0595 14.8439 33.0706 14.735 33.0489C14.6261 33.0273 14.526 32.9738 14.4475 32.8953C14.369 32.8167 14.3155 32.7167 14.2939 32.6078C14.2722 32.4989 14.2833 32.386 14.3258 32.2834C14.3683 32.1808 14.4403 32.0931 14.5326 32.0314C14.6249 31.9697 14.7335 31.9368 14.8445 31.9368C14.9228 31.9393 15.0007 31.926 15.0738 31.8977C15.1468 31.8695 15.2134 31.8268 15.2696 31.7724C15.3258 31.7179 15.3705 31.6526 15.4011 31.5805C15.4316 31.5084 15.4473 31.4309 15.4473 31.3526C15.4473 31.2744 15.4316 31.1969 15.4011 31.1248C15.3705 31.0527 15.3258 30.9874 15.2696 30.933C15.2134 30.8785 15.1468 30.8358 15.0738 30.8076C15.0007 30.7793 14.9228 30.766 14.8445 30.7685C14.5024 30.7685 14.168 30.8699 13.8835 31.06C13.5991 31.2501 13.3773 31.5202 13.2464 31.8363C13.1155 32.1524 13.0812 32.5002 13.148 32.8357C13.2147 33.1713 13.3795 33.4795 13.6214 33.7214C13.8633 33.9633 14.1715 34.1281 14.5071 34.1948C14.8426 34.2616 15.1904 34.2273 15.5065 34.0964C15.8226 33.9655 16.0927 33.7437 16.2828 33.4593C16.4729 33.1748 16.5743 32.8404 16.5743 32.4983C16.5743 32.3434 16.5128 32.1948 16.4033 32.0852C16.2938 31.9756 16.1453 31.914 15.9904 31.9138V31.9138Z" fill="#676767"/>
<path d="M37.0485 31.9138C36.9718 31.9138 36.8958 31.9289 36.8249 31.9583C36.754 31.9877 36.6895 32.0307 36.6353 32.085C36.581 32.1393 36.5379 32.2037 36.5086 32.2746C36.4792 32.3455 36.4641 32.4215 36.4641 32.4983C36.4641 32.6093 36.4312 32.7179 36.3695 32.8102C36.3078 32.9025 36.2201 32.9745 36.1175 33.017C36.0149 33.0595 35.902 33.0706 35.7931 33.0489C35.6842 33.0273 35.5842 32.9738 35.5056 32.8953C35.4271 32.8168 35.3736 32.7167 35.352 32.6078C35.3303 32.4989 35.3414 32.386 35.3839 32.2834C35.4264 32.1808 35.4984 32.0931 35.5907 32.0315C35.683 31.9698 35.7916 31.9368 35.9026 31.9368C36.0544 31.9321 36.1983 31.8684 36.304 31.7594C36.4097 31.6504 36.4688 31.5045 36.4688 31.3527C36.4688 31.2008 36.4097 31.055 36.304 30.9459C36.1983 30.8369 36.0544 30.7733 35.9026 30.7685C35.5605 30.7685 35.2261 30.8699 34.9416 31.06C34.6572 31.2501 34.4354 31.5203 34.3045 31.8363C34.1736 32.1524 34.1393 32.5002 34.2061 32.8358C34.2728 33.1713 34.4376 33.4795 34.6795 33.7214C34.9214 33.9633 35.2296 34.1281 35.5652 34.1948C35.9007 34.2616 36.2485 34.2273 36.5646 34.0964C36.8807 33.9655 37.1508 33.7438 37.3409 33.4593C37.531 33.1748 37.6324 32.8404 37.6324 32.4983C37.6324 32.3434 37.5709 32.1948 37.4614 32.0852C37.352 31.9756 37.2034 31.914 37.0485 31.9138V31.9138Z" fill="#676767"/>
<path d="M39.379 18.4713H11.3367C10.7172 18.4721 10.1233 18.7185 9.68524 19.1565C9.24719 19.5946 9.00076 20.1885 9 20.808V30.3606C9 31.9598 10.3541 32.7191 11.3718 32.9815C11.4819 33.7558 11.8475 34.4711 12.4106 35.0139C12.9738 35.5567 13.7021 35.8958 14.4799 35.9773C15.2578 36.0589 16.0406 35.8782 16.704 35.4641C17.3675 35.0499 17.8736 34.426 18.1419 33.6913H32.606C32.8523 34.368 33.3009 34.9524 33.8907 35.3654C34.4806 35.7784 35.1833 36 35.9034 36C36.6234 36 37.3261 35.7784 37.916 35.3654C38.5058 34.9524 38.9544 34.368 39.2007 33.6913H41.1318C41.2868 33.6913 41.4355 33.6297 41.5451 33.5201C41.6547 33.4105 41.7163 33.2619 41.7163 33.1069V20.808C41.7155 20.1884 41.469 19.5944 41.0308 19.1563C40.5927 18.7183 39.9986 18.4719 39.379 18.4713V18.4713ZM40.5474 26.6347H38.2377C38.0797 26.6345 37.9282 26.5717 37.8165 26.46C37.7048 26.3483 37.6419 26.1968 37.6418 26.0387V21.4103H40.5474V26.6347ZM14.8446 34.8355C14.2482 34.8351 13.6744 34.6071 13.2404 34.1981C12.8064 33.7891 12.5448 33.2299 12.509 32.6346C12.5315 32.5447 12.5315 32.4506 12.509 32.3608C12.5354 31.9048 12.6948 31.4665 12.9674 31.1001C13.2401 30.7336 13.6141 30.4551 14.0432 30.2988C14.4724 30.1424 14.9379 30.1152 15.3824 30.2205C15.8268 30.3257 16.2307 30.5588 16.5442 30.891C16.8577 31.2232 17.067 31.6399 17.1464 32.0897C17.2257 32.5395 17.1716 33.0026 16.9907 33.422C16.8098 33.8414 16.5101 34.1987 16.1285 34.4496C15.7469 34.7006 15.3001 34.8344 14.8434 34.8343L14.8446 34.8355ZM21.8948 21.4097H28.2991V26.6341H21.8954L21.8948 21.4097ZM20.7265 26.6341H13.1021C12.9441 26.634 12.7926 26.5711 12.6809 26.4594C12.5691 26.3477 12.5063 26.1962 12.5062 26.0382V21.4097H20.7271V26.6341H20.7265ZM34.7511 21.4097V26.0623C34.7502 26.2137 34.6897 26.3586 34.5826 26.4657C34.4756 26.5727 34.3307 26.6332 34.1793 26.6341H29.4674V21.4097H34.7511ZM28.2991 27.803V32.5201H21.8954V27.803H28.2991ZM35.9034 34.8355C35.4409 34.8356 34.9887 34.6986 34.6041 34.4417C34.2195 34.1849 33.9197 33.8197 33.7426 33.3925C33.5655 32.9652 33.5191 32.4951 33.6092 32.0415C33.6993 31.5878 33.9219 31.1711 34.2489 30.844C34.5758 30.5169 34.9924 30.2941 35.446 30.2037C35.8996 30.1134 36.3698 30.1596 36.7971 30.3365C37.2244 30.5134 37.5897 30.813 37.8468 31.1975C38.1038 31.582 38.2411 32.034 38.2412 32.4965C38.2406 33.1165 37.9941 33.7109 37.5558 34.1493C37.1176 34.5878 36.5233 34.8346 35.9034 34.8355V34.8355ZM39.4089 32.5224C39.4089 32.5138 39.4089 32.5057 39.4089 32.4971C39.376 31.589 38.9922 30.7291 38.3381 30.0984C37.6841 29.4676 36.8109 29.1151 35.9022 29.1151C34.9935 29.1151 34.1203 29.4676 33.4663 30.0984C32.8122 30.7291 32.4284 31.589 32.3955 32.4971C32.3955 32.5057 32.3955 32.5138 32.3955 32.5224H29.4674V27.8053H34.1793C34.6414 27.8053 35.0846 27.6218 35.4114 27.295C35.7382 26.9682 35.9218 26.525 35.9218 26.0629V20.8281C35.9218 20.7514 35.9066 20.6754 35.8773 20.6045C35.8479 20.5335 35.8048 20.4691 35.7506 20.4148C35.6963 20.3606 35.6319 20.3175 35.561 20.2881C35.4901 20.2588 35.4141 20.2437 35.3373 20.2437H11.9217C11.8449 20.2437 11.7689 20.2588 11.698 20.2881C11.6271 20.3175 11.5627 20.3606 11.5084 20.4148C11.4542 20.4691 11.4111 20.5335 11.3817 20.6045C11.3524 20.6754 11.3372 20.7514 11.3372 20.8281V26.0405C11.3379 26.5082 11.5239 26.9566 11.8547 27.2873C12.1854 27.6181 12.6338 27.8042 13.1015 27.8048H20.7271V32.5218H18.3507C18.3507 32.5132 18.3507 32.5051 18.3507 32.4965C18.3421 31.6351 18.017 30.8069 17.4372 30.1698C16.8574 29.5326 16.0634 29.131 15.2066 29.0414C14.3498 28.9519 13.49 29.1806 12.791 29.6841C12.092 30.1876 11.6026 30.9307 11.4161 31.7717C11.0845 31.7015 10.7844 31.5264 10.5601 31.2724C10.3358 31.0184 10.1992 30.6989 10.1706 30.3612V20.808C10.1709 20.4982 10.2941 20.2012 10.5132 19.9822C10.7322 19.7631 11.0292 19.64 11.339 19.6396H39.379C39.5876 19.6398 39.7923 19.6957 39.9719 19.8016C40.1515 19.9075 40.2996 20.0595 40.4007 20.2419H37.0573C36.9023 20.2419 36.7536 20.3035 36.644 20.4131C36.5344 20.5227 36.4729 20.6714 36.4729 20.8264V26.0387C36.4735 26.5065 36.6595 26.9549 36.9903 27.2856C37.321 27.6164 37.7694 27.8024 38.2371 27.803H40.5468V28.4088H39.9779C39.8261 28.4135 39.6822 28.4772 39.5765 28.5862C39.4708 28.6952 39.4117 28.8411 39.4117 28.9929C39.4117 29.1448 39.4708 29.2907 39.5765 29.3997C39.6822 29.5087 39.8261 29.5724 39.9779 29.5771H40.5468V32.5224H39.4089Z" fill="#676767"/>
</g>
</svg>
