<svg width="57" height="31" viewBox="0 0 57 31" fill="none" xmlns="http://www.w3.org/2000/svg">
<path d="M12.152 23.368C11.8825 23.368 11.6241 23.475 11.4336 23.6656C11.243 23.8561 11.136 24.1146 11.136 24.384C11.136 24.5771 11.0787 24.7658 10.9715 24.9263C10.8643 25.0868 10.7118 25.2119 10.5335 25.2857C10.3551 25.3596 10.1589 25.3789 9.96958 25.3413C9.78025 25.3036 9.60634 25.2106 9.46985 25.0741C9.33335 24.9377 9.2404 24.7637 9.20274 24.5744C9.16508 24.3851 9.18441 24.1889 9.25828 24.0105C9.33215 23.8322 9.45724 23.6797 9.61775 23.5725C9.77825 23.4653 9.96695 23.408 10.16 23.408C10.296 23.4123 10.4315 23.3892 10.5585 23.34C10.6854 23.2909 10.8012 23.2168 10.8989 23.1221C10.9967 23.0274 11.0744 22.914 11.1274 22.7887C11.1805 22.6633 11.2079 22.5286 11.2079 22.3925C11.2079 22.2564 11.1805 22.1217 11.1274 21.9964C11.0744 21.871 10.9967 21.7576 10.8989 21.6629C10.8012 21.5682 10.6854 21.4941 10.5585 21.445C10.4315 21.3959 10.296 21.3727 10.16 21.377C9.56525 21.377 8.98388 21.5534 8.48939 21.8838C7.99489 22.2142 7.60947 22.6838 7.38188 23.2333C7.15429 23.7828 7.09474 24.3874 7.21076 24.9707C7.32679 25.554 7.61318 26.0897 8.03371 26.5103C8.45425 26.9308 8.99005 27.2172 9.57335 27.3332C10.1566 27.4493 10.7613 27.3897 11.3107 27.1621C11.8602 26.9345 12.3298 26.5491 12.6602 26.0546C12.9906 25.5601 13.167 24.9788 13.167 24.384C13.167 24.1147 13.0601 23.8565 12.8698 23.6659C12.6794 23.4754 12.4213 23.3683 12.152 23.368Z" fill="#ED1C24"/>
<path d="M48.759 23.368C48.6256 23.368 48.4935 23.3943 48.3702 23.4454C48.2469 23.4964 48.1349 23.5712 48.0406 23.6656C47.9463 23.7599 47.8714 23.8719 47.8204 23.9952C47.7693 24.1185 47.743 24.2506 47.743 24.384C47.743 24.577 47.6858 24.7657 47.5785 24.9262C47.4713 25.0867 47.3189 25.2118 47.1405 25.2857C46.9622 25.3596 46.7659 25.3789 46.5766 25.3413C46.3873 25.3036 46.2134 25.2106 46.0769 25.0741C45.9404 24.9376 45.8474 24.7637 45.8098 24.5744C45.7721 24.3851 45.7914 24.1888 45.8653 24.0105C45.9392 23.8322 46.0643 23.6797 46.2248 23.5725C46.3853 23.4652 46.574 23.408 46.767 23.408C47.0308 23.3997 47.281 23.2891 47.4647 23.0996C47.6484 22.91 47.7511 22.6564 47.7511 22.3925C47.7511 22.1286 47.6484 21.875 47.4647 21.6854C47.281 21.4959 47.0308 21.3853 46.767 21.377C46.1723 21.377 45.5909 21.5534 45.0964 21.8838C44.6019 22.2142 44.2165 22.6838 43.9889 23.2333C43.7613 23.7827 43.7018 24.3873 43.8178 24.9706C43.9338 25.554 44.2202 26.0897 44.6407 26.5103C45.0613 26.9308 45.5971 27.2172 46.1804 27.3332C46.7637 27.4493 47.3683 27.3897 47.9177 27.1621C48.4672 26.9345 48.9368 26.5491 49.2672 26.0546C49.5976 25.5601 49.774 24.9787 49.774 24.384C49.774 24.1147 49.6671 23.8564 49.4768 23.6659C49.2865 23.4754 49.0283 23.3683 48.759 23.368Z" fill="#ED1C24"/>
<path d="M52.81 3.8147e-06H4.062C2.9851 0.00132696 1.95268 0.42971 1.19119 1.1912C0.429708 1.95268 0.00132314 2.9851 0 4.062L0 20.668C0 23.448 2.354 24.768 4.123 25.224C4.31442 26.5701 4.95005 27.8136 5.92896 28.7571C6.90786 29.7007 8.17394 30.2902 9.52613 30.4319C10.8783 30.5737 12.2391 30.2597 13.3925 29.5397C14.5458 28.8197 15.4255 27.7351 15.892 26.458H41.036C41.4642 27.6343 42.2439 28.6503 43.2693 29.3683C44.2948 30.0862 45.5162 30.4713 46.768 30.4713C48.0198 30.4713 49.2412 30.0862 50.2667 29.3683C51.2921 28.6503 52.0718 27.6343 52.5 26.458H55.857C56.1265 26.458 56.3849 26.351 56.5754 26.1604C56.766 25.9699 56.873 25.7115 56.873 25.442V4.062C56.8717 2.98492 56.4432 1.95236 55.6815 1.19085C54.9198 0.429331 53.8871 0.00106233 52.81 3.8147e-06ZM54.841 14.191H50.826C50.5513 14.1907 50.288 14.0815 50.0937 13.8873C49.8995 13.693 49.7903 13.4297 49.79 13.155V5.109H54.841V14.191ZM10.16 28.447C9.12327 28.4463 8.12588 28.05 7.37138 27.339C6.61688 26.628 6.16215 25.6559 6.1 24.621C6.13908 24.4647 6.13908 24.3013 6.1 24.145C6.1459 23.3524 6.42293 22.5905 6.89687 21.9535C7.37082 21.3165 8.02095 20.8322 8.76698 20.5605C9.51301 20.2887 10.3223 20.2414 11.0949 20.4244C11.8675 20.6074 12.5696 21.0126 13.1146 21.59C13.6595 22.1674 14.0234 22.8918 14.1614 23.6737C14.2993 24.4556 14.2053 25.2608 13.8908 25.9899C13.5764 26.7189 13.0553 27.34 12.392 27.7763C11.7286 28.2126 10.952 28.445 10.158 28.445L10.16 28.447ZM22.416 5.108H33.549V14.19H22.417L22.416 5.108ZM20.385 14.19H7.131C6.85632 14.1897 6.59296 14.0805 6.39873 13.8863C6.2045 13.692 6.09526 13.4287 6.095 13.154V5.108H20.386L20.385 14.19ZM44.765 5.108V13.196C44.7634 13.4591 44.6582 13.7111 44.4721 13.8971C44.2861 14.0832 44.0341 14.1884 43.771 14.19H35.58V5.108H44.765ZM33.549 16.222V24.422H22.417V16.222H33.549ZM46.768 28.447C45.964 28.4472 45.178 28.209 44.5094 27.7625C43.8408 27.316 43.3197 26.6812 43.0118 25.9385C42.704 25.1958 42.6233 24.3785 42.7799 23.5899C42.9366 22.8014 43.3235 22.077 43.8919 21.5083C44.4603 20.9397 45.1845 20.5523 45.973 20.3953C46.7615 20.2383 47.5788 20.3186 48.3217 20.626C49.0645 20.9335 49.6995 21.4544 50.1464 22.1228C50.5932 22.7912 50.8318 23.577 50.832 24.381C50.8309 25.4587 50.4025 26.492 49.6406 27.2542C48.8788 28.0165 47.8457 28.4454 46.768 28.447ZM52.862 24.426C52.862 24.411 52.862 24.397 52.862 24.382C52.8048 22.8035 52.1375 21.3086 51.0005 20.2121C49.8636 19.1156 48.3456 18.5029 46.766 18.5029C45.1864 18.5029 43.6684 19.1156 42.5315 20.2121C41.3945 21.3086 40.7272 22.8035 40.67 24.382C40.67 24.397 40.67 24.411 40.67 24.426H35.58V16.226H43.771C44.5743 16.226 45.3448 15.9069 45.9128 15.3388C46.4809 14.7708 46.8 14.0003 46.8 13.197V4.097C46.8 3.96358 46.7737 3.83146 46.7227 3.70819C46.6716 3.58493 46.5968 3.47293 46.5024 3.37858C46.4081 3.28424 46.2961 3.2094 46.1728 3.15834C46.0495 3.10728 45.9174 3.081 45.784 3.081H5.079C4.94558 3.081 4.81346 3.10728 4.69019 3.15834C4.56693 3.2094 4.45492 3.28424 4.36058 3.37858C4.26624 3.47293 4.1914 3.58493 4.14034 3.70819C4.08928 3.83146 4.063 3.96358 4.063 4.097V13.158C4.06406 13.9711 4.38753 14.7506 4.96247 15.3255C5.53742 15.9005 6.31691 16.2239 7.13 16.225H20.386V24.425H16.255C16.255 24.41 16.255 24.396 16.255 24.381C16.2401 22.8835 15.6748 21.4438 14.6669 20.3362C13.659 19.2286 12.2789 18.5305 10.7894 18.3748C9.29998 18.2191 7.80531 18.6168 6.59015 19.492C5.37498 20.3673 4.52425 21.659 4.2 23.121C3.62367 22.999 3.10194 22.6946 2.71202 22.253C2.3221 21.8114 2.08472 21.256 2.035 20.669V4.062C2.03553 3.52351 2.24968 3.00723 2.63045 2.62645C3.01122 2.24568 3.52751 2.03153 4.066 2.031H52.81C53.1725 2.03123 53.5284 2.12844 53.8406 2.31254C54.1529 2.49664 54.4103 2.76093 54.586 3.078H48.774C48.5045 3.078 48.2461 3.18505 48.0556 3.37558C47.865 3.56612 47.758 3.82454 47.758 4.094V13.155C47.7591 13.9681 48.0825 14.7476 48.6575 15.3225C49.2324 15.8975 50.0119 16.2209 50.825 16.222H54.84V17.275H53.851C53.5872 17.2833 53.337 17.3939 53.1533 17.5834C52.9696 17.773 52.8669 18.0266 52.8669 18.2905C52.8669 18.5544 52.9696 18.808 53.1533 18.9976C53.337 19.1871 53.5872 19.2977 53.851 19.306H54.84V24.426H52.862Z" fill="#ED1C24"/>
</svg>
