<svg width="41" height="33" viewBox="0 0 41 33" fill="none" xmlns="http://www.w3.org/2000/svg">
<g clip-path="url(#clip0_1_6)">
<path d="M40.493 10.884C40.4922 12.033 40.3048 13.1742 39.938 14.263C38.218 22.045 23.345 31.463 22.713 31.863C22.5194 31.9846 22.2956 32.0494 22.067 32.05C21.8373 32.0527 21.6119 31.9877 21.419 31.863C18.4139 29.9218 15.5382 27.7873 12.81 25.473C12.5749 25.2627 12.4315 24.9688 12.4102 24.6542C12.3889 24.3395 12.4916 24.029 12.6962 23.789C12.9008 23.549 13.1912 23.3985 13.5052 23.3697C13.8193 23.341 14.1322 23.4362 14.377 23.635C16.8302 25.7065 19.4011 27.6344 22.077 29.409C26.539 26.497 36.4 19.085 37.609 13.621C37.9083 12.7404 38.063 11.8171 38.067 10.887C38.0666 9.36283 37.6574 7.86666 36.8819 6.55453C36.1064 5.24239 34.9931 4.16234 33.658 3.427C31.9155 2.50491 29.9111 2.20297 27.9742 2.57078C26.0374 2.9386 24.2832 3.9543 23 5.451C22.8827 5.58155 22.7392 5.68596 22.5789 5.75743C22.4186 5.8289 22.245 5.86584 22.0695 5.86584C21.894 5.86584 21.7204 5.8289 21.5601 5.75743C21.3998 5.68596 21.2563 5.58155 21.139 5.451C19.8546 3.95447 18.0999 2.93871 16.1625 2.57024C14.2252 2.20176 12.2201 2.50245 10.476 3.423C9.13932 4.15688 8.02424 5.23625 7.24726 6.54834C6.47028 7.86044 6.0599 9.35711 6.059 10.882C6.06159 11.7706 6.20503 12.6533 6.484 13.497C6.69302 14.332 7.01535 15.1344 7.442 15.882H14.487L16.906 10.322C17.0042 10.0871 17.1746 9.88953 17.3925 9.75785C17.6103 9.62616 17.8645 9.56719 18.1181 9.58945C18.3717 9.61172 18.6117 9.71407 18.8033 9.88171C18.9949 10.0494 19.1282 10.2736 19.184 10.522L20.965 18.052L23.265 14.274C23.3728 14.0965 23.5249 13.95 23.7063 13.8488C23.8877 13.7477 24.0923 13.6954 24.3 13.697H28.672C28.9921 13.697 29.2991 13.8242 29.5255 14.0505C29.7518 14.2769 29.879 14.5839 29.879 14.904C29.879 15.2241 29.7518 15.5311 29.5255 15.7575C29.2991 15.9838 28.9921 16.111 28.672 16.111H24.978L21.507 21.811C21.4004 21.988 21.25 22.1344 21.0703 22.2362C20.8905 22.338 20.6876 22.3917 20.481 22.392C20.4177 22.3921 20.3546 22.3874 20.292 22.378C20.0559 22.3405 19.8362 22.2338 19.6607 22.0715C19.4852 21.9092 19.3618 21.6985 19.306 21.466L17.678 14.607L16.392 17.567C16.299 17.7834 16.1443 17.9676 15.9473 18.0967C15.7502 18.2258 15.5196 18.2941 15.284 18.293H1.207C0.886884 18.293 0.579879 18.1658 0.353522 17.9395C0.127166 17.7131 0 17.4061 0 17.086C0 16.7659 0.127166 16.4589 0.353522 16.2325C0.579879 16.0062 0.886884 15.879 1.207 15.879H4.746C4.50205 15.3161 4.30798 14.7328 4.166 14.136C3.81669 13.0848 3.64138 11.9837 3.647 10.876C3.64744 8.91949 4.17319 6.99898 5.16934 5.31505C6.16548 3.63112 7.59548 2.24553 9.31 1.303C11.3436 0.22332 13.6612 -0.201492 15.9455 0.0867129C18.2298 0.374917 20.3693 1.36205 22.071 2.913C23.7712 1.36152 25.9097 0.373949 28.1932 0.0857068C30.4768 -0.202536 32.7936 0.222663 34.826 1.303C36.5418 2.24641 37.9729 3.63319 38.9697 5.31852C39.9666 7.00386 40.4926 8.92592 40.493 10.884Z" fill="#ED1C24"/>
</g>
<defs>
<clipPath id="clip0_1_6">
<rect width="40.492" height="32.047" fill="white"/>
</clipPath>
</defs>
</svg>
