<svg width="50" height="50" viewBox="0 0 50 50" fill="none" xmlns="http://www.w3.org/2000/svg">
<path d="M7 0.75H49.25V43C49.25 46.4518 46.4518 49.25 43 49.25H0.75V7C0.75 3.54822 3.54822 0.75 7 0.75Z" fill="white" stroke="url(#paint0_linear_402_258)" stroke-width="1.5"/>
<path d="M19.8858 30.912H17.4307C17.2951 30.912 17.165 30.9659 17.0691 31.0617C16.9731 31.1576 16.9191 31.2876 16.9189 31.4232V34.2875C16.9189 34.4233 16.9729 34.5534 17.0688 34.6494C17.1648 34.7454 17.295 34.7993 17.4307 34.7993H19.8858C20.0216 34.7993 20.1518 34.7454 20.2477 34.6494C20.3437 34.5534 20.3976 34.4233 20.3976 34.2875V31.4232C20.3975 31.2876 20.3435 31.1576 20.2475 31.0617C20.1516 30.9659 20.0215 30.912 19.8858 30.912V30.912ZM19.3741 33.7763H17.9438V31.935H19.3741V33.7763Z" fill="#ED1C24"/>
<path d="M33.2355 30.912H30.7803C30.6447 30.912 30.5146 30.9659 30.4187 31.0617C30.3227 31.1576 30.2687 31.2876 30.2686 31.4232V34.2875C30.2686 34.4233 30.3225 34.5534 30.4184 34.6494C30.5144 34.7454 30.6446 34.7993 30.7803 34.7993H33.2355C33.3712 34.7993 33.5014 34.7454 33.5973 34.6494C33.6933 34.5534 33.7472 34.4233 33.7472 34.2875V31.4232C33.7471 31.2876 33.6931 31.1576 33.5971 31.0617C33.5012 30.9659 33.3711 30.912 33.2355 30.912V30.912ZM32.7237 33.7763H31.2934V31.935H32.7237V33.7763Z" fill="#ED1C24"/>
<path d="M37.66 37.1661H35.741V17.3231C35.741 17.1874 35.6871 17.0572 35.5911 16.9612C35.4951 16.8653 35.3649 16.8113 35.2292 16.8113H32.3904V14.9669C32.3904 14.8317 32.3369 14.702 32.2416 14.6061C32.1463 14.5102 32.0169 14.4559 31.8817 14.4551H29.0665V12.5118C29.0665 12.3761 29.0126 12.2459 28.9166 12.1499C28.8207 12.0539 28.6905 12 28.5548 12H21.5986C21.4629 12 21.3327 12.0539 21.2367 12.1499C21.1407 12.2459 21.0868 12.3761 21.0868 12.5118V14.4551H18.2742C18.1384 14.4551 18.0082 14.509 17.9123 14.605C17.8163 14.701 17.7624 14.8312 17.7624 14.9669V16.8113H14.9242C14.7885 16.8113 14.6583 16.8653 14.5623 16.9612C14.4663 17.0572 14.4124 17.1874 14.4124 17.3231V37.1661H12.494C12.3614 37.1707 12.2358 37.2266 12.1436 37.322C12.0515 37.4175 12 37.5449 12 37.6776C12 37.8102 12.0515 37.9377 12.1436 38.0331C12.2358 38.1285 12.3614 38.1844 12.494 38.189H37.66C37.7926 38.1844 37.9182 38.1285 38.0104 38.0331C38.1025 37.9377 38.154 37.8102 38.154 37.6776C38.154 37.5449 38.1025 37.4175 38.0104 37.322C37.9182 37.2266 37.7926 37.1707 37.66 37.1661V37.1661ZM22.1098 13.023H28.043V14.4532H22.1098V13.023ZM27.2246 37.2917H22.9269V31.0289H27.2234L27.2246 37.2917ZM34.7174 37.1673H28.25V31.0289H28.4291C28.4978 31.0313 28.5663 31.0199 28.6304 30.9953C28.6946 30.9706 28.7531 30.9333 28.8025 30.8856C28.8519 30.8379 28.8912 30.7807 28.9181 30.7174C28.9449 30.6542 28.9588 30.5862 28.9588 30.5175C28.9588 30.4488 28.9449 30.3807 28.9181 30.3175C28.8912 30.2542 28.8519 30.1971 28.8025 30.1493C28.7531 30.1016 28.6946 30.0643 28.6304 30.0397C28.5663 30.015 28.4978 30.0036 28.4291 30.006H21.7261C21.6574 30.0036 21.589 30.015 21.5248 30.0397C21.4607 30.0643 21.4022 30.1016 21.3527 30.1493C21.3033 30.1971 21.264 30.2542 21.2372 30.3175C21.2103 30.3807 21.1965 30.4488 21.1965 30.5175C21.1965 30.5862 21.2103 30.6542 21.2372 30.7174C21.264 30.7807 21.3033 30.8379 21.3527 30.8856C21.4022 30.9333 21.4607 30.9706 21.5248 30.9953C21.589 31.0199 21.6574 31.0313 21.7261 31.0289H21.9052V37.1667H15.4354V17.8343H21.1136C21.2461 17.8297 21.3717 17.7738 21.4639 17.6783C21.556 17.5829 21.6075 17.4555 21.6075 17.3228C21.6075 17.1902 21.556 17.0627 21.4639 16.9673C21.3717 16.8719 21.2461 16.816 21.1136 16.8113H18.7859V15.4781H31.3674V16.8113H25.1544C25.0858 16.8089 25.0173 16.8204 24.9532 16.845C24.889 16.8697 24.8305 16.9069 24.7811 16.9547C24.7316 17.0024 24.6923 17.0596 24.6655 17.1229C24.6386 17.1861 24.6248 17.2541 24.6248 17.3228C24.6248 17.3915 24.6386 17.4595 24.6655 17.5228C24.6923 17.586 24.7316 17.6432 24.7811 17.691C24.8305 17.7387 24.889 17.776 24.9532 17.8006C25.0173 17.8252 25.0858 17.8367 25.1544 17.8343H34.718L34.7174 37.1673Z" fill="#ED1C24"/>
<path d="M23.4696 16.9605C23.386 16.877 23.276 16.825 23.1583 16.8134C23.0406 16.8019 22.9226 16.8315 22.8243 16.8972C22.726 16.9629 22.6535 17.0606 22.6192 17.1738C22.5849 17.2869 22.5908 17.4085 22.6361 17.5177C22.6813 17.627 22.763 17.7171 22.8673 17.7729C22.9715 17.8287 23.0919 17.8466 23.2079 17.8235C23.3239 17.8005 23.4283 17.738 23.5033 17.6466C23.5784 17.5553 23.6194 17.4407 23.6195 17.3225C23.6191 17.1868 23.5653 17.0568 23.4696 16.9605V16.9605Z" fill="#ED1C24"/>
<path d="M28.3034 25.8097H26.2544C26.1345 25.7244 26.0368 25.6116 25.9694 25.4808C25.902 25.35 25.8668 25.205 25.867 25.0579C25.867 25.0467 25.867 25.0354 25.867 25.0242C25.866 25.0045 25.866 24.9848 25.867 24.9652V20.239C25.867 19.7739 26.3906 19.3951 27.0329 19.3951H32.6297C33.2733 19.3951 33.7963 19.7739 33.7963 20.239V24.9652C33.7964 24.9859 33.7954 25.0067 33.7933 25.0273C33.7933 25.0367 33.7933 25.046 33.7933 25.056C33.7935 25.203 33.7586 25.348 33.6914 25.4788C33.6242 25.6096 33.5267 25.7224 33.407 25.8078H30.7778C30.6578 25.7225 30.56 25.6098 30.4925 25.479C30.425 25.3482 30.3897 25.2031 30.3897 25.056C30.3898 24.8827 30.4387 24.7129 30.5308 24.5661C30.6228 24.4193 30.7544 24.3013 30.9103 24.2258H32.7056V20.4604H26.951V24.227H28.7487C28.9044 24.3027 29.0357 24.4207 29.1275 24.5675C29.2193 24.7144 29.268 24.884 29.2679 25.0572C29.268 25.2042 29.233 25.3492 29.1657 25.48C29.0985 25.6108 29.0009 25.7236 28.8812 25.809H28.3028L28.3034 25.8097Z" fill="#ED1C24"/>
<path d="M18.9758 25.8097H16.9268C16.8069 25.7244 16.7092 25.6116 16.6418 25.4808C16.5744 25.35 16.5392 25.205 16.5393 25.0579C16.5393 25.0467 16.5393 25.0354 16.5393 25.0242C16.5383 25.0045 16.5383 24.9848 16.5393 24.9652V20.239C16.5393 19.7739 17.0629 19.3951 17.7053 19.3951H23.3021C23.9457 19.3951 24.4687 19.7739 24.4687 20.239V24.9652C24.4687 24.9859 24.4678 25.0067 24.4656 25.0273C24.4656 25.0367 24.4656 25.046 24.4656 25.056C24.4659 25.203 24.4309 25.348 24.3637 25.4788C24.2966 25.6096 24.1991 25.7224 24.0794 25.8078H21.4501C21.3302 25.7225 21.2324 25.6098 21.1649 25.479C21.0974 25.3482 21.0621 25.2031 21.0621 25.056C21.0621 24.8827 21.1111 24.7129 21.2031 24.5661C21.2952 24.4193 21.4267 24.3013 21.5827 24.2258H23.378V20.4604H17.6233V24.227H19.421C19.5768 24.3027 19.708 24.4207 19.7998 24.5675C19.8917 24.7144 19.9403 24.884 19.9403 25.0572C19.9404 25.2042 19.9054 25.3492 19.8381 25.48C19.7708 25.6108 19.6733 25.7236 19.5536 25.809H18.9751L18.9758 25.8097Z" fill="#ED1C24"/>
<defs>
<linearGradient id="paint0_linear_402_258" x1="25" y1="0" x2="25" y2="50" gradientUnits="userSpaceOnUse">
<stop stop-color="#E91D27"/>
<stop offset="1" stop-color="#3E484A"/>
</linearGradient>
</defs>
</svg>
