<svg width="50" height="72" viewBox="0 0 50 72" fill="none" xmlns="http://www.w3.org/2000/svg">
<path d="M47.3198 23.4092C48.4182 23.4092 49.3086 22.5188 49.3086 21.4204C49.3086 20.322 48.4182 19.4316 47.3198 19.4316C46.2215 19.4316 45.3311 20.322 45.3311 21.4204C45.3311 22.5188 46.2215 23.4092 47.3198 23.4092Z" fill="white"/>
<path d="M47.3198 23.4092C48.4182 23.4092 49.3086 22.5188 49.3086 21.4204C49.3086 20.322 48.4182 19.4316 47.3198 19.4316C46.2215 19.4316 45.3311 20.322 45.3311 21.4204C45.3311 22.5188 46.2215 23.4092 47.3198 23.4092Z" fill="white"/>
<path d="M0.75 7C0.75 3.54822 3.54822 0.75 7 0.75H49.25V43C49.25 46.4518 46.4518 49.25 43 49.25H0.75V7Z" fill="white" stroke="url(#paint0_linear_1602_2785)" stroke-width="1.5"/>
<path d="M1.876 71.098C1.39067 71.098 1.148 70.8507 1.148 70.356V61.774C1.148 61.2793 1.39067 61.032 1.876 61.032C2.36133 61.032 2.604 61.2793 2.604 61.774V65.386H8.134V61.774C8.134 61.2793 8.37667 61.032 8.862 61.032C9.338 61.032 9.576 61.2793 9.576 61.774V70.356C9.576 70.8507 9.338 71.098 8.862 71.098C8.37667 71.098 8.134 70.8507 8.134 70.356V66.604H2.604V70.356C2.604 70.8507 2.36133 71.098 1.876 71.098ZM14.6944 71.126C14.0038 71.126 13.4064 70.9813 12.9024 70.692C12.3984 70.4027 12.0064 69.9967 11.7264 69.474C11.4558 68.942 11.3204 68.312 11.3204 67.584C11.3204 66.856 11.4558 66.2307 11.7264 65.708C12.0064 65.176 12.3984 64.7653 12.9024 64.476C13.4064 64.1867 14.0038 64.042 14.6944 64.042C15.3664 64.042 15.9544 64.1867 16.4584 64.476C16.9624 64.7653 17.3544 65.176 17.6344 65.708C17.9144 66.2307 18.0544 66.856 18.0544 67.584C18.0544 68.312 17.9144 68.942 17.6344 69.474C17.3544 69.9967 16.9624 70.4027 16.4584 70.692C15.9544 70.9813 15.3664 71.126 14.6944 71.126ZM14.6944 70.034C15.2731 70.034 15.7398 69.824 16.0944 69.404C16.4491 68.984 16.6264 68.3773 16.6264 67.584C16.6264 66.7907 16.4491 66.1887 16.0944 65.778C15.7398 65.358 15.2731 65.148 14.6944 65.148C14.1064 65.148 13.6351 65.358 13.2804 65.778C12.9258 66.1887 12.7484 66.7907 12.7484 67.584C12.7484 68.3773 12.9258 68.984 13.2804 69.404C13.6351 69.824 14.1064 70.034 14.6944 70.034ZM22.4861 71.126C21.6274 71.126 20.9881 70.9067 20.5681 70.468C20.1481 70.0293 19.9381 69.3947 19.9381 68.564V65.26H19.0981C18.7061 65.26 18.5101 65.078 18.5101 64.714C18.5101 64.35 18.7061 64.168 19.0981 64.168H19.9381V62.726C19.9381 62.25 20.1761 62.012 20.6521 62.012C21.1187 62.012 21.3521 62.25 21.3521 62.726V64.168H22.9901C23.3821 64.168 23.5781 64.35 23.5781 64.714C23.5781 65.078 23.3821 65.26 22.9901 65.26H21.3521V68.452C21.3521 68.9467 21.4547 69.32 21.6601 69.572C21.8747 69.824 22.2201 69.95 22.6961 69.95C22.8641 69.95 23.0087 69.936 23.1301 69.908C23.2514 69.8707 23.3587 69.8473 23.4521 69.838C23.5547 69.838 23.6387 69.8753 23.7041 69.95C23.7694 70.0153 23.8021 70.146 23.8021 70.342C23.8021 70.4913 23.7741 70.6267 23.7181 70.748C23.6714 70.86 23.5827 70.9347 23.4521 70.972C23.3401 71.0187 23.1861 71.056 22.9901 71.084C22.8034 71.112 22.6354 71.126 22.4861 71.126ZM27.825 71.126C26.705 71.126 25.823 70.8133 25.179 70.188C24.535 69.5533 24.213 68.69 24.213 67.598C24.213 66.898 24.353 66.282 24.633 65.75C24.9223 65.2087 25.319 64.7887 25.823 64.49C26.327 64.1913 26.9057 64.042 27.559 64.042C28.5017 64.042 29.2437 64.3453 29.785 64.952C30.3263 65.5493 30.597 66.3753 30.597 67.43C30.597 67.7473 30.4103 67.906 30.037 67.906H25.585C25.6877 69.3247 26.439 70.034 27.839 70.034C28.119 70.034 28.413 70.0013 28.721 69.936C29.029 69.8613 29.3277 69.7307 29.617 69.544C29.813 69.432 29.981 69.3947 30.121 69.432C30.2703 69.46 30.3777 69.5393 30.443 69.67C30.5083 69.7913 30.5177 69.9313 30.471 70.09C30.4337 70.2393 30.3263 70.37 30.149 70.482C29.8317 70.6967 29.4583 70.86 29.029 70.972C28.609 71.0747 28.2077 71.126 27.825 71.126ZM27.615 65.036C27.027 65.036 26.5603 65.218 26.215 65.582C25.8697 65.946 25.6597 66.4313 25.585 67.038H29.407C29.379 66.4033 29.211 65.9133 28.903 65.568C28.595 65.2133 28.1657 65.036 27.615 65.036ZM34.3365 71.126C33.6085 71.126 33.0579 70.916 32.6845 70.496C32.3205 70.076 32.1385 69.46 32.1385 68.648V61.746C32.1385 61.27 32.3719 61.032 32.8385 61.032C33.3145 61.032 33.5525 61.27 33.5525 61.746V68.564C33.5525 69.488 33.9259 69.95 34.6725 69.95C34.7565 69.95 34.8312 69.9453 34.8965 69.936C34.9619 69.9267 35.0272 69.922 35.0925 69.922C35.2045 69.9127 35.2839 69.9453 35.3305 70.02C35.3772 70.0853 35.4005 70.2253 35.4005 70.44C35.4005 70.8227 35.2232 71.042 34.8685 71.098C34.7752 71.1073 34.6819 71.112 34.5885 71.112C34.5045 71.1213 34.4205 71.126 34.3365 71.126ZM39.5555 71.126C38.4355 71.126 37.5535 70.8133 36.9095 70.188C36.2655 69.5533 35.9435 68.69 35.9435 67.598C35.9435 66.898 36.0835 66.282 36.3635 65.75C36.6528 65.2087 37.0495 64.7887 37.5535 64.49C38.0575 64.1913 38.6361 64.042 39.2895 64.042C40.2321 64.042 40.9741 64.3453 41.5155 64.952C42.0568 65.5493 42.3275 66.3753 42.3275 67.43C42.3275 67.7473 42.1408 67.906 41.7675 67.906H37.3155C37.4181 69.3247 38.1695 70.034 39.5695 70.034C39.8495 70.034 40.1435 70.0013 40.4515 69.936C40.7595 69.8613 41.0581 69.7307 41.3475 69.544C41.5435 69.432 41.7115 69.3947 41.8515 69.432C42.0008 69.46 42.1081 69.5393 42.1735 69.67C42.2388 69.7913 42.2481 69.9313 42.2015 70.09C42.1641 70.2393 42.0568 70.37 41.8795 70.482C41.5621 70.6967 41.1888 70.86 40.7595 70.972C40.3395 71.0747 39.9381 71.126 39.5555 71.126ZM39.3455 65.036C38.7575 65.036 38.2908 65.218 37.9455 65.582C37.6001 65.946 37.3901 66.4313 37.3155 67.038H41.1375C41.1095 66.4033 40.9415 65.9133 40.6335 65.568C40.3255 65.2133 39.8961 65.036 39.3455 65.036ZM46.263 71.126C45.8523 71.126 45.4277 71.0793 44.989 70.986C44.5503 70.8927 44.1537 70.734 43.799 70.51C43.6403 70.4167 43.5423 70.3 43.505 70.16C43.4677 70.02 43.477 69.8893 43.533 69.768C43.589 69.6467 43.6777 69.5627 43.799 69.516C43.9297 69.46 44.0743 69.474 44.233 69.558C44.597 69.754 44.947 69.894 45.283 69.978C45.619 70.062 45.9503 70.104 46.277 70.104C46.7717 70.104 47.145 70.0153 47.397 69.838C47.649 69.6607 47.775 69.4227 47.775 69.124C47.775 68.8813 47.691 68.6947 47.523 68.564C47.355 68.424 47.103 68.3167 46.767 68.242L45.437 67.976C44.261 67.7333 43.673 67.1267 43.673 66.156C43.673 65.512 43.9297 64.9987 44.443 64.616C44.9563 64.2333 45.6283 64.042 46.459 64.042C47.299 64.042 48.0223 64.2473 48.629 64.658C48.7783 64.7513 48.867 64.868 48.895 65.008C48.923 65.1387 48.9043 65.2647 48.839 65.386C48.7737 65.498 48.6757 65.5773 48.545 65.624C48.4237 65.6707 48.279 65.652 48.111 65.568C47.831 65.4 47.551 65.2787 47.271 65.204C46.991 65.12 46.7203 65.078 46.459 65.078C45.9737 65.078 45.605 65.1713 45.353 65.358C45.101 65.5353 44.975 65.778 44.975 66.086C44.975 66.5527 45.283 66.8513 45.899 66.982L47.229 67.248C47.8357 67.3693 48.293 67.5747 48.601 67.864C48.9183 68.1533 49.077 68.5453 49.077 69.04C49.077 69.6933 48.8203 70.2067 48.307 70.58C47.7937 70.944 47.1123 71.126 46.263 71.126Z" fill="#ED1C24"/>
<path d="M19.8861 30.912H17.431C17.2954 30.912 17.1653 30.9658 17.0693 31.0617C16.9734 31.1575 16.9194 31.2875 16.9192 31.4232V34.2875C16.9192 34.4232 16.9731 34.5534 17.0691 34.6493C17.1651 34.7453 17.2952 34.7992 17.431 34.7992H19.8861C20.0218 34.7992 20.152 34.7453 20.248 34.6493C20.344 34.5534 20.3979 34.4232 20.3979 34.2875V31.4232C20.3977 31.2875 20.3437 31.1575 20.2478 31.0617C20.1518 30.9658 20.0217 30.912 19.8861 30.912ZM19.3743 33.7763H17.944V31.9349H19.3743V33.7763Z" fill="#ED1C24"/>
<path d="M33.2355 30.912H30.7803C30.6447 30.912 30.5146 30.9658 30.4187 31.0617C30.3227 31.1575 30.2687 31.2875 30.2686 31.4232V34.2875C30.2686 34.4232 30.3225 34.5534 30.4184 34.6493C30.5144 34.7453 30.6446 34.7992 30.7803 34.7992H33.2355C33.3712 34.7992 33.5014 34.7453 33.5973 34.6493C33.6933 34.5534 33.7472 34.4232 33.7472 34.2875V31.4232C33.7471 31.2875 33.6931 31.1575 33.5971 31.0617C33.5012 30.9658 33.3711 30.912 33.2355 30.912ZM32.7237 33.7763H31.2934V31.9349H32.7237V33.7763Z" fill="#ED1C24"/>
<path d="M37.66 37.1661H35.741V17.3231C35.741 17.1874 35.6871 17.0572 35.5911 16.9612C35.4951 16.8653 35.3649 16.8113 35.2292 16.8113H32.3904V14.9669C32.3904 14.8317 32.3369 14.702 32.2416 14.6061C32.1463 14.5102 32.0169 14.4559 31.8817 14.4551H29.0665V12.5118C29.0665 12.3761 29.0126 12.2459 28.9166 12.1499C28.8207 12.0539 28.6905 12 28.5548 12H21.5986C21.4629 12 21.3327 12.0539 21.2367 12.1499C21.1407 12.2459 21.0868 12.3761 21.0868 12.5118V14.4551H18.2742C18.1384 14.4551 18.0082 14.509 17.9123 14.605C17.8163 14.701 17.7624 14.8312 17.7624 14.9669V16.8113H14.9242C14.7885 16.8113 14.6583 16.8653 14.5623 16.9612C14.4663 17.0572 14.4124 17.1874 14.4124 17.3231V37.1661H12.494C12.3614 37.1707 12.2358 37.2266 12.1436 37.322C12.0515 37.4175 12 37.5449 12 37.6776C12 37.8102 12.0515 37.9377 12.1436 38.0331C12.2358 38.1285 12.3614 38.1844 12.494 38.1891H37.66C37.7926 38.1844 37.9182 38.1285 38.0104 38.0331C38.1025 37.9377 38.154 37.8102 38.154 37.6776C38.154 37.5449 38.1025 37.4175 38.0104 37.322C37.9182 37.2266 37.7926 37.1707 37.66 37.1661ZM22.1098 13.023H28.043V14.4532H22.1098V13.023ZM27.2246 37.2917H22.9269V31.0289H27.2234L27.2246 37.2917ZM34.7174 37.1673H28.25V31.0289H28.4291C28.4978 31.0313 28.5663 31.0199 28.6304 30.9953C28.6946 30.9706 28.7531 30.9333 28.8025 30.8856C28.8519 30.8379 28.8912 30.7807 28.9181 30.7174C28.9449 30.6542 28.9588 30.5862 28.9588 30.5175C28.9588 30.4488 28.9449 30.3807 28.9181 30.3175C28.8912 30.2542 28.8519 30.1971 28.8025 30.1493C28.7531 30.1016 28.6946 30.0643 28.6304 30.0397C28.5663 30.015 28.4978 30.0036 28.4291 30.006H21.7261C21.6574 30.0036 21.589 30.015 21.5248 30.0397C21.4607 30.0643 21.4022 30.1016 21.3527 30.1493C21.3033 30.1971 21.264 30.2542 21.2372 30.3175C21.2103 30.3807 21.1965 30.4488 21.1965 30.5175C21.1965 30.5862 21.2103 30.6542 21.2372 30.7174C21.264 30.7807 21.3033 30.8379 21.3527 30.8856C21.4022 30.9333 21.4607 30.9706 21.5248 30.9953C21.589 31.0199 21.6574 31.0313 21.7261 31.0289H21.9052V37.1667H15.4354V17.8343H21.1136C21.2461 17.8297 21.3717 17.7738 21.4639 17.6783C21.556 17.5829 21.6075 17.4555 21.6075 17.3228C21.6075 17.1902 21.556 17.0627 21.4639 16.9673C21.3717 16.8719 21.2461 16.816 21.1136 16.8113H18.7859V15.4781H31.3674V16.8113H25.1544C25.0858 16.8089 25.0173 16.8204 24.9532 16.845C24.889 16.8697 24.8305 16.9069 24.7811 16.9547C24.7316 17.0024 24.6923 17.0596 24.6655 17.1229C24.6386 17.1861 24.6248 17.2541 24.6248 17.3228C24.6248 17.3915 24.6386 17.4595 24.6655 17.5228C24.6923 17.586 24.7316 17.6432 24.7811 17.691C24.8305 17.7387 24.889 17.776 24.9532 17.8006C25.0173 17.8252 25.0858 17.8367 25.1544 17.8343H34.718L34.7174 37.1673Z" fill="#ED1C24"/>
<path d="M23.4699 16.9606C23.3862 16.877 23.2762 16.825 23.1585 16.8135C23.0409 16.8019 22.9228 16.8315 22.8245 16.8972C22.7262 16.9629 22.6537 17.0607 22.6194 17.1738C22.5851 17.287 22.5911 17.4085 22.6363 17.5178C22.6815 17.627 22.7633 17.7172 22.8675 17.773C22.9718 17.8287 23.0922 17.8466 23.2081 17.8236C23.3241 17.8006 23.4285 17.7381 23.5036 17.6467C23.5786 17.5553 23.6197 17.4408 23.6198 17.3225C23.6194 17.1869 23.5655 17.0568 23.4699 16.9606Z" fill="#ED1C24"/>
<path d="M28.3034 25.8097H26.2544C26.1345 25.7244 26.0368 25.6116 25.9694 25.4808C25.902 25.35 25.8668 25.205 25.867 25.0579C25.867 25.0467 25.867 25.0354 25.867 25.0242C25.866 25.0045 25.866 24.9848 25.867 24.9652V20.239C25.867 19.7739 26.3906 19.3951 27.0329 19.3951H32.6297C33.2733 19.3951 33.7963 19.7739 33.7963 20.239V24.9652C33.7964 24.9859 33.7954 25.0067 33.7933 25.0273C33.7933 25.0367 33.7933 25.046 33.7933 25.056C33.7935 25.203 33.7586 25.348 33.6914 25.4788C33.6242 25.6096 33.5267 25.7224 33.407 25.8078H30.7778C30.6578 25.7225 30.56 25.6098 30.4925 25.479C30.425 25.3482 30.3897 25.2031 30.3897 25.056C30.3898 24.8827 30.4387 24.7129 30.5308 24.5661C30.6228 24.4193 30.7544 24.3013 30.9103 24.2258H32.7056V20.4604H26.951V24.227H28.7487C28.9044 24.3027 29.0357 24.4207 29.1275 24.5675C29.2193 24.7144 29.268 24.884 29.2679 25.0572C29.268 25.2042 29.233 25.3492 29.1657 25.48C29.0985 25.6108 29.0009 25.7236 28.8812 25.809H28.3028L28.3034 25.8097Z" fill="#ED1C24"/>
<path d="M18.9755 25.8097H16.9265C16.8066 25.7244 16.709 25.6116 16.6416 25.4808C16.5742 25.35 16.5389 25.205 16.5391 25.0579C16.5391 25.0467 16.5391 25.0354 16.5391 25.0242C16.5381 25.0045 16.5381 24.9848 16.5391 24.9652V20.239C16.5391 19.7739 17.0627 19.3951 17.7051 19.3951H23.3018C23.9454 19.3951 24.4684 19.7739 24.4684 20.239V24.9652C24.4685 24.9859 24.4675 25.0067 24.4654 25.0273C24.4654 25.0367 24.4654 25.046 24.4654 25.056C24.4656 25.203 24.4307 25.348 24.3635 25.4788C24.2963 25.6096 24.1988 25.7224 24.0791 25.8078H21.4499C21.3299 25.7225 21.2321 25.6098 21.1646 25.479C21.0971 25.3482 21.0618 25.2031 21.0618 25.056C21.0619 24.8827 21.1108 24.7129 21.2029 24.5661C21.2949 24.4193 21.4265 24.3013 21.5824 24.2258H23.3777V20.4604H17.6231V24.227H19.4208C19.5765 24.3027 19.7078 24.4207 19.7996 24.5675C19.8914 24.7144 19.9401 24.884 19.94 25.0572C19.9401 25.2042 19.9051 25.3492 19.8379 25.48C19.7706 25.6108 19.6731 25.7236 19.5533 25.809H18.9749L18.9755 25.8097Z" fill="#ED1C24"/>
<defs>
<linearGradient id="paint0_linear_1602_2785" x1="25" y1="0" x2="25" y2="50" gradientUnits="userSpaceOnUse">
<stop stop-color="#E91D27"/>
<stop offset="1" stop-color="#3E484A"/>
</linearGradient>
</defs>
</svg>
