<svg width="50" height="50" viewBox="0 0 50 50" fill="none" xmlns="http://www.w3.org/2000/svg">
<g opacity="0.59">
<path d="M7 0.5H49.5V43C49.5 46.5899 46.5899 49.5 43 49.5H0.5V7C0.5 3.41015 3.41015 0.5 7 0.5Z" fill="white" stroke="#828282"/>
<path d="M22.3203 23.4093C23.4187 23.4093 24.3091 22.5189 24.3091 21.4205C24.3091 20.3222 23.4187 19.4318 22.3203 19.4318C21.2219 19.4318 20.3315 20.3222 20.3315 21.4205C20.3315 22.5189 21.2219 23.4093 22.3203 23.4093Z" fill="white"/>
<path d="M22.3203 23.4093C23.4187 23.4093 24.3091 22.5189 24.3091 21.4205C24.3091 20.3222 23.4187 19.4318 22.3203 19.4318C21.2219 19.4318 20.3315 20.3222 20.3315 21.4205C20.3315 22.5189 21.2219 23.4093 22.3203 23.4093Z" fill="white"/>
</g>
<g opacity="0.59">
<path d="M19.1266 29.5687H17.1401V32.8794H19.1266V29.5687Z" fill="#6B253C"/>
<path d="M33.694 29.5687H31.0454V32.8794H33.694V29.5687Z" fill="#6B253C"/>
<path d="M19.3969 29.2515H16.7828C16.6383 29.2515 16.4998 29.3088 16.3976 29.4108C16.2955 29.5129 16.238 29.6513 16.2378 29.7958V32.8456C16.2378 32.9902 16.2952 33.1288 16.3974 33.231C16.4996 33.3332 16.6382 33.3906 16.7828 33.3906H19.3969C19.5415 33.3906 19.6801 33.3332 19.7823 33.231C19.8845 33.1288 19.9419 32.9902 19.9419 32.8456V29.7958C19.9417 29.6513 19.8842 29.5129 19.782 29.4108C19.6799 29.3088 19.5414 29.2515 19.3969 29.2515V29.2515ZM18.852 32.3013H17.329V30.3407H18.852V32.3013Z" fill="#676767"/>
<path d="M33.6113 29.2515H30.9971C30.8527 29.2515 30.7142 29.3088 30.612 29.4108C30.5098 29.5129 30.4523 29.6513 30.4521 29.7958V32.8456C30.4521 32.9902 30.5095 33.1288 30.6117 33.231C30.7139 33.3332 30.8526 33.3906 30.9971 33.3906H33.6113C33.7558 33.3906 33.8944 33.3332 33.9966 33.231C34.0988 33.1288 34.1562 32.9902 34.1562 32.8456V29.7958C34.1561 29.6513 34.0986 29.5129 33.9964 29.4108C33.8942 29.3088 33.7557 29.2515 33.6113 29.2515V29.2515ZM33.0663 32.3013H31.5434V30.3407H33.0663V32.3013Z" fill="#676767"/>
<path d="M38.3227 35.9108H36.2793V14.7821C36.2793 14.6375 36.2219 14.4989 36.1197 14.3967C36.0175 14.2945 35.8789 14.2371 35.7344 14.2371H32.7116V12.2732C32.7116 12.1292 32.6547 11.9911 32.5532 11.889C32.4517 11.7869 32.3139 11.7291 32.17 11.7282H29.1724V9.65897C29.1724 9.51444 29.115 9.37583 29.0128 9.27363C28.9106 9.17143 28.772 9.11401 28.6274 9.11401H21.2206C21.076 9.11401 20.9374 9.17143 20.8352 9.27363C20.733 9.37583 20.6756 9.51444 20.6756 9.65897V11.7282H17.6807C17.5362 11.7282 17.3976 11.7856 17.2954 11.8878C17.1932 11.99 17.1357 12.1286 17.1357 12.2732V14.2371H14.1137C13.9691 14.2371 13.8305 14.2945 13.7283 14.3967C13.6261 14.4989 13.5687 14.6375 13.5687 14.7821V35.9108H11.526C11.3848 35.9157 11.2511 35.9752 11.153 36.0768C11.0548 36.1784 11 36.3142 11 36.4554C11 36.5966 11.0548 36.7324 11.153 36.834C11.2511 36.9356 11.3848 36.9951 11.526 37H38.3227C38.4639 36.9951 38.5976 36.9356 38.6957 36.834C38.7938 36.7324 38.8487 36.5966 38.8487 36.4554C38.8487 36.3142 38.7938 36.1784 38.6957 36.0768C38.5976 35.9752 38.4639 35.9157 38.3227 35.9108V35.9108ZM21.7649 10.2033H28.0825V11.7262H21.7649V10.2033ZM27.2111 36.0445H22.6349V29.376H27.2098L27.2111 36.0445ZM35.1894 35.9121H28.303V29.376H28.4937C28.5668 29.3785 28.6397 29.3663 28.708 29.3401C28.7763 29.3139 28.8386 29.2742 28.8912 29.2233C28.9439 29.1725 28.9857 29.1116 29.0143 29.0443C29.0429 28.9769 29.0576 28.9045 29.0576 28.8313C29.0576 28.7582 29.0429 28.6858 29.0143 28.6184C28.9857 28.5511 28.9439 28.4902 28.8912 28.4393C28.8386 28.3885 28.7763 28.3488 28.708 28.3226C28.6397 28.2964 28.5668 28.2842 28.4937 28.2867H21.3563C21.2832 28.2842 21.2103 28.2964 21.142 28.3226C21.0737 28.3488 21.0114 28.3885 20.9588 28.4393C20.9061 28.4902 20.8643 28.5511 20.8357 28.6184C20.8071 28.6858 20.7924 28.7582 20.7924 28.8313C20.7924 28.9045 20.8071 28.9769 20.8357 29.0443C20.8643 29.1116 20.9061 29.1725 20.9588 29.2233C21.0114 29.2742 21.0737 29.3139 21.142 29.3401C21.2103 29.3663 21.2832 29.3785 21.3563 29.376H21.547V35.9114H14.658V15.3264H20.7041C20.8452 15.3214 20.979 15.2619 21.0771 15.1603C21.1752 15.0587 21.2301 14.923 21.2301 14.7817C21.2301 14.6405 21.1752 14.5048 21.0771 14.4032C20.979 14.3016 20.8452 14.242 20.7041 14.2371H18.2256V12.8174H31.6224V14.2371H25.0068C24.9337 14.2346 24.8608 14.2468 24.7925 14.273C24.7242 14.2992 24.6618 14.3389 24.6092 14.3897C24.5566 14.4406 24.5147 14.5015 24.4861 14.5688C24.4576 14.6362 24.4428 14.7086 24.4428 14.7817C24.4428 14.8549 24.4576 14.9273 24.4861 14.9947C24.5147 15.062 24.5566 15.1229 24.6092 15.1737C24.6618 15.2246 24.7242 15.2643 24.7925 15.2905C24.8608 15.3167 24.9337 15.3289 25.0068 15.3264H35.1901L35.1894 35.9121Z" fill="#676767"/>
<path d="M23.2132 14.396C23.1241 14.307 23.007 14.2517 22.8817 14.2394C22.7564 14.2271 22.6307 14.2586 22.526 14.3285C22.4213 14.3985 22.3442 14.5026 22.3076 14.6231C22.2711 14.7435 22.2774 14.873 22.3256 14.9893C22.3738 15.1056 22.4608 15.2016 22.5718 15.261C22.6828 15.3204 22.811 15.3394 22.9345 15.3149C23.058 15.2904 23.1691 15.2238 23.249 15.1266C23.329 15.0293 23.3727 14.9073 23.3728 14.7814C23.3723 14.6369 23.315 14.4985 23.2132 14.396V14.396Z" fill="#676767"/>
<path d="M28.3597 23.8185H26.178C26.0503 23.7277 25.9463 23.6076 25.8746 23.4684C25.8028 23.3291 25.7653 23.1747 25.7654 23.018C25.7654 23.0061 25.7654 22.9941 25.7654 22.9822C25.7644 22.9612 25.7644 22.9402 25.7654 22.9193V17.8869C25.7654 17.3916 26.323 16.9883 27.007 16.9883H32.9664C33.6517 16.9883 34.2086 17.3916 34.2086 17.8869V22.9193C34.2086 22.9414 34.2076 22.9635 34.2053 22.9855C34.2053 22.9954 34.2053 23.0054 34.2053 23.016C34.2056 23.1725 34.1684 23.3269 34.0969 23.4662C34.0253 23.6054 33.9215 23.7255 33.7941 23.8165H30.9945C30.8667 23.7257 30.7626 23.6057 30.6907 23.4664C30.6188 23.3272 30.5813 23.1727 30.5813 23.016C30.5813 22.8314 30.6334 22.6507 30.7314 22.4944C30.8295 22.338 30.9695 22.2125 31.1356 22.132H33.0472V18.1226H26.9197V22.1333H28.8339C28.9997 22.2139 29.1395 22.3396 29.2372 22.4959C29.335 22.6522 29.3868 22.8329 29.3868 23.0173C29.3869 23.1739 29.3496 23.3282 29.278 23.4675C29.2063 23.6067 29.1025 23.7268 28.975 23.8178H28.3591L28.3597 23.8185Z" fill="#676767"/>
<path d="M18.4271 23.8185H16.2454C16.1177 23.7276 16.0137 23.6076 15.9419 23.4683C15.8702 23.329 15.8327 23.1746 15.8328 23.0179C15.8328 23.006 15.8328 22.994 15.8328 22.9821C15.8318 22.9612 15.8318 22.9402 15.8328 22.9192V17.8869C15.8328 17.3916 16.3904 16.9883 17.0744 16.9883H23.0338C23.7191 16.9883 24.2759 17.3916 24.2759 17.8869V22.9192C24.276 22.9413 24.275 22.9634 24.2727 22.9854C24.2727 22.9954 24.2727 23.0053 24.2727 23.0159C24.273 23.1725 24.2358 23.3269 24.1642 23.4661C24.0927 23.6054 23.9889 23.7255 23.8615 23.8164H21.0618C20.9341 23.7257 20.83 23.6056 20.7581 23.4664C20.6862 23.3271 20.6486 23.1726 20.6486 23.0159C20.6487 22.8314 20.7008 22.6506 20.7988 22.4943C20.8968 22.338 21.0369 22.2124 21.203 22.1319H23.1146V18.1226H16.9871V22.1332H18.9013C19.0671 22.2139 19.2068 22.3395 19.3046 22.4958C19.4024 22.6522 19.4542 22.8328 19.4541 23.0172C19.4543 23.1738 19.417 23.3282 19.3454 23.4674C19.2737 23.6067 19.1699 23.7268 19.0424 23.8177H18.4265L18.4271 23.8185Z" fill="#676767"/>
</g>
</svg>
