<svg width="43" height="42" viewBox="0 0 43 42" fill="none" xmlns="http://www.w3.org/2000/svg">
<path d="M42.058 40.946C40.5091 39.1746 38.703 37.6459 36.7 36.411C32.0354 33.4478 26.6182 31.8859 21.092 31.911C20.5587 31.911 20.031 31.9247 19.509 31.952C19.565 30.678 19.657 29.521 19.789 28.434C19.8023 28.274 19.7531 28.115 19.6517 27.9904C19.5503 27.8659 19.4046 27.7855 19.2452 27.766C19.0858 27.7466 18.925 27.7897 18.7967 27.8863C18.6684 27.9829 18.5825 28.1254 18.557 28.284C18.416 29.443 18.319 30.678 18.262 32.041C17.0903 32.1488 15.9261 32.3275 14.776 32.576C15.2434 28.0537 16.4795 23.6443 18.431 19.538C18.507 19.543 18.582 19.547 18.657 19.547C19.4215 19.5457 20.1615 19.2765 20.748 18.786C20.8486 19.0376 20.9799 19.2757 21.139 19.495C20.133 21.4152 19.4125 23.4719 19 25.6C18.9711 25.7595 19.0057 25.924 19.0964 26.0583C19.1871 26.1926 19.3268 26.2862 19.4855 26.3189C19.6442 26.3517 19.8095 26.3211 19.946 26.2337C20.0825 26.1462 20.1794 26.0089 20.216 25.851C20.588 23.9473 21.2181 22.1033 22.089 20.37C22.8089 20.8061 23.6696 20.9467 24.4909 20.7621C25.3121 20.5775 26.0299 20.0822 26.494 19.38L26.948 20.78C27.0942 21.2354 27.353 21.6465 27.7003 21.9753C28.0476 22.3041 28.4723 22.5399 28.935 22.661L31.243 23.27L31.884 25.154C32.0471 25.6316 32.3336 26.0576 32.7146 26.3887C33.0955 26.7198 33.5573 26.9441 34.053 27.039L35.779 27.367C36.004 27.4108 36.2365 27.3944 36.4531 27.3194C36.6697 27.2443 36.8626 27.1134 37.0122 26.9398C37.1619 26.7662 37.263 26.5561 37.3053 26.3308C37.3475 26.1055 37.3295 25.8731 37.253 25.657C36.4276 23.1201 35.0676 20.7897 33.2649 18.8231C31.4622 16.8565 29.2587 15.2995 26.803 14.257L27.487 13.602L29.233 14.131C29.6905 14.2703 30.1758 14.2919 30.6439 14.1939C31.112 14.0958 31.5478 13.8812 31.911 13.57L33.728 12.022L35.641 12.57C36.1262 12.7085 36.6394 12.7161 37.1286 12.5921C37.6177 12.4681 38.0653 12.2169 38.426 11.864L39.68 10.634C39.8446 10.4742 39.9639 10.2737 40.0259 10.0529C40.088 9.8321 40.0905 9.59879 40.0332 9.37669C39.9759 9.15458 39.8609 8.95159 39.6998 8.78831C39.5387 8.62503 39.3373 8.50727 39.116 8.447C36.4833 7.69085 33.7219 7.49161 31.008 7.862C30.9256 7.87152 30.8459 7.89746 30.7736 7.93829C30.7014 7.97912 30.6381 8.03402 30.5874 8.09973C30.5368 8.16544 30.4998 8.24064 30.4787 8.32089C30.4576 8.40113 30.4527 8.4848 30.4645 8.56693C30.4763 8.64907 30.5044 8.72802 30.5471 8.79912C30.5899 8.87021 30.6465 8.93201 30.7136 8.98086C30.7807 9.02971 30.8569 9.06463 30.9376 9.08355C31.0184 9.10246 31.1022 9.105 31.184 9.091C33.7282 8.74501 36.3165 8.933 38.784 9.643C38.7935 9.64653 38.802 9.6523 38.8088 9.65982C38.8156 9.66735 38.8205 9.6764 38.8231 9.68622C38.8256 9.69604 38.8258 9.70633 38.8235 9.71621C38.8212 9.7261 38.8166 9.73529 38.81 9.743L37.556 10.973C37.3522 11.1726 37.0993 11.3147 36.8228 11.3849C36.5464 11.4552 36.2563 11.4511 35.982 11.373L33.748 10.733C33.6497 10.7048 33.5459 10.7014 33.4459 10.723C33.3459 10.7446 33.2529 10.7907 33.175 10.857L31.105 12.621C30.8996 12.7968 30.6531 12.9179 30.3885 12.9731C30.1239 13.0284 29.8496 13.0159 29.591 12.937L27.5 12.309C27.3946 12.2772 27.2827 12.274 27.1757 12.2996C27.0687 12.3253 26.9705 12.3789 26.891 12.455L25.642 13.65C25.5995 13.6902 25.5547 13.7279 25.508 13.763C24.7423 13.497 23.956 13.2947 23.157 13.158C23.057 13.09 22.896 12.988 22.684 12.858C24.4985 11.3664 26.5953 10.2562 28.849 9.594C28.9334 9.57703 29.0134 9.54267 29.0839 9.49312C29.1543 9.44357 29.2137 9.3799 29.2582 9.30617C29.3027 9.23244 29.3314 9.15026 29.3425 9.06484C29.3535 8.97943 29.3467 8.89264 29.3224 8.81001C29.2981 8.72738 29.2569 8.65071 29.2013 8.58487C29.1458 8.51902 29.0772 8.46545 28.9999 8.42755C28.9225 8.38964 28.8381 8.36825 28.7521 8.36471C28.666 8.36117 28.5802 8.37557 28.5 8.407C26.9814 8.85354 25.526 9.49203 24.169 10.307C23.1516 7.93713 21.6527 5.80466 19.7673 4.04494C17.8819 2.28523 15.6513 0.936715 13.217 0.0850012C13.0027 0.00358874 12.7707 -0.0197166 12.5445 0.0174481C12.3183 0.0546129 12.106 0.150926 11.929 0.296623C11.752 0.442319 11.6167 0.632218 11.5368 0.847067C11.4569 1.06191 11.4352 1.29407 11.474 1.52L11.763 3.253C11.8466 3.75107 12.0606 4.21811 12.3833 4.60664C12.706 4.99517 13.1258 5.29132 13.6 5.465L15.469 6.149L16.024 8.47C16.1344 8.93542 16.3604 9.36546 16.6812 9.7203C17.0019 10.0751 17.407 10.3433 17.859 10.5L19.581 11.1L19.647 11.467C17.1448 10.5865 14.4836 10.2501 11.841 10.4801C9.19844 10.7101 6.63537 11.5014 4.32299 12.801C4.1202 12.9081 3.94934 13.0669 3.82775 13.2613C3.70616 13.4557 3.63815 13.6788 3.63064 13.908C3.62312 14.1372 3.67637 14.3643 3.78496 14.5663C3.89356 14.7682 4.05365 14.9379 4.24899 15.058L5.74099 15.986C6.16979 16.2521 6.66137 16.3999 7.1658 16.4145C7.67024 16.4291 8.16954 16.3099 8.61299 16.069L10.361 15.117L12.471 16.232C12.8933 16.4565 13.3655 16.5708 13.8437 16.5643C14.322 16.5578 14.7909 16.4308 15.207 16.195L15.407 16.081C15.3659 16.724 15.5163 17.3648 15.8391 17.9224C16.162 18.4801 16.6428 18.9295 17.221 19.214C15.1884 23.5161 13.9321 28.1436 13.51 32.883C11.1977 33.4954 8.97233 34.3983 6.88699 35.57C6.74825 35.653 6.64733 35.7868 6.6057 35.943C6.56407 36.0992 6.585 36.2655 6.66404 36.4066C6.74309 36.5476 6.87401 36.6522 7.02899 36.6982C7.18397 36.7443 7.35079 36.728 7.49399 36.653C9.59665 35.4707 11.8479 34.5748 14.188 33.989C14.2275 33.9831 14.2664 33.9734 14.304 33.96C15.8014 33.5933 17.3266 33.3515 18.864 33.237C18.8901 33.2367 18.9161 33.2347 18.942 33.231C19.652 33.1797 20.369 33.1537 21.093 33.153C26.3658 33.1271 31.536 34.6104 35.993 37.428C37.4888 38.3746 38.8814 39.4753 40.148 40.712H2.04299C3.0709 39.7065 4.18407 38.7921 5.36999 37.979C5.49269 37.8812 5.57382 37.7406 5.59706 37.5854C5.6203 37.4302 5.58392 37.2719 5.49525 37.1425C5.40658 37.013 5.27218 36.9219 5.11908 36.8875C4.96598 36.8531 4.80553 36.8779 4.66999 36.957C2.98636 38.0782 1.46047 39.4198 0.132988 40.946C0.0619284 41.0378 0.0178104 41.1476 0.00556585 41.2631C-0.00667867 41.3786 0.0134329 41.4951 0.0636523 41.5998C0.113872 41.7045 0.192219 41.7932 0.289937 41.8559C0.387655 41.9186 0.500892 41.9529 0.616988 41.955H41.574C41.6901 41.9529 41.8033 41.9186 41.901 41.8559C41.9988 41.7932 42.0771 41.7045 42.1273 41.5998C42.1775 41.4951 42.1977 41.3786 42.1854 41.2631C42.1732 41.1476 42.129 41.0378 42.058 40.946ZM23.283 19.535C22.901 19.4386 22.5556 19.2325 22.2894 18.942C22.0232 18.6515 21.8479 18.2895 21.7852 17.9006C21.7224 17.5116 21.775 17.1128 21.9363 16.7534C22.0976 16.3939 22.3607 16.0896 22.693 15.878L22.809 16.499C22.9125 17.058 23.1811 17.5731 23.5802 17.9779C23.9793 18.3827 24.4906 18.6586 25.048 18.77L25.355 18.832C25.1135 19.1356 24.7897 19.3633 24.4223 19.488C24.0549 19.6126 23.6594 19.6289 23.283 19.535ZM28.063 16.259C29.7099 17.1828 31.1921 18.3737 32.449 19.783C34.0612 21.6195 35.2954 23.7559 36.081 26.07C36.085 26.0801 36.086 26.0911 36.0839 26.1018C36.0818 26.1124 36.0766 26.1222 36.069 26.13C36.0624 26.139 36.0532 26.1458 36.0427 26.1495C36.0322 26.1533 36.0208 26.1538 36.01 26.151L34.284 25.823C34.0038 25.7695 33.7428 25.6427 33.5275 25.4557C33.3122 25.2686 33.1502 25.0279 33.058 24.758L32.31 22.558C32.277 22.4611 32.2205 22.3739 32.1457 22.3042C32.0708 22.2344 31.9799 22.1842 31.881 22.158L29.252 21.464C28.9905 21.3956 28.7505 21.2623 28.5542 21.0765C28.3579 20.8906 28.2117 20.6583 28.129 20.401L27.455 18.32C27.4211 18.2153 27.3601 18.1215 27.278 18.0482C27.1959 17.9749 27.0958 17.9248 26.988 17.903L26.416 17.787L25.3 17.554C24.984 17.4919 24.694 17.3362 24.4676 17.1073C24.2411 16.8783 24.0887 16.5866 24.03 16.27L23.7 14.534C25.2269 14.9051 26.6952 15.4856 28.063 16.259ZM20.739 10.525C20.7197 10.4166 20.6719 10.3154 20.6005 10.2316C20.5292 10.1477 20.4369 10.0844 20.333 10.048L18.268 9.327C18.0126 9.23845 17.7837 9.08691 17.6025 8.88643C17.4212 8.68594 17.2934 8.44297 17.231 8.18L16.6 5.535C16.5761 5.43552 16.528 5.34348 16.46 5.26706C16.3919 5.19065 16.306 5.13223 16.21 5.097L14.028 4.297C13.7602 4.19863 13.5233 4.03118 13.3412 3.81164C13.159 3.59211 13.0382 3.32831 12.991 3.047L12.7 1.316C12.6975 1.30509 12.6982 1.29368 12.7021 1.28319C12.706 1.27269 12.7129 1.26359 12.722 1.257C12.7299 1.24962 12.7398 1.24473 12.7505 1.24295C12.7612 1.24117 12.7721 1.24258 12.782 1.247C15.092 2.05229 17.2062 3.33586 18.9864 5.01386C20.7666 6.69186 22.1727 8.72655 23.113 10.985C22.5558 11.3705 22.0215 11.7882 21.513 12.236C21.355 12.16 21.1883 12.0827 21.013 12.004L20.739 10.525ZM14.6 15.114C14.3648 15.2472 14.0999 15.319 13.8297 15.3227C13.5595 15.3263 13.2927 15.2618 13.054 15.135L10.654 13.864C10.5636 13.816 10.4628 13.7909 10.3605 13.7909C10.2582 13.7909 10.1574 13.816 10.067 13.864L8.01899 14.978C7.76882 15.1132 7.48743 15.1801 7.20318 15.1718C6.91893 15.1636 6.64189 15.0805 6.39999 14.931L4.89999 14.004C4.89067 13.9984 4.88296 13.9905 4.8776 13.981C4.87225 13.9716 4.86944 13.9609 4.86944 13.95C4.86944 13.9391 4.87225 13.9284 4.8776 13.919C4.88296 13.9095 4.89067 13.9016 4.89999 13.896C8.69728 11.7605 13.1555 11.121 17.4 12.103C18.9471 12.4615 20.4367 13.0337 21.826 13.803L20.675 14.662L20.414 14.857C20.157 15.0497 19.8482 15.161 19.5273 15.1766C19.2065 15.1921 18.8884 15.1111 18.614 14.944L17.136 14.05C17.0419 13.9929 16.9344 13.9619 16.8243 13.9602C16.7143 13.9584 16.6058 13.986 16.51 14.04L14.6 15.114ZM16.709 15.796C16.7487 15.641 16.8068 15.4913 16.882 15.35L17.966 16.006C18.3705 16.2522 18.8301 16.3933 19.3031 16.4165C19.776 16.4397 20.2473 16.3443 20.674 16.139C20.6987 16.4557 20.648 16.7738 20.5262 17.0672C20.4043 17.3606 20.2147 17.6209 19.9729 17.827C19.7311 18.033 19.4439 18.1788 19.1349 18.2525C18.8258 18.3262 18.5038 18.3257 18.195 18.251H18.183H18.171C17.6524 18.1201 17.207 17.7885 16.9329 17.3293C16.6587 16.87 16.5782 16.3206 16.709 15.802V15.796Z" fill="#ED1C24"/>
</svg>
