<svg width="59" height="74" viewBox="0 0 59 74" fill="none" xmlns="http://www.w3.org/2000/svg">
<path d="M5.75 7C5.75 3.54822 8.54822 0.75 12 0.75H54.25V43C54.25 46.4518 51.4518 49.25 48 49.25H5.75V7Z" fill="white" stroke="url(#paint0_linear_1602_2074)" stroke-width="1.5"/>
<path d="M4.046 66.576C4.746 66.576 5.26867 66.4313 5.614 66.142C5.96867 65.8433 6.146 65.414 6.146 64.854C6.146 63.706 5.45067 63.132 4.06 63.132H2.394V66.576H4.046ZM2.408 70.398C2.408 70.594 2.35667 70.7527 2.254 70.874C2.15133 70.9953 1.99267 71.056 1.778 71.056H1.568C1.16667 71.056 0.966 70.8367 0.966 70.398V62.754C0.966 62.5113 1.036 62.3153 1.176 62.166C1.316 62.0167 1.50267 61.942 1.736 61.942H4.074C5.20333 61.942 6.07133 62.1893 6.678 62.684C7.28467 63.1787 7.588 63.8927 7.588 64.826C7.588 65.7873 7.28467 66.5153 6.678 67.01C6.08067 67.4953 5.194 67.738 4.018 67.738H2.408V70.398ZM10.928 70.16C11.2267 70.16 11.502 70.118 11.754 70.034C12.0153 69.9407 12.2347 69.8147 12.412 69.656C12.5987 69.488 12.7433 69.292 12.846 69.068C12.9487 68.844 13 68.6013 13 68.34V67.822L12.622 67.836C11.6327 67.8733 10.8907 67.9947 10.396 68.2C9.90132 68.396 9.65398 68.7227 9.65398 69.18C9.65398 69.4787 9.76598 69.7167 9.98998 69.894C10.214 70.0713 10.5267 70.16 10.928 70.16ZM13 66.814C13 66.3007 12.8553 65.9087 12.566 65.638C12.286 65.3673 11.8753 65.232 11.334 65.232C10.8207 65.232 10.41 65.3487 10.102 65.582C9.79398 65.806 9.56065 66.072 9.40198 66.38C9.40198 66.38 9.35532 66.38 9.26198 66.38C9.17798 66.3707 9.07998 66.3473 8.96798 66.31C8.86532 66.2633 8.76732 66.1933 8.67398 66.1C8.58998 66.0067 8.54798 65.876 8.54798 65.708C8.54798 65.5493 8.60865 65.3767 8.72998 65.19C8.85132 64.994 9.03332 64.8167 9.27598 64.658C9.51865 64.4993 9.81732 64.3687 10.172 64.266C10.536 64.154 10.956 64.098 11.432 64.098C12.3933 64.098 13.1213 64.3313 13.616 64.798C14.12 65.2647 14.372 65.9273 14.372 66.786V70.916C14.372 70.9533 14.3207 70.986 14.218 71.014C14.1153 71.0513 13.9987 71.07 13.868 71.07C13.6253 71.07 13.4247 70.9953 13.266 70.846C13.1073 70.6873 13.0233 70.398 13.014 69.978C12.762 70.342 12.426 70.6313 12.006 70.846C11.586 71.0513 11.1147 71.154 10.592 71.154C9.86398 71.154 9.29932 70.9813 8.89798 70.636C8.49665 70.2813 8.29598 69.8147 8.29598 69.236C8.29598 68.452 8.66465 67.8827 9.40198 67.528C10.1487 67.1733 11.2873 66.982 12.818 66.954H13V66.814ZM21.1261 66.646C20.9488 66.2167 20.6874 65.876 20.3421 65.624C20.0061 65.372 19.5768 65.246 19.0541 65.246C18.4194 65.246 17.9108 65.4653 17.5281 65.904C17.1454 66.3333 16.9541 66.912 16.9541 67.64C16.9541 67.9853 17.0054 68.3073 17.1081 68.606C17.2108 68.8953 17.3508 69.1473 17.5281 69.362C17.7148 69.5767 17.9341 69.7447 18.1861 69.866C18.4474 69.978 18.7274 70.034 19.0261 70.034C19.3061 70.034 19.5721 69.9827 19.8241 69.88C20.0761 69.7773 20.3001 69.6373 20.4961 69.46C20.6921 69.2827 20.8461 69.0727 20.9581 68.83C21.0701 68.5873 21.1261 68.326 21.1261 68.046V66.646ZM21.1261 65.232C21.1541 64.812 21.2568 64.5367 21.4341 64.406C21.6114 64.266 21.7981 64.196 21.9941 64.196C22.1341 64.196 22.2508 64.2193 22.3441 64.266C22.4468 64.3033 22.4981 64.3313 22.4981 64.35V73.086C22.4981 73.338 22.4421 73.5107 22.3301 73.604C22.2181 73.6973 22.0688 73.744 21.8821 73.744H21.7281C21.5508 73.744 21.4014 73.6973 21.2801 73.604C21.1681 73.5107 21.1121 73.338 21.1121 73.086V69.908C20.8508 70.3093 20.5241 70.622 20.1321 70.846C19.7494 71.07 19.2921 71.182 18.7601 71.182C18.3121 71.182 17.8921 71.098 17.5001 70.93C17.1174 70.762 16.7861 70.524 16.5061 70.216C16.2261 69.8987 16.0068 69.5253 15.8481 69.096C15.6894 68.6573 15.6101 68.172 15.6101 67.64C15.6101 67.108 15.6894 66.6273 15.8481 66.198C16.0068 65.7593 16.2261 65.386 16.5061 65.078C16.7861 64.7607 17.1221 64.518 17.5141 64.35C17.9061 64.182 18.3354 64.098 18.8021 64.098C19.3621 64.098 19.8428 64.21 20.2441 64.434C20.6454 64.658 20.9394 64.924 21.1261 65.232ZM28.9796 69.992C28.7462 70.3373 28.4429 70.622 28.0696 70.846C27.7056 71.0607 27.2622 71.168 26.7396 71.168C26.2916 71.168 25.9042 71.098 25.5776 70.958C25.2602 70.8087 24.9942 70.608 24.7796 70.356C24.5649 70.104 24.4062 69.8007 24.3036 69.446C24.2009 69.0913 24.1496 68.704 24.1496 68.284V64.868C24.1496 64.616 24.2056 64.4433 24.3176 64.35C24.4296 64.2473 24.5742 64.196 24.7516 64.196H24.9056C25.0922 64.196 25.2416 64.2427 25.3536 64.336C25.4656 64.4293 25.5216 64.6067 25.5216 64.868V68.116C25.5216 68.704 25.6616 69.1613 25.9416 69.488C26.2216 69.8053 26.6182 69.964 27.1316 69.964C27.5516 69.964 27.9202 69.8567 28.2376 69.642C28.5549 69.418 28.8022 69.1287 28.9796 68.774V64.868C28.9796 64.616 29.0356 64.4433 29.1476 64.35C29.2596 64.2473 29.4042 64.196 29.5816 64.196H29.7356C29.9222 64.196 30.0716 64.2427 30.1836 64.336C30.2956 64.4293 30.3516 64.6067 30.3516 64.868V70.902C30.3516 70.9207 30.3002 70.9533 30.1976 71C30.1042 71.0373 29.9922 71.056 29.8616 71.056C29.7589 71.056 29.6562 71.0373 29.5536 71C29.4509 70.972 29.3576 70.9207 29.2736 70.846C29.1989 70.762 29.1336 70.6547 29.0776 70.524C29.0216 70.384 28.9889 70.2067 28.9796 69.992ZM36.9812 67.066C36.9439 66.478 36.7572 66.0113 36.4212 65.666C36.0852 65.3207 35.6372 65.148 35.0772 65.148C34.7972 65.148 34.5359 65.1947 34.2932 65.288C34.0599 65.3813 33.8499 65.5167 33.6632 65.694C33.4766 65.862 33.3226 66.0627 33.2012 66.296C33.0799 66.5293 32.9959 66.786 32.9492 67.066H36.9812ZM32.9492 68.004C32.9772 68.312 33.0519 68.5967 33.1732 68.858C33.2946 69.11 33.4532 69.3293 33.6492 69.516C33.8452 69.6933 34.0786 69.8333 34.3492 69.936C34.6199 70.0387 34.9139 70.09 35.2312 70.09C35.5299 70.09 35.7912 70.062 36.0152 70.006C36.2392 69.9407 36.4352 69.8567 36.6032 69.754C36.7712 69.6513 36.9159 69.5347 37.0372 69.404C37.1586 69.264 37.2612 69.1193 37.3452 68.97C37.3546 68.9607 37.3966 68.9653 37.4712 68.984C37.5459 69.0027 37.6252 69.0353 37.7092 69.082C37.8026 69.1287 37.8866 69.1987 37.9612 69.292C38.0359 69.3853 38.0732 69.5067 38.0732 69.656C38.0732 69.8053 38.0079 69.9687 37.8772 70.146C37.7559 70.3233 37.5692 70.4913 37.3172 70.65C37.0746 70.7993 36.7759 70.9253 36.4212 71.028C36.0666 71.1307 35.6606 71.182 35.2032 71.182C34.6712 71.182 34.1859 71.098 33.7472 70.93C33.3086 70.762 32.9352 70.524 32.6272 70.216C32.3192 69.908 32.0766 69.5393 31.8992 69.11C31.7312 68.6713 31.6472 68.1907 31.6472 67.668C31.6472 67.1547 31.7312 66.6833 31.8992 66.254C32.0766 65.8153 32.3192 65.4373 32.6272 65.12C32.9352 64.8027 33.2992 64.5553 33.7192 64.378C34.1392 64.1913 34.5966 64.098 35.0912 64.098C35.5766 64.098 36.0152 64.182 36.4072 64.35C36.8086 64.5087 37.1492 64.7373 37.4292 65.036C37.7186 65.3347 37.9379 65.694 38.0872 66.114C38.2459 66.5247 38.3252 66.982 38.3252 67.486V67.598C38.3252 67.7473 38.2926 67.8547 38.2272 67.92C38.1712 67.976 38.0639 68.004 37.9052 68.004H32.9492ZM39.6141 65.4C39.3994 65.4 39.2454 65.358 39.1521 65.274C39.0588 65.1807 39.0121 65.05 39.0121 64.882V64.784C39.0121 64.616 39.0588 64.49 39.1521 64.406C39.2454 64.3127 39.3994 64.266 39.6141 64.266H40.1041V63.23C40.1041 62.9873 40.1601 62.8193 40.2721 62.726C40.3841 62.6233 40.5334 62.572 40.7201 62.572H40.8601C41.0468 62.572 41.1914 62.6187 41.2941 62.712C41.4061 62.796 41.4621 62.9687 41.4621 63.23V64.266H42.9881C43.2028 64.266 43.3521 64.308 43.4361 64.392C43.5294 64.476 43.5761 64.602 43.5761 64.77V64.868C43.5761 65.0453 43.5294 65.1807 43.4361 65.274C43.3428 65.358 43.1888 65.4 42.9741 65.4H41.4481V68.802C41.4481 69.222 41.5134 69.5347 41.6441 69.74C41.7841 69.9453 42.0174 70.048 42.3441 70.048C42.5588 70.048 42.7454 70.006 42.9041 69.922C43.0628 69.8287 43.1934 69.712 43.2961 69.572C43.3054 69.5627 43.3288 69.5673 43.3661 69.586C43.4128 69.6047 43.4594 69.6373 43.5061 69.684C43.5528 69.7307 43.5948 69.796 43.6321 69.88C43.6694 69.9547 43.6881 70.048 43.6881 70.16C43.6881 70.4213 43.5528 70.6593 43.2821 70.874C43.0114 71.0793 42.6241 71.182 42.1201 71.182C41.4201 71.182 40.9068 70.9953 40.5801 70.622C40.2628 70.2393 40.1041 69.684 40.1041 68.956V65.4H39.6141ZM49.6277 67.066C49.5904 66.478 49.4037 66.0113 49.0677 65.666C48.7317 65.3207 48.2837 65.148 47.7237 65.148C47.4437 65.148 47.1824 65.1947 46.9397 65.288C46.7064 65.3813 46.4964 65.5167 46.3097 65.694C46.123 65.862 45.969 66.0627 45.8477 66.296C45.7264 66.5293 45.6424 66.786 45.5957 67.066H49.6277ZM45.5957 68.004C45.6237 68.312 45.6984 68.5967 45.8197 68.858C45.941 69.11 46.0997 69.3293 46.2957 69.516C46.4917 69.6933 46.725 69.8333 46.9957 69.936C47.2664 70.0387 47.5604 70.09 47.8777 70.09C48.1764 70.09 48.4377 70.062 48.6617 70.006C48.8857 69.9407 49.0817 69.8567 49.2497 69.754C49.4177 69.6513 49.5624 69.5347 49.6837 69.404C49.805 69.264 49.9077 69.1193 49.9917 68.97C50.001 68.9607 50.043 68.9653 50.1177 68.984C50.1924 69.0027 50.2717 69.0353 50.3557 69.082C50.449 69.1287 50.533 69.1987 50.6077 69.292C50.6824 69.3853 50.7197 69.5067 50.7197 69.656C50.7197 69.8053 50.6544 69.9687 50.5237 70.146C50.4024 70.3233 50.2157 70.4913 49.9637 70.65C49.721 70.7993 49.4224 70.9253 49.0677 71.028C48.713 71.1307 48.307 71.182 47.8497 71.182C47.3177 71.182 46.8324 71.098 46.3937 70.93C45.955 70.762 45.5817 70.524 45.2737 70.216C44.9657 69.908 44.723 69.5393 44.5457 69.11C44.3777 68.6713 44.2937 68.1907 44.2937 67.668C44.2937 67.1547 44.3777 66.6833 44.5457 66.254C44.723 65.8153 44.9657 65.4373 45.2737 65.12C45.5817 64.8027 45.9457 64.5553 46.3657 64.378C46.7857 64.1913 47.243 64.098 47.7377 64.098C48.223 64.098 48.6617 64.182 49.0537 64.35C49.455 64.5087 49.7957 64.7373 50.0757 65.036C50.365 65.3347 50.5844 65.694 50.7337 66.114C50.8924 66.5247 50.9717 66.982 50.9717 67.486V67.598C50.9717 67.7473 50.939 67.8547 50.8737 67.92C50.8177 67.976 50.7104 68.004 50.5517 68.004H45.5957ZM54.6123 71.168C54.1456 71.168 53.7349 71.1213 53.3803 71.028C53.0256 70.944 52.7269 70.832 52.4843 70.692C52.2509 70.552 52.0736 70.398 51.9523 70.23C51.8309 70.062 51.7703 69.8987 51.7703 69.74C51.7703 69.628 51.7936 69.5347 51.8403 69.46C51.8963 69.376 51.9569 69.306 52.0223 69.25C52.0876 69.194 52.1483 69.1567 52.2043 69.138C52.2696 69.11 52.3069 69.1007 52.3163 69.11C52.5403 69.3993 52.8389 69.642 53.2123 69.838C53.5949 70.0247 54.0523 70.118 54.5843 70.118C55.0603 70.118 55.4243 70.0387 55.6763 69.88C55.9376 69.712 56.0683 69.488 56.0683 69.208C56.0683 69.04 56.0263 68.9 55.9423 68.788C55.8676 68.676 55.7556 68.5873 55.6063 68.522C55.4663 68.4473 55.2889 68.382 55.0743 68.326C54.8596 68.27 54.6123 68.214 54.3323 68.158C54.0803 68.102 53.8143 68.0367 53.5343 67.962C53.2636 67.8873 53.0116 67.78 52.7783 67.64C52.5449 67.5 52.3489 67.318 52.1903 67.094C52.0409 66.8607 51.9663 66.5667 51.9663 66.212C51.9663 65.5773 52.2089 65.0687 52.6943 64.686C53.1796 64.294 53.8329 64.098 54.6543 64.098C55.0836 64.098 55.4569 64.14 55.7743 64.224C56.1009 64.308 56.3716 64.4153 56.5863 64.546C56.8103 64.6767 56.9736 64.8213 57.0763 64.98C57.1883 65.1387 57.2443 65.2973 57.2443 65.456C57.2443 65.568 57.2163 65.666 57.1603 65.75C57.1043 65.834 57.0389 65.904 56.9643 65.96C56.8989 66.016 56.8383 66.058 56.7823 66.086C56.7263 66.1047 56.6936 66.1093 56.6843 66.1C56.4696 65.82 56.1943 65.5913 55.8583 65.414C55.5223 65.2367 55.1396 65.148 54.7103 65.148C54.2343 65.148 53.8703 65.232 53.6183 65.4C53.3756 65.568 53.2542 65.792 53.2542 66.072C53.2542 66.2213 53.2916 66.3473 53.3663 66.45C53.4409 66.5527 53.5483 66.6413 53.6883 66.716C53.8283 66.7813 54.0009 66.842 54.2063 66.898C54.4209 66.954 54.6636 67.01 54.9343 67.066C55.1956 67.122 55.4709 67.192 55.7603 67.276C56.0496 67.3507 56.3156 67.458 56.5583 67.598C56.8103 67.738 57.0156 67.9247 57.1743 68.158C57.3329 68.3913 57.4123 68.69 57.4123 69.054C57.4123 69.698 57.1649 70.2113 56.6703 70.594C56.1756 70.9767 55.4896 71.168 54.6123 71.168Z" fill="#ED1C24"/>
<path d="M42.1032 35.422C41.2155 34.4068 40.1804 33.5307 39.0324 32.8229C36.359 31.1246 33.2543 30.2295 30.0871 30.2439C29.7815 30.2439 29.479 30.2517 29.1799 30.2674C29.212 29.5372 29.2647 28.8741 29.3403 28.2511C29.348 28.1594 29.3198 28.0683 29.2617 27.9969C29.2036 27.9255 29.12 27.8794 29.0287 27.8683C28.9373 27.8572 28.8452 27.8819 28.7716 27.9372C28.6981 27.9926 28.6489 28.0743 28.6343 28.1652C28.5534 28.8294 28.4979 29.5372 28.4652 30.3184C27.7936 30.3802 27.1264 30.4826 26.4673 30.625C26.7352 28.0331 27.4436 25.506 28.562 23.1526C28.6056 23.1555 28.6486 23.1578 28.6916 23.1578C29.1298 23.1571 29.5538 23.0027 29.89 22.7216C29.9476 22.8658 30.0229 23.0023 30.1141 23.128C29.5375 24.2285 29.1246 25.4072 28.8881 26.6269C28.8716 26.7183 28.8914 26.8126 28.9434 26.8896C28.9954 26.9665 29.0754 27.0202 29.1664 27.0389C29.2574 27.0577 29.3521 27.0402 29.4303 26.9901C29.5086 26.94 29.5641 26.8612 29.5851 26.7708C29.7983 25.6797 30.1594 24.6228 30.6585 23.6295C31.0711 23.8794 31.5644 23.96 32.0351 23.8542C32.5058 23.7484 32.9172 23.4645 33.1831 23.0621L33.4433 23.8644C33.5272 24.1254 33.6755 24.361 33.8745 24.5495C34.0736 24.7379 34.317 24.8731 34.5821 24.9425L35.9049 25.2915L36.2723 26.3713C36.3657 26.645 36.53 26.8892 36.7483 27.0789C36.9666 27.2687 37.2313 27.3972 37.5154 27.4516L38.5046 27.6396C38.6335 27.6647 38.7668 27.6553 38.8909 27.6123C39.0151 27.5693 39.1256 27.4942 39.2114 27.3947C39.2972 27.2952 39.3551 27.1748 39.3793 27.0457C39.4036 26.9166 39.3932 26.7834 39.3494 26.6596C38.8763 25.2056 38.0969 23.87 37.0637 22.7429C36.0306 21.6158 34.7676 20.7234 33.3602 20.126L33.7522 19.7506L34.7529 20.0537C35.0151 20.1336 35.2933 20.146 35.5616 20.0898C35.8298 20.0336 36.0796 19.9106 36.2877 19.7322L37.3291 18.845L38.4255 19.1591C38.7036 19.2385 38.9977 19.2428 39.2781 19.1718C39.5584 19.1007 39.8149 18.9567 40.0216 18.7545L40.7403 18.0495C40.8347 17.958 40.9031 17.8431 40.9386 17.7165C40.9742 17.5899 40.9756 17.4562 40.9428 17.3289C40.91 17.2016 40.844 17.0853 40.7517 16.9917C40.6594 16.8981 40.5439 16.8307 40.4171 16.7961C38.9083 16.3627 37.3256 16.2486 35.7702 16.4608C35.723 16.4663 35.6773 16.4812 35.6359 16.5046C35.5945 16.528 35.5582 16.5594 35.5292 16.5971C35.5001 16.6347 35.4789 16.6778 35.4668 16.7238C35.4547 16.7698 35.452 16.8178 35.4587 16.8648C35.4655 16.9119 35.4816 16.9572 35.5061 16.9979C35.5306 17.0387 35.5631 17.0741 35.6015 17.1021C35.6399 17.1301 35.6836 17.1501 35.7299 17.1609C35.7762 17.1718 35.8242 17.1732 35.8711 17.1652C37.3292 16.9669 38.8127 17.0746 40.2268 17.4816C40.2323 17.4836 40.2372 17.4869 40.2411 17.4912C40.245 17.4955 40.2478 17.5007 40.2492 17.5063C40.2507 17.512 40.2508 17.5179 40.2495 17.5235C40.2482 17.5292 40.2455 17.5345 40.2417 17.5389L39.523 18.2438C39.4062 18.3582 39.2613 18.4396 39.1028 18.4799C38.9444 18.5202 38.7782 18.5178 38.6209 18.4731L37.3406 18.1063C37.2842 18.0901 37.2247 18.0881 37.1674 18.1005C37.1101 18.1129 37.0568 18.1393 37.0122 18.1773L35.8258 19.1883C35.7081 19.2891 35.5668 19.3585 35.4152 19.3901C35.2635 19.4218 35.1063 19.4147 34.9581 19.3694L33.7597 19.0095C33.6993 18.9913 33.6352 18.9894 33.5739 19.0041C33.5125 19.0188 33.4562 19.0496 33.4107 19.0932L32.6948 19.7781C32.6705 19.8011 32.6448 19.8227 32.618 19.8428C32.1792 19.6904 31.7285 19.5744 31.2706 19.4961C31.2133 19.4571 31.121 19.3987 30.9995 19.3242C32.0395 18.4693 33.2412 17.833 34.5328 17.4535C34.5812 17.4438 34.6271 17.4241 34.6674 17.3957C34.7078 17.3673 34.7418 17.3308 34.7674 17.2885C34.7929 17.2463 34.8093 17.1992 34.8157 17.1502C34.822 17.1013 34.8181 17.0515 34.8041 17.0042C34.7902 16.9568 34.7666 16.9129 34.7348 16.8751C34.703 16.8374 34.6636 16.8067 34.6193 16.785C34.575 16.7632 34.5266 16.751 34.4773 16.7489C34.428 16.7469 34.3788 16.7552 34.3328 16.7732C33.4625 17.0291 32.6283 17.395 31.8506 17.8621C31.2676 16.5039 30.4085 15.2817 29.3279 14.2732C28.2474 13.2647 26.9689 12.4918 25.5738 12.0037C25.451 11.957 25.318 11.9436 25.1884 11.9649C25.0587 11.9862 24.937 12.0414 24.8356 12.1249C24.7342 12.2084 24.6566 12.3173 24.6108 12.4404C24.565 12.5635 24.5526 12.6966 24.5748 12.8261L24.7405 13.8193C24.7884 14.1048 24.911 14.3724 25.096 14.5951C25.2809 14.8178 25.5215 14.9875 25.7933 15.0871L26.8644 15.4791L27.1825 16.8093C27.2458 17.076 27.3754 17.3225 27.5592 17.5259C27.743 17.7292 27.9752 17.8829 28.2342 17.9727L29.2211 18.3166L29.259 18.5269C27.8249 18.0223 26.2997 17.8295 24.7852 17.9613C23.2707 18.0932 21.8017 18.5467 20.4764 19.2915C20.3602 19.3528 20.2623 19.4439 20.1926 19.5553C20.1229 19.6667 20.0839 19.7946 20.0796 19.9259C20.0753 20.0573 20.1058 20.1875 20.1681 20.3032C20.2303 20.419 20.3221 20.5162 20.434 20.585L21.2891 21.1169C21.5349 21.2694 21.8166 21.3541 22.1057 21.3625C22.3948 21.3708 22.681 21.3025 22.9351 21.1645L23.9369 20.6188L25.1462 21.2579C25.3883 21.3865 25.6589 21.452 25.933 21.4483C26.2071 21.4446 26.4758 21.3718 26.7143 21.2367L26.8289 21.1713C26.8054 21.5399 26.8915 21.9071 27.0766 22.2267C27.2616 22.5463 27.5372 22.8039 27.8686 22.9669C26.7036 25.4326 25.9836 28.0847 25.7417 30.801C24.4165 31.1519 23.1411 31.6694 21.9459 32.3409C21.8664 32.3885 21.8086 32.4652 21.7847 32.5547C21.7608 32.6443 21.7728 32.7396 21.8181 32.8204C21.8634 32.9012 21.9385 32.9612 22.0273 32.9876C22.1161 33.0139 22.2117 33.0046 22.2938 32.9616C23.4989 32.284 24.7891 31.7705 26.1303 31.4348C26.1529 31.4315 26.1752 31.4259 26.1968 31.4182C27.055 31.2081 27.9291 31.0695 28.8102 31.0038C28.8252 31.0037 28.8401 31.0025 28.8549 31.0004C29.2618 30.971 29.6728 30.9561 30.0877 30.9557C33.1097 30.9408 36.0728 31.791 38.6272 33.4058C39.4845 33.9483 40.2827 34.5792 41.0086 35.2879H19.1697C19.7588 34.7117 20.3968 34.1876 21.0765 33.7216C21.1468 33.6655 21.1933 33.5849 21.2066 33.496C21.2199 33.407 21.1991 33.3164 21.1483 33.2422C21.0974 33.168 21.0204 33.1158 20.9327 33.096C20.8449 33.0763 20.753 33.0905 20.6753 33.1359C19.7104 33.7784 18.8358 34.5473 18.075 35.422C18.0343 35.4747 18.009 35.5376 18.002 35.6038C17.995 35.67 18.0065 35.7368 18.0353 35.7968C18.0641 35.8568 18.109 35.9076 18.165 35.9435C18.221 35.9795 18.2859 35.9991 18.3524 36.0003H41.8258C41.8924 35.9991 41.9573 35.9795 42.0133 35.9435C42.0693 35.9076 42.1142 35.8568 42.143 35.7968C42.1717 35.7368 42.1833 35.67 42.1763 35.6038C42.1692 35.5376 42.144 35.4747 42.1032 35.422ZM31.3428 23.1509C31.1239 23.0957 30.9259 22.9775 30.7734 22.811C30.6208 22.6446 30.5204 22.4371 30.4844 22.2142C30.4485 21.9912 30.4786 21.7627 30.571 21.5567C30.6635 21.3507 30.8142 21.1763 31.0047 21.055L31.0712 21.4109C31.1305 21.7312 31.2845 22.0265 31.5132 22.2585C31.7419 22.4905 32.0349 22.6486 32.3544 22.7125L32.5303 22.748C32.3919 22.922 32.2064 23.0525 31.9958 23.124C31.7852 23.1954 31.5586 23.2047 31.3428 23.1509ZM34.0824 21.2733C35.0263 21.8028 35.8757 22.4853 36.5961 23.293C37.5201 24.3456 38.2275 25.57 38.6777 26.8963C38.68 26.902 38.6806 26.9084 38.6793 26.9145C38.6781 26.9206 38.6751 26.9262 38.6708 26.9307C38.667 26.9358 38.6617 26.9397 38.6557 26.9418C38.6497 26.944 38.6432 26.9443 38.637 26.9427L37.6478 26.7547C37.4872 26.724 37.3376 26.6514 37.2142 26.5442C37.0908 26.437 36.9979 26.299 36.9451 26.1443L36.5164 24.8835C36.4975 24.8279 36.4652 24.778 36.4223 24.738C36.3794 24.698 36.3272 24.6692 36.2706 24.6542L34.7638 24.2565C34.614 24.2172 34.4764 24.1408 34.3639 24.0343C34.2514 23.9279 34.1676 23.7947 34.1202 23.6472L33.7339 22.4546C33.7145 22.3946 33.6795 22.3408 33.6325 22.2988C33.5854 22.2568 33.5281 22.2281 33.4663 22.2156L33.1384 22.1491L32.4988 22.0155C32.3177 21.9799 32.1515 21.8907 32.0217 21.7595C31.892 21.6283 31.8046 21.4611 31.771 21.2797L31.5818 20.2847C32.4569 20.4974 33.2984 20.8301 34.0824 21.2733ZM29.8848 17.9871C29.8737 17.925 29.8463 17.8669 29.8055 17.8189C29.7646 17.7708 29.7117 17.7345 29.6521 17.7137L28.4686 17.3005C28.3223 17.2497 28.1911 17.1629 28.0872 17.048C27.9833 16.933 27.9101 16.7938 27.8743 16.6431L27.5127 15.1272C27.499 15.0702 27.4714 15.0174 27.4324 14.9736C27.3934 14.9298 27.3442 14.8963 27.2891 14.8761L26.0386 14.4176C25.8851 14.3613 25.7493 14.2653 25.6449 14.1395C25.5406 14.0137 25.4713 13.8625 25.4442 13.7012L25.2775 12.7092C25.276 12.7029 25.2764 12.6964 25.2787 12.6904C25.2809 12.6843 25.2849 12.6791 25.2901 12.6754C25.2946 12.6711 25.3003 12.6683 25.3064 12.6673C25.3125 12.6663 25.3188 12.6671 25.3245 12.6696C26.6484 13.1312 27.8601 13.8668 28.8803 14.8285C29.9006 15.7902 30.7065 16.9563 31.2454 18.2507C30.926 18.4716 30.6199 18.711 30.3284 18.9677C30.2379 18.9241 30.1423 18.8798 30.0418 18.8347L29.8848 17.9871ZM26.3664 20.6171C26.2316 20.6935 26.0798 20.7346 25.9249 20.7367C25.77 20.7388 25.6171 20.7018 25.4804 20.6292L24.1049 19.9007C24.0531 19.8732 23.9953 19.8588 23.9366 19.8588C23.878 19.8588 23.8202 19.8732 23.7684 19.9007L22.5947 20.5392C22.4513 20.6167 22.29 20.655 22.1271 20.6503C21.9642 20.6455 21.8054 20.5979 21.6668 20.5122L20.8071 19.981C20.8018 19.9777 20.7973 19.9732 20.7943 19.9678C20.7912 19.9624 20.7896 19.9562 20.7896 19.95C20.7896 19.9438 20.7912 19.9377 20.7943 19.9322C20.7973 19.9268 20.8018 19.9223 20.8071 19.9191C22.9834 18.6951 25.5385 18.3286 27.9712 18.8914C28.8578 19.0969 29.7116 19.4248 30.5078 19.8658L29.8481 20.3581L29.6985 20.4698C29.5513 20.5803 29.3743 20.6441 29.1904 20.653C29.0065 20.6619 28.8242 20.6154 28.6669 20.5197L27.8198 20.0073C27.7659 19.9746 27.7043 19.9569 27.6412 19.9558C27.5782 19.9548 27.516 19.9706 27.4611 20.0016L26.3664 20.6171ZM27.5751 21.008C27.5979 20.9191 27.6312 20.8333 27.6743 20.7524L28.2955 21.1284C28.5274 21.2694 28.7908 21.3503 29.0619 21.3636C29.3329 21.3769 29.603 21.3223 29.8476 21.2046C29.8617 21.3861 29.8327 21.5684 29.7628 21.7365C29.693 21.9047 29.5843 22.0539 29.4457 22.172C29.3071 22.2901 29.1426 22.3736 28.9655 22.4159C28.7883 22.4581 28.6038 22.4578 28.4268 22.415H28.4199H28.413C28.1158 22.34 27.8606 22.15 27.7034 21.8867C27.5463 21.6235 27.5001 21.3087 27.5751 21.0114V21.008Z" fill="#ED1C24"/>
<defs>
<linearGradient id="paint0_linear_1602_2074" x1="30" y1="0" x2="30" y2="50" gradientUnits="userSpaceOnUse">
<stop stop-color="#E91D27"/>
<stop offset="1" stop-color="#3E484A"/>
</linearGradient>
</defs>
</svg>
