<svg width="50" height="50" viewBox="0 0 50 50" fill="none" xmlns="http://www.w3.org/2000/svg">
<path d="M7 0.75H49.25V43C49.25 46.4518 46.4518 49.25 43 49.25H0.75V7C0.75 3.54822 3.54822 0.75 7 0.75Z" fill="white" stroke="url(#paint0_linear_403_403)" stroke-width="1.5"/>
<path d="M37.1032 35.4217C36.2155 34.4065 35.1804 33.5304 34.0324 32.8226C31.359 31.1243 28.2543 30.2292 25.0871 30.2436C24.7815 30.2436 24.479 30.2514 24.1799 30.2671C24.212 29.5369 24.2647 28.8738 24.3403 28.2508C24.348 28.1591 24.3198 28.068 24.2617 27.9966C24.2036 27.9252 24.12 27.8791 24.0287 27.868C23.9373 27.8569 23.8452 27.8816 23.7716 27.9369C23.6981 27.9923 23.6489 28.074 23.6343 28.1649C23.5534 28.8291 23.4979 29.5369 23.4652 30.3181C22.7936 30.3799 22.1264 30.4823 21.4673 30.6247C21.7352 28.0328 22.4436 25.5057 23.562 23.1523C23.6056 23.1552 23.6486 23.1575 23.6916 23.1575C24.1298 23.1568 24.5538 23.0024 24.89 22.7213C24.9476 22.8655 25.0229 23.002 25.1141 23.1277C24.5375 24.2282 24.1246 25.4069 23.8881 26.6266C23.8716 26.718 23.8914 26.8123 23.9434 26.8893C23.9954 26.9662 24.0754 27.0198 24.1664 27.0386C24.2574 27.0574 24.3521 27.0399 24.4303 26.9898C24.5086 26.9397 24.5641 26.8609 24.5851 26.7704C24.7983 25.6794 25.1594 24.6225 25.6585 23.6292C26.0711 23.8791 26.5644 23.9597 27.0351 23.8539C27.5058 23.7481 27.9172 23.4642 28.1831 23.0618L28.4433 23.8641C28.5272 24.1251 28.6755 24.3607 28.8745 24.5492C29.0736 24.7376 29.317 24.8728 29.5821 24.9422L30.9049 25.2912L31.2723 26.371C31.3657 26.6447 31.53 26.8889 31.7483 27.0786C31.9666 27.2684 32.2313 27.3969 32.5154 27.4513L33.5046 27.6393C33.6335 27.6644 33.7668 27.655 33.8909 27.612C34.0151 27.569 34.1256 27.4939 34.2114 27.3944C34.2972 27.2949 34.3551 27.1745 34.3793 27.0454C34.4036 26.9163 34.3932 26.7831 34.3494 26.6593C33.8763 25.2053 33.0969 23.8697 32.0637 22.7426C31.0305 21.6155 29.7676 20.7231 28.3602 20.1257L28.7522 19.7503L29.7529 20.0534C30.0151 20.1333 30.2933 20.1457 30.5616 20.0895C30.8298 20.0333 31.0796 19.9103 31.2877 19.7319L32.3291 18.8447L33.4255 19.1588C33.7036 19.2382 33.9977 19.2425 34.2781 19.1715C34.5584 19.1004 34.8149 18.9564 35.0216 18.7542L35.7403 18.0492C35.8347 17.9577 35.9031 17.8428 35.9386 17.7162C35.9742 17.5896 35.9756 17.4559 35.9428 17.3286C35.91 17.2013 35.844 17.085 35.7517 16.9914C35.6594 16.8978 35.5439 16.8303 35.4171 16.7958C33.9083 16.3624 32.3256 16.2482 30.7702 16.4605C30.723 16.466 30.6773 16.4809 30.6359 16.5043C30.5945 16.5277 30.5582 16.5591 30.5292 16.5968C30.5001 16.6344 30.4789 16.6775 30.4668 16.7235C30.4547 16.7695 30.452 16.8175 30.4587 16.8645C30.4655 16.9116 30.4816 16.9569 30.5061 16.9976C30.5306 17.0384 30.5631 17.0738 30.6015 17.1018C30.6399 17.1298 30.6836 17.1498 30.7299 17.1606C30.7762 17.1715 30.8242 17.1729 30.8711 17.1649C32.3292 16.9666 33.8127 17.0743 35.2268 17.4813C35.2323 17.4833 35.2372 17.4866 35.2411 17.4909C35.245 17.4952 35.2478 17.5004 35.2492 17.506C35.2507 17.5117 35.2508 17.5176 35.2495 17.5232C35.2482 17.5289 35.2455 17.5342 35.2417 17.5386L34.523 18.2435C34.4062 18.3579 34.2613 18.4393 34.1028 18.4796C33.9444 18.5199 33.7782 18.5175 33.6209 18.4728L32.3406 18.106C32.2842 18.0898 32.2247 18.0878 32.1674 18.1002C32.1101 18.1126 32.0568 18.139 32.0122 18.177L30.8258 19.188C30.7081 19.2888 30.5668 19.3582 30.4152 19.3898C30.2635 19.4215 30.1063 19.4144 29.9581 19.3691L28.7597 19.0092C28.6993 18.991 28.6352 18.9891 28.5739 19.0038C28.5125 19.0185 28.4562 19.0493 28.4107 19.0929L27.6948 19.7778C27.6705 19.8008 27.6448 19.8224 27.618 19.8425C27.1792 19.6901 26.7285 19.5741 26.2706 19.4958C26.2133 19.4568 26.121 19.3984 25.9995 19.3239C27.0395 18.469 28.2412 17.8327 29.5328 17.4532C29.5812 17.4434 29.6271 17.4238 29.6674 17.3954C29.7078 17.367 29.7419 17.3305 29.7674 17.2882C29.7929 17.246 29.8093 17.1989 29.8157 17.1499C29.822 17.1009 29.8181 17.0512 29.8041 17.0039C29.7902 16.9565 29.7666 16.9126 29.7348 16.8748C29.703 16.8371 29.6636 16.8064 29.6193 16.7847C29.575 16.7629 29.5266 16.7507 29.4773 16.7486C29.428 16.7466 29.3788 16.7549 29.3328 16.7729C28.4625 17.0288 27.6283 17.3947 26.8506 17.8618C26.2676 16.5036 25.4085 15.2814 24.3279 14.2729C23.2474 13.2643 21.9689 12.4915 20.5738 12.0033C20.451 11.9567 20.318 11.9433 20.1884 11.9646C20.0587 11.9859 19.937 12.0411 19.8356 12.1246C19.7342 12.2081 19.6566 12.317 19.6108 12.4401C19.565 12.5632 19.5526 12.6963 19.5748 12.8258L19.7405 13.819C19.7884 14.1045 19.911 14.3721 20.096 14.5948C20.2809 14.8175 20.5215 14.9872 20.7933 15.0868L21.8644 15.4788L22.1825 16.809C22.2458 17.0757 22.3754 17.3222 22.5592 17.5256C22.743 17.7289 22.9752 17.8826 23.2342 17.9724L24.2211 18.3163L24.259 18.5266C22.8249 18.022 21.2997 17.8292 19.7852 17.961C18.2707 18.0929 16.8017 18.5463 15.4764 19.2912C15.3602 19.3525 15.2623 19.4436 15.1926 19.555C15.1229 19.6664 15.0839 19.7943 15.0796 19.9256C15.0753 20.057 15.1058 20.1871 15.1681 20.3029C15.2303 20.4187 15.3221 20.5159 15.434 20.5847L16.2891 21.1166C16.5349 21.2691 16.8166 21.3538 17.1057 21.3622C17.3948 21.3705 17.681 21.3022 17.9351 21.1642L18.9369 20.6185L20.1462 21.2576C20.3883 21.3862 20.6589 21.4517 20.933 21.448C21.2071 21.4443 21.4758 21.3715 21.7143 21.2364L21.8289 21.171C21.8054 21.5396 21.8915 21.9068 22.0766 22.2264C22.2616 22.546 22.5372 22.8036 22.8686 22.9666C21.7036 25.4323 20.9836 28.0844 20.7417 30.8006C19.4165 31.1516 18.1411 31.6691 16.9459 32.3406C16.8664 32.3882 16.8086 32.4649 16.7847 32.5544C16.7608 32.6439 16.7728 32.7393 16.8181 32.8201C16.8634 32.9009 16.9385 32.9609 17.0273 32.9873C17.1161 33.0136 17.2117 33.0043 17.2938 32.9613C18.4989 32.2837 19.7891 31.7702 21.1303 31.4345C21.1529 31.4312 21.1752 31.4256 21.1968 31.4179C22.055 31.2078 22.9291 31.0692 23.8102 31.0035V31.0035C23.8252 31.0033 23.8401 31.0022 23.8549 31.0001C24.2618 30.9707 24.6728 30.9558 25.0877 30.9554C28.1097 30.9405 31.0728 31.7907 33.6272 33.4055C34.4845 33.948 35.2827 34.5789 36.0086 35.2876H14.1697C14.7588 34.7114 15.3968 34.1873 16.0765 33.7213C16.1468 33.6652 16.1933 33.5846 16.2066 33.4957C16.2199 33.4067 16.1991 33.3161 16.1483 33.2419C16.0974 33.1677 16.0204 33.1154 15.9327 33.0957C15.8449 33.076 15.753 33.0902 15.6753 33.1356C14.7104 33.7781 13.8358 34.547 13.075 35.4217C13.0343 35.4744 13.009 35.5373 13.002 35.6035C12.995 35.6696 13.0065 35.7365 13.0353 35.7965C13.0641 35.8565 13.109 35.9073 13.165 35.9432C13.221 35.9792 13.2859 35.9988 13.3524 36H36.8258C36.8924 35.9988 36.9573 35.9792 37.0133 35.9432C37.0693 35.9073 37.1142 35.8565 37.143 35.7965C37.1717 35.7365 37.1833 35.6696 37.1763 35.6035C37.1692 35.5373 37.144 35.4744 37.1032 35.4217V35.4217ZM26.3428 23.1506C26.1239 23.0954 25.9259 22.9772 25.7734 22.8107C25.6208 22.6443 25.5204 22.4368 25.4844 22.2139C25.4485 21.9909 25.4786 21.7624 25.571 21.5564C25.6635 21.3504 25.8142 21.176 26.0047 21.0547L26.0712 21.4106C26.1305 21.7309 26.2845 22.0262 26.5132 22.2582C26.7419 22.4902 27.0349 22.6483 27.3544 22.7122L27.5303 22.7477C27.3919 22.9217 27.2064 23.0522 26.9958 23.1236C26.7852 23.1951 26.5586 23.2044 26.3428 23.1506V23.1506ZM29.0824 21.273C30.0263 21.8025 30.8757 22.485 31.5961 23.2927C32.5201 24.3453 33.2275 25.5697 33.6777 26.896C33.68 26.9017 33.6806 26.9081 33.6793 26.9142C33.6781 26.9203 33.6752 26.9259 33.6708 26.9303C33.667 26.9355 33.6617 26.9394 33.6557 26.9415C33.6497 26.9437 33.6432 26.944 33.637 26.9424L32.6478 26.7544C32.4872 26.7237 32.3376 26.6511 32.2142 26.5439C32.0908 26.4367 31.998 26.2987 31.9451 26.144L31.5164 24.8831C31.4975 24.8276 31.4652 24.7777 31.4223 24.7377C31.3794 24.6977 31.3272 24.6689 31.2706 24.6539L29.7638 24.2562C29.614 24.2169 29.4764 24.1405 29.3639 24.034C29.2514 23.9275 29.1676 23.7944 29.1202 23.6469L28.7339 22.4543C28.7145 22.3943 28.6795 22.3405 28.6325 22.2985C28.5854 22.2565 28.5281 22.2278 28.4663 22.2153L28.1384 22.1488L27.4988 22.0152C27.3177 21.9796 27.1515 21.8904 27.0217 21.7592C26.892 21.628 26.8046 21.4608 26.771 21.2793L26.5818 20.2844C27.4569 20.4971 28.2984 20.8298 29.0824 21.273V21.273ZM24.8848 17.9868C24.8737 17.9247 24.8463 17.8666 24.8055 17.8186C24.7646 17.7705 24.7117 17.7342 24.6521 17.7134L23.4686 17.3002C23.3223 17.2494 23.1911 17.1626 23.0872 17.0476C22.9833 16.9327 22.9101 16.7935 22.8743 16.6428L22.5127 15.1269C22.499 15.0699 22.4714 15.0171 22.4324 14.9733C22.3934 14.9295 22.3442 14.896 22.2891 14.8758L21.0386 14.4173C20.8851 14.361 20.7493 14.265 20.6449 14.1392C20.5406 14.0134 20.4713 13.8622 20.4442 13.7009L20.2775 12.7089C20.276 12.7026 20.2764 12.6961 20.2787 12.6901C20.2809 12.684 20.2849 12.6788 20.2901 12.675C20.2946 12.6708 20.3003 12.668 20.3064 12.667C20.3125 12.666 20.3188 12.6668 20.3245 12.6693C21.6484 13.1308 22.8601 13.8665 23.8803 14.8282C24.9006 15.7899 25.7065 16.956 26.2454 18.2504C25.926 18.4713 25.6199 18.7107 25.3284 18.9674C25.2379 18.9238 25.1423 18.8795 25.0418 18.8344L24.8848 17.9868ZM21.3664 20.6168C21.2316 20.6932 21.0798 20.7343 20.9249 20.7364C20.77 20.7385 20.6171 20.7015 20.4804 20.6289L19.1049 19.9004C19.0531 19.8729 18.9953 19.8585 18.9366 19.8585C18.878 19.8585 18.8202 19.8729 18.7684 19.9004L17.5947 20.5389C17.4513 20.6164 17.29 20.6547 17.1271 20.65C16.9642 20.6452 16.8054 20.5976 16.6668 20.5119L15.8071 19.9807C15.8018 19.9774 15.7973 19.9729 15.7943 19.9675C15.7912 19.9621 15.7896 19.9559 15.7896 19.9497C15.7896 19.9435 15.7912 19.9373 15.7943 19.9319C15.7973 19.9265 15.8018 19.922 15.8071 19.9188C17.9834 18.6948 20.5385 18.3283 22.9712 18.8911C23.8578 19.0966 24.7116 19.4245 25.5078 19.8655L24.8481 20.3578L24.6985 20.4695C24.5513 20.58 24.3743 20.6438 24.1904 20.6527C24.0065 20.6616 23.8242 20.6151 23.6669 20.5194L22.8198 20.007C22.7659 19.9743 22.7043 19.9565 22.6412 19.9555C22.5782 19.9545 22.516 19.9703 22.4611 20.0013L21.3664 20.6168ZM22.5751 21.0077C22.5979 20.9188 22.6312 20.833 22.6743 20.7521L23.2955 21.128C23.5274 21.2691 23.7908 21.35 24.0619 21.3633C24.3329 21.3766 24.603 21.322 24.8476 21.2043C24.8617 21.3858 24.8327 21.5681 24.7628 21.7362C24.693 21.9044 24.5843 22.0536 24.4457 22.1717C24.3071 22.2898 24.1426 22.3733 23.9655 22.4156C23.7883 22.4578 23.6038 22.4575 23.4268 22.4147H23.4199H23.413C23.1158 22.3397 22.8606 22.1496 22.7034 21.8864C22.5463 21.6232 22.5001 21.3084 22.5751 21.0111V21.0077Z" fill="#ED1C24"/>
<defs>
<linearGradient id="paint0_linear_403_403" x1="25" y1="0" x2="25" y2="50" gradientUnits="userSpaceOnUse">
<stop stop-color="#E91D27"/>
<stop offset="1" stop-color="#3E484A"/>
</linearGradient>
</defs>
</svg>
