<svg width="50" height="50" viewBox="0 0 50 50" fill="none" xmlns="http://www.w3.org/2000/svg">
<g opacity="0.59">
<path d="M7 0.5H49.5V43C49.5 46.5899 46.5899 49.5 43 49.5H0.5V7C0.5 3.41015 3.41015 0.5 7 0.5Z" fill="white" stroke="#828282"/>
<path d="M22.3203 23.4093C23.4187 23.4093 24.3091 22.5189 24.3091 21.4205C24.3091 20.3222 23.4187 19.4318 22.3203 19.4318C21.2219 19.4318 20.3315 20.3222 20.3315 21.4205C20.3315 22.5189 21.2219 23.4093 22.3203 23.4093Z" fill="white"/>
<path d="M22.3203 23.4093C23.4187 23.4093 24.3091 22.5189 24.3091 21.4205C24.3091 20.3222 23.4187 19.4318 22.3203 19.4318C21.2219 19.4318 20.3315 20.3222 20.3315 21.4205C20.3315 22.5189 21.2219 23.4093 22.3203 23.4093Z" fill="white"/>
</g>
<g opacity="0.59">
<path d="M21.4552 20.2947L21.2334 20.9774V21.68L21.4552 22.2479L22.1762 22.6612L23.0823 22.8537L23.93 22.2479L24.2634 22.8537L24.6607 23.2796L25.4883 23.5575H26.2092L26.9543 22.9959L27.1744 22.5374L26.0459 22.2508L25.4883 21.6828L25.3393 20.7802L24.9719 20.2976L24.2629 20.7802L23.5179 20.9802H22.7075L21.4552 20.2947Z" fill="#6B253C"/>
<path d="M36.1032 35.4217C35.2155 34.4065 34.1804 33.5304 33.0324 32.8226C30.359 31.1243 27.2543 30.2292 24.0871 30.2436C23.7815 30.2436 23.479 30.2514 23.1799 30.2671C23.212 29.5369 23.2647 28.8738 23.3403 28.2508C23.348 28.1591 23.3198 28.068 23.2617 27.9966C23.2036 27.9252 23.12 27.8791 23.0287 27.868C22.9373 27.8569 22.8452 27.8816 22.7716 27.9369C22.6981 27.9923 22.6489 28.074 22.6343 28.1649C22.5534 28.8291 22.4979 29.5369 22.4652 30.3181C21.7936 30.3799 21.1264 30.4823 20.4673 30.6247C20.7352 28.0328 21.4436 25.5057 22.562 23.1523C22.6056 23.1552 22.6486 23.1575 22.6916 23.1575C23.1298 23.1568 23.5538 23.0024 23.89 22.7213C23.9476 22.8655 24.0229 23.002 24.1141 23.1277C23.5375 24.2282 23.1246 25.4069 22.8881 26.6266C22.8716 26.718 22.8914 26.8123 22.9434 26.8893C22.9954 26.9662 23.0754 27.0198 23.1664 27.0386C23.2574 27.0574 23.3521 27.0399 23.4303 26.9898C23.5086 26.9397 23.5641 26.8609 23.5851 26.7704C23.7983 25.6794 24.1594 24.6225 24.6585 23.6292C25.0711 23.8791 25.5644 23.9597 26.0351 23.8539C26.5058 23.7481 26.9172 23.4642 27.1831 23.0618L27.4433 23.8641C27.5272 24.1251 27.6755 24.3607 27.8745 24.5492C28.0736 24.7376 28.317 24.8728 28.5821 24.9422L29.9049 25.2912L30.2723 26.371C30.3657 26.6447 30.53 26.8889 30.7483 27.0786C30.9666 27.2684 31.2313 27.3969 31.5154 27.4513L32.5046 27.6393C32.6335 27.6644 32.7668 27.655 32.8909 27.612C33.0151 27.569 33.1256 27.4939 33.2114 27.3944C33.2972 27.2949 33.3551 27.1745 33.3793 27.0454C33.4036 26.9163 33.3932 26.7831 33.3494 26.6593C32.8763 25.2053 32.0969 23.8697 31.0637 22.7426C30.0305 21.6155 28.7676 20.7231 27.3602 20.1257L27.7522 19.7503L28.7529 20.0534C29.0151 20.1333 29.2933 20.1457 29.5616 20.0895C29.8298 20.0333 30.0796 19.9103 30.2877 19.7319L31.3291 18.8447L32.4255 19.1588C32.7036 19.2382 32.9977 19.2425 33.2781 19.1715C33.5584 19.1004 33.8149 18.9564 34.0216 18.7542L34.7403 18.0492C34.8347 17.9577 34.9031 17.8428 34.9386 17.7162C34.9742 17.5896 34.9756 17.4559 34.9428 17.3286C34.91 17.2013 34.844 17.085 34.7517 16.9914C34.6594 16.8978 34.5439 16.8303 34.4171 16.7958C32.9083 16.3624 31.3256 16.2482 29.7702 16.4605C29.723 16.466 29.6773 16.4809 29.6359 16.5043C29.5945 16.5277 29.5582 16.5591 29.5292 16.5968C29.5001 16.6344 29.4789 16.6775 29.4668 16.7235C29.4547 16.7695 29.452 16.8175 29.4587 16.8645C29.4655 16.9116 29.4816 16.9569 29.5061 16.9976C29.5306 17.0384 29.5631 17.0738 29.6015 17.1018C29.6399 17.1298 29.6836 17.1498 29.7299 17.1606C29.7762 17.1715 29.8242 17.1729 29.8711 17.1649C31.3292 16.9666 32.8127 17.0743 34.2268 17.4813C34.2323 17.4833 34.2372 17.4866 34.2411 17.4909C34.245 17.4952 34.2478 17.5004 34.2492 17.506C34.2507 17.5117 34.2508 17.5176 34.2495 17.5232C34.2482 17.5289 34.2455 17.5342 34.2417 17.5386L33.523 18.2435C33.4062 18.3579 33.2613 18.4393 33.1028 18.4796C32.9444 18.5199 32.7782 18.5175 32.6209 18.4728L31.3406 18.106C31.2842 18.0898 31.2247 18.0878 31.1674 18.1002C31.1101 18.1126 31.0568 18.139 31.0122 18.177L29.8258 19.188C29.7081 19.2888 29.5668 19.3582 29.4152 19.3898C29.2635 19.4215 29.1063 19.4144 28.9581 19.3691L27.7597 19.0092C27.6993 18.991 27.6352 18.9891 27.5739 19.0038C27.5125 19.0185 27.4562 19.0493 27.4107 19.0929L26.6948 19.7778C26.6705 19.8008 26.6448 19.8224 26.618 19.8425C26.1792 19.6901 25.7285 19.5741 25.2706 19.4958C25.2133 19.4568 25.121 19.3984 24.9995 19.3239C26.0395 18.469 27.2412 17.8327 28.5328 17.4532C28.5812 17.4434 28.6271 17.4238 28.6674 17.3954C28.7078 17.367 28.7419 17.3305 28.7674 17.2882C28.7929 17.246 28.8093 17.1989 28.8157 17.1499C28.822 17.1009 28.8181 17.0512 28.8041 17.0039C28.7902 16.9565 28.7666 16.9126 28.7348 16.8748C28.703 16.8371 28.6636 16.8064 28.6193 16.7847C28.575 16.7629 28.5266 16.7507 28.4773 16.7486C28.428 16.7466 28.3788 16.7549 28.3328 16.7729C27.4625 17.0288 26.6283 17.3947 25.8506 17.8618C25.2676 16.5036 24.4085 15.2814 23.3279 14.2729C22.2474 13.2643 20.9689 12.4915 19.5738 12.0033C19.451 11.9567 19.318 11.9433 19.1884 11.9646C19.0587 11.9859 18.937 12.0411 18.8356 12.1246C18.7342 12.2081 18.6566 12.317 18.6108 12.4401C18.565 12.5632 18.5526 12.6963 18.5748 12.8258L18.7405 13.819C18.7884 14.1045 18.911 14.3721 19.096 14.5948C19.2809 14.8175 19.5215 14.9872 19.7933 15.0868L20.8644 15.4788L21.1825 16.809C21.2458 17.0757 21.3754 17.3222 21.5592 17.5256C21.743 17.7289 21.9752 17.8826 22.2342 17.9724L23.2211 18.3163L23.259 18.5266C21.8249 18.022 20.2997 17.8292 18.7852 17.961C17.2707 18.0929 15.8017 18.5463 14.4764 19.2912C14.3602 19.3525 14.2623 19.4436 14.1926 19.555C14.1229 19.6664 14.0839 19.7943 14.0796 19.9256C14.0753 20.057 14.1058 20.1871 14.1681 20.3029C14.2303 20.4187 14.3221 20.5159 14.434 20.5847L15.2891 21.1166C15.5349 21.2691 15.8166 21.3538 16.1057 21.3622C16.3948 21.3705 16.681 21.3022 16.9351 21.1642L17.9369 20.6185L19.1462 21.2576C19.3883 21.3862 19.6589 21.4517 19.933 21.448C20.2071 21.4443 20.4758 21.3715 20.7143 21.2364L20.8289 21.171C20.8054 21.5396 20.8915 21.9068 21.0766 22.2264C21.2616 22.546 21.5372 22.8036 21.8686 22.9666C20.7036 25.4323 19.9836 28.0844 19.7417 30.8006C18.4165 31.1516 17.1411 31.6691 15.9459 32.3406C15.8664 32.3882 15.8086 32.4649 15.7847 32.5544C15.7608 32.6439 15.7728 32.7393 15.8181 32.8201C15.8634 32.9009 15.9385 32.9609 16.0273 32.9873C16.1161 33.0136 16.2117 33.0043 16.2938 32.9613C17.4989 32.2837 18.7891 31.7702 20.1303 31.4345C20.1529 31.4312 20.1752 31.4256 20.1968 31.4179C21.055 31.2078 21.9291 31.0692 22.8102 31.0035V31.0035C22.8252 31.0033 22.8401 31.0022 22.8549 31.0001C23.2618 30.9707 23.6728 30.9558 24.0877 30.9554C27.1097 30.9405 30.0728 31.7907 32.6272 33.4055C33.4845 33.948 34.2827 34.5789 35.0086 35.2876H13.1697C13.7588 34.7114 14.3968 34.1873 15.0765 33.7213C15.1468 33.6652 15.1933 33.5846 15.2066 33.4957C15.2199 33.4067 15.1991 33.3161 15.1483 33.2419C15.0974 33.1677 15.0204 33.1154 14.9327 33.0957C14.8449 33.076 14.753 33.0902 14.6753 33.1356C13.7104 33.7781 12.8358 34.547 12.075 35.4217C12.0343 35.4744 12.009 35.5373 12.002 35.6035C11.995 35.6696 12.0065 35.7365 12.0353 35.7965C12.0641 35.8565 12.109 35.9073 12.165 35.9432C12.221 35.9792 12.2859 35.9988 12.3524 36H35.8258C35.8924 35.9988 35.9573 35.9792 36.0133 35.9432C36.0693 35.9073 36.1142 35.8565 36.143 35.7965C36.1717 35.7365 36.1833 35.6696 36.1763 35.6035C36.1692 35.5373 36.144 35.4744 36.1032 35.4217V35.4217ZM25.3428 23.1506C25.1239 23.0954 24.9259 22.9772 24.7734 22.8107C24.6208 22.6443 24.5204 22.4368 24.4844 22.2139C24.4485 21.9909 24.4786 21.7624 24.571 21.5564C24.6635 21.3504 24.8142 21.176 25.0047 21.0547L25.0712 21.4106C25.1305 21.7309 25.2845 22.0262 25.5132 22.2582C25.7419 22.4902 26.0349 22.6483 26.3544 22.7122L26.5303 22.7477C26.3919 22.9217 26.2064 23.0522 25.9958 23.1236C25.7852 23.1951 25.5586 23.2044 25.3428 23.1506V23.1506ZM28.0824 21.273C29.0263 21.8025 29.8757 22.485 30.5961 23.2927C31.5201 24.3453 32.2275 25.5697 32.6777 26.896C32.68 26.9017 32.6806 26.9081 32.6793 26.9142C32.6781 26.9203 32.6752 26.9259 32.6708 26.9303C32.667 26.9355 32.6617 26.9394 32.6557 26.9415C32.6497 26.9437 32.6432 26.944 32.637 26.9424L31.6478 26.7544C31.4872 26.7237 31.3376 26.6511 31.2142 26.5439C31.0908 26.4367 30.998 26.2987 30.9451 26.144L30.5164 24.8831C30.4975 24.8276 30.4652 24.7777 30.4223 24.7377C30.3794 24.6977 30.3272 24.6689 30.2706 24.6539L28.7638 24.2562C28.614 24.2169 28.4764 24.1405 28.3639 24.034C28.2514 23.9275 28.1676 23.7944 28.1202 23.6469L27.7339 22.4543C27.7145 22.3943 27.6795 22.3405 27.6325 22.2985C27.5854 22.2565 27.5281 22.2278 27.4663 22.2153L27.1384 22.1488L26.4988 22.0152C26.3177 21.9796 26.1515 21.8904 26.0217 21.7592C25.892 21.628 25.8046 21.4608 25.771 21.2793L25.5818 20.2844C26.4569 20.4971 27.2984 20.8298 28.0824 21.273V21.273ZM23.8848 17.9868C23.8737 17.9247 23.8463 17.8666 23.8055 17.8186C23.7646 17.7705 23.7117 17.7342 23.6521 17.7134L22.4686 17.3002C22.3223 17.2494 22.1911 17.1626 22.0872 17.0476C21.9833 16.9327 21.9101 16.7935 21.8743 16.6428L21.5127 15.1269C21.499 15.0699 21.4714 15.0171 21.4324 14.9733C21.3934 14.9295 21.3442 14.896 21.2891 14.8758L20.0386 14.4173C19.8851 14.361 19.7493 14.265 19.6449 14.1392C19.5406 14.0134 19.4713 13.8622 19.4442 13.7009L19.2775 12.7089C19.276 12.7026 19.2764 12.6961 19.2787 12.6901C19.2809 12.684 19.2849 12.6788 19.2901 12.675C19.2946 12.6708 19.3003 12.668 19.3064 12.667C19.3125 12.666 19.3188 12.6668 19.3245 12.6693C20.6484 13.1308 21.8601 13.8665 22.8803 14.8282C23.9006 15.7899 24.7065 16.956 25.2454 18.2504C24.926 18.4713 24.6199 18.7107 24.3284 18.9674C24.2379 18.9238 24.1423 18.8795 24.0418 18.8344L23.8848 17.9868ZM20.3664 20.6168C20.2316 20.6932 20.0798 20.7343 19.9249 20.7364C19.77 20.7385 19.6171 20.7015 19.4804 20.6289L18.1049 19.9004C18.0531 19.8729 17.9953 19.8585 17.9366 19.8585C17.878 19.8585 17.8202 19.8729 17.7684 19.9004L16.5947 20.5389C16.4513 20.6164 16.29 20.6547 16.1271 20.65C15.9642 20.6452 15.8054 20.5976 15.6668 20.5119L14.8071 19.9807C14.8018 19.9774 14.7973 19.9729 14.7943 19.9675C14.7912 19.9621 14.7896 19.9559 14.7896 19.9497C14.7896 19.9435 14.7912 19.9373 14.7943 19.9319C14.7973 19.9265 14.8018 19.922 14.8071 19.9188C16.9834 18.6948 19.5385 18.3283 21.9712 18.8911C22.8578 19.0966 23.7116 19.4245 24.5078 19.8655L23.8481 20.3578L23.6985 20.4695C23.5513 20.58 23.3743 20.6438 23.1904 20.6527C23.0065 20.6616 22.8242 20.6151 22.6669 20.5194L21.8198 20.007C21.7659 19.9743 21.7043 19.9565 21.6412 19.9555C21.5782 19.9545 21.516 19.9703 21.4611 20.0013L20.3664 20.6168ZM21.5751 21.0077C21.5979 20.9188 21.6312 20.833 21.6743 20.7521L22.2955 21.128C22.5274 21.2691 22.7908 21.35 23.0619 21.3633C23.3329 21.3766 23.603 21.322 23.8476 21.2043C23.8617 21.3858 23.8327 21.5681 23.7628 21.7362C23.693 21.9044 23.5843 22.0536 23.4457 22.1717C23.3071 22.2898 23.1426 22.3733 22.9655 22.4156C22.7883 22.4578 22.6038 22.4575 22.4268 22.4147H22.4199H22.413C22.1158 22.3397 21.8606 22.1496 21.7034 21.8864C21.5463 21.6232 21.5001 21.3084 21.5751 21.0111V21.0077Z" fill="#676767"/>
</g>
</svg>
