<svg width="50" height="74" viewBox="0 0 50 74" fill="none" xmlns="http://www.w3.org/2000/svg">
<path d="M0.75 7C0.75 3.54822 3.54822 0.75 7 0.75H49.25V43C49.25 46.4518 46.4518 49.25 43 49.25H0.75V7Z" fill="white" stroke="url(#paint0_linear_1602_2222)" stroke-width="1.5"/>
<path d="M22.3201 23.4093C23.4184 23.4093 24.3088 22.5189 24.3088 21.4205C24.3088 20.3222 23.4184 19.4318 22.3201 19.4318C21.2217 19.4318 20.3313 20.3222 20.3313 21.4205C20.3313 22.5189 21.2217 23.4093 22.3201 23.4093Z" fill="white"/>
<path d="M22.3201 23.4093C23.4184 23.4093 24.3088 22.5189 24.3088 21.4205C24.3088 20.3222 23.4184 19.4318 22.3201 19.4318C21.2217 19.4318 20.3313 20.3222 20.3313 21.4205C20.3313 22.5189 21.2217 23.4093 22.3201 23.4093Z" fill="white"/>
<path d="M38.4523 21.6683C38.4518 22.4189 38.3294 23.1644 38.0898 23.8757C36.9662 28.9593 27.2503 35.1117 26.8374 35.373C26.711 35.4524 26.5648 35.4947 26.4154 35.4952C26.2654 35.497 26.1181 35.4545 25.9921 35.373C24.029 34.1049 22.1504 32.7105 20.3682 31.1987C20.2147 31.0613 20.1209 30.8693 20.107 30.6638C20.0931 30.4582 20.1602 30.2554 20.2939 30.0986C20.4275 29.9418 20.6172 29.8435 20.8224 29.8247C21.0276 29.8059 21.2319 29.8681 21.3919 29.998C22.9944 31.3513 24.6739 32.6107 26.422 33.7699C29.3368 31.8676 35.7786 27.0257 36.5684 23.4563C36.7639 22.881 36.8649 22.2779 36.8675 21.6703C36.8673 20.6746 36.6 19.6972 36.0934 18.8401C35.5868 17.9829 34.8595 17.2773 33.9873 16.797C32.849 16.1946 31.5396 15.9974 30.2744 16.2377C29.0091 16.4779 27.8632 17.1414 27.0249 18.1192C26.9483 18.2045 26.8545 18.2727 26.7498 18.3194C26.6451 18.366 26.5317 18.3902 26.4171 18.3902C26.3024 18.3902 26.189 18.366 26.0843 18.3194C25.9796 18.2727 25.8858 18.2045 25.8092 18.1192C24.9702 17.1416 23.8239 16.478 22.5583 16.2373C21.2927 15.9966 19.9829 16.193 18.8435 16.7944C17.9703 17.2738 17.2419 17.9789 16.7343 18.836C16.2268 19.6932 15.9587 20.6709 15.9581 21.667C15.9598 22.2475 16.0535 22.8241 16.2357 23.3753C16.3723 23.9207 16.5828 24.4449 16.8615 24.9333H21.4637L23.044 21.3012C23.1081 21.1477 23.2194 21.0187 23.3617 20.9327C23.5041 20.8466 23.6701 20.8081 23.8358 20.8226C24.0015 20.8372 24.1582 20.9041 24.2834 21.0136C24.4086 21.1231 24.4957 21.2696 24.5321 21.4318L25.6955 26.3509L27.198 23.8829C27.2685 23.7669 27.3678 23.6712 27.4863 23.6051C27.6048 23.5391 27.7385 23.5049 27.8742 23.5059H30.7302C30.9393 23.5059 31.1399 23.589 31.2877 23.7369C31.4356 23.8847 31.5187 24.0853 31.5187 24.2944C31.5187 24.5035 31.4356 24.7041 31.2877 24.852C31.1399 24.9998 30.9393 25.0829 30.7302 25.0829H28.3171L26.0496 28.8065C25.98 28.9221 25.8817 29.0177 25.7643 29.0842C25.6469 29.1507 25.5143 29.1858 25.3794 29.186C25.338 29.1861 25.2968 29.183 25.2559 29.1769C25.1017 29.1524 24.9581 29.0827 24.8435 28.9766C24.7289 28.8706 24.6482 28.733 24.6118 28.5811L23.5483 24.1004L22.7082 26.034C22.6474 26.1754 22.5464 26.2958 22.4177 26.3801C22.2889 26.4644 22.1383 26.509 21.9844 26.5083H12.7885C12.5794 26.5083 12.3788 26.4252 12.2309 26.2774C12.0831 26.1295 12 25.9289 12 25.7198C12 25.5107 12.0831 25.3102 12.2309 25.1623C12.3788 25.0144 12.5794 24.9313 12.7885 24.9313H15.1004C14.941 24.5636 14.8142 24.1826 14.7215 23.7927C14.4933 23.106 14.3788 22.3867 14.3824 21.6631C14.3827 20.385 14.7262 19.1304 15.3769 18.0304C16.0276 16.9303 16.9618 16.0252 18.0818 15.4095C19.4103 14.7042 20.9243 14.4266 22.4165 14.6149C23.9088 14.8032 25.3064 15.448 26.418 16.4612C27.5287 15.4477 28.9257 14.8026 30.4174 14.6143C31.9092 14.426 33.4227 14.7037 34.7503 15.4095C35.8712 16.0258 36.8061 16.9317 37.4573 18.0326C38.1085 19.1336 38.4521 20.3892 38.4523 21.6683Z" fill="#ED1C24"/>
<path d="M25.4779 29C25.4377 29 25.3975 28.9972 25.3578 28.9913C25.2076 28.9676 25.068 28.9008 24.9564 28.7993C24.8448 28.6978 24.7662 28.5661 24.7306 28.4209L23.6953 24.136L22.8773 25.9852C22.8177 26.1201 22.7193 26.2349 22.5941 26.3155C22.4689 26.3961 22.3224 26.4389 22.1727 26.4387H13.22C13.0165 26.4382 12.8214 26.3585 12.6775 26.2171C12.5337 26.0757 12.4527 25.884 12.4524 25.684C12.4526 25.4841 12.5335 25.2924 12.6774 25.1511C12.8213 25.0097 13.0165 24.9302 13.22 24.9301H15.4714V24.9256H17.1853V24.9288H21.6672L23.2062 21.4554C23.2655 21.3219 23.3626 21.208 23.486 21.1273C23.6094 21.0465 23.7537 21.0024 23.902 21C23.9268 21 23.9516 21.0012 23.9763 21.0037C24.137 21.0173 24.2891 21.0806 24.4109 21.1844C24.5327 21.2882 24.618 21.4272 24.6544 21.5815L25.7871 26.2856L27.2497 23.9255C27.3182 23.8153 27.4143 23.7242 27.5289 23.661C27.6435 23.5977 27.7727 23.5645 27.9042 23.5644H30.6847C30.8883 23.5646 31.0835 23.6441 31.2274 23.7854C31.3713 23.9268 31.4522 24.1185 31.4524 24.3185C31.4522 24.5184 31.3713 24.7101 31.2274 24.8514C31.0835 24.9928 30.8883 25.0723 30.6847 25.0724H28.3354L26.1273 28.6333C26.0605 28.7444 25.9656 28.8365 25.8518 28.9008C25.738 28.9651 25.6092 28.9992 25.4779 29Z" fill="#ED1C24"/>
<path d="M3.85 71.182C3.30867 71.182 2.82333 71.1213 2.394 71C1.974 70.888 1.61933 70.7433 1.33 70.566C1.04067 70.3793 0.821333 70.1833 0.672 69.978C0.522667 69.7633 0.448 69.5627 0.448 69.376C0.448 69.2547 0.480667 69.1473 0.546 69.054C0.611333 68.9513 0.681333 68.8673 0.756 68.802C0.84 68.7273 0.914667 68.6713 0.98 68.634C1.05467 68.5967 1.09667 68.5873 1.106 68.606C1.36733 68.9887 1.73133 69.3153 2.198 69.586C2.66467 69.8567 3.21067 69.992 3.836 69.992C4.47067 69.992 4.956 69.8707 5.292 69.628C5.63733 69.376 5.81 69.026 5.81 68.578C5.81 68.326 5.74933 68.116 5.628 67.948C5.50667 67.78 5.33867 67.64 5.124 67.528C4.91867 67.416 4.676 67.3227 4.396 67.248C4.12533 67.1733 3.84067 67.1033 3.542 67.038C3.19667 66.954 2.85133 66.856 2.506 66.744C2.16067 66.632 1.85267 66.478 1.582 66.282C1.32067 66.086 1.106 65.8387 0.938 65.54C0.77 65.232 0.686 64.8493 0.686 64.392C0.686 64.0093 0.765333 63.6593 0.924 63.342C1.08267 63.0153 1.30667 62.7353 1.596 62.502C1.88533 62.2687 2.226 62.0867 2.618 61.956C3.01933 61.8253 3.46267 61.76 3.948 61.76C4.452 61.76 4.89533 61.816 5.278 61.928C5.67 62.0307 5.99667 62.1613 6.258 62.32C6.51933 62.4787 6.71533 62.6513 6.846 62.838C6.986 63.0247 7.056 63.202 7.056 63.37C7.056 63.5007 7.02333 63.6173 6.958 63.72C6.89267 63.8227 6.818 63.9113 6.734 63.986C6.65 64.0513 6.57067 64.1027 6.496 64.14C6.43067 64.168 6.39333 64.1773 6.384 64.168C6.14133 63.8227 5.81 63.5333 5.39 63.3C4.97 63.0667 4.494 62.95 3.962 62.95C3.39267 62.95 2.93533 63.076 2.59 63.328C2.254 63.58 2.086 63.916 2.086 64.336C2.086 64.588 2.13733 64.7933 2.24 64.952C2.352 65.1013 2.50133 65.2273 2.688 65.33C2.87467 65.4233 3.09867 65.5027 3.36 65.568C3.62133 65.6333 3.91067 65.7033 4.228 65.778C4.61067 65.862 4.984 65.9693 5.348 66.1C5.712 66.2307 6.034 66.3987 6.314 66.604C6.594 66.8093 6.818 67.066 6.986 67.374C7.16333 67.6727 7.252 68.0413 7.252 68.48C7.252 69.32 6.94867 69.9827 6.342 70.468C5.74467 70.944 4.914 71.182 3.85 71.182ZM13.534 67.066C13.4966 66.478 13.31 66.0113 12.974 65.666C12.638 65.3207 12.19 65.148 11.63 65.148C11.35 65.148 11.0886 65.1947 10.846 65.288C10.6126 65.3813 10.4026 65.5167 10.216 65.694C10.0293 65.862 9.87529 66.0627 9.75395 66.296C9.63262 66.5293 9.54862 66.786 9.50195 67.066H13.534ZM9.50195 68.004C9.52995 68.312 9.60462 68.5967 9.72595 68.858C9.84729 69.11 10.006 69.3293 10.202 69.516C10.398 69.6933 10.6313 69.8333 10.902 69.936C11.1726 70.0387 11.4666 70.09 11.784 70.09C12.0826 70.09 12.344 70.062 12.568 70.006C12.792 69.9407 12.988 69.8567 13.156 69.754C13.324 69.6513 13.4686 69.5347 13.59 69.404C13.7113 69.264 13.814 69.1193 13.898 68.97C13.9073 68.9607 13.9493 68.9653 14.024 68.984C14.0986 69.0027 14.178 69.0353 14.262 69.082C14.3553 69.1287 14.4393 69.1987 14.514 69.292C14.5886 69.3853 14.626 69.5067 14.626 69.656C14.626 69.8053 14.5606 69.9687 14.43 70.146C14.3086 70.3233 14.122 70.4913 13.87 70.65C13.6273 70.7993 13.3286 70.9253 12.974 71.028C12.6193 71.1307 12.2133 71.182 11.756 71.182C11.224 71.182 10.7386 71.098 10.3 70.93C9.86129 70.762 9.48795 70.524 9.17995 70.216C8.87195 69.908 8.62929 69.5393 8.45195 69.11C8.28395 68.6713 8.19995 68.1907 8.19995 67.668C8.19995 67.1547 8.28395 66.6833 8.45195 66.254C8.62929 65.8153 8.87195 65.4373 9.17995 65.12C9.48795 64.8027 9.85195 64.5553 10.272 64.378C10.692 64.1913 11.1493 64.098 11.644 64.098C12.1293 64.098 12.568 64.182 12.96 64.35C13.3613 64.5087 13.702 64.7373 13.982 65.036C14.2713 65.3347 14.4906 65.694 14.64 66.114C14.7986 66.5247 14.878 66.982 14.878 67.486V67.598C14.878 67.7473 14.8453 67.8547 14.78 67.92C14.724 67.976 14.6166 68.004 14.458 68.004H9.50195ZM18.7145 70.86C18.4345 70.8787 18.1638 70.9207 17.9025 70.986C17.6505 71.042 17.4265 71.1167 17.2305 71.21C17.0438 71.3127 16.8945 71.434 16.7825 71.574C16.6705 71.714 16.6145 71.8727 16.6145 72.05C16.6145 72.6753 17.2865 72.988 18.6305 72.988C19.3118 72.988 19.8392 72.8947 20.2125 72.708C20.5952 72.5307 20.7865 72.274 20.7865 71.938C20.7865 71.77 20.7258 71.63 20.6045 71.518C20.4832 71.406 20.3245 71.3127 20.1285 71.238C19.9325 71.1633 19.7085 71.098 19.4565 71.042C19.2138 70.986 18.9665 70.9253 18.7145 70.86ZM18.6725 68.144C19.1392 68.144 19.5172 68.004 19.8065 67.724C20.0958 67.444 20.2405 67.0753 20.2405 66.618C20.2405 66.17 20.0912 65.806 19.7925 65.526C19.5032 65.2367 19.1205 65.092 18.6445 65.092C18.1872 65.092 17.8138 65.232 17.5245 65.512C17.2352 65.792 17.0905 66.1607 17.0905 66.618C17.0905 67.0753 17.2352 67.444 17.5245 67.724C17.8232 68.004 18.2058 68.144 18.6725 68.144ZM20.6325 63.86C20.7445 63.6733 20.8612 63.538 20.9825 63.454C21.1038 63.37 21.2532 63.328 21.4305 63.328C21.5612 63.328 21.6732 63.3607 21.7665 63.426C21.8598 63.482 21.9345 63.5473 21.9905 63.622C22.0558 63.6873 22.0978 63.7527 22.1165 63.818C22.1445 63.874 22.1538 63.9067 22.1445 63.916L21.0105 65.092C21.1972 65.3067 21.3372 65.54 21.4305 65.792C21.5332 66.044 21.5845 66.3147 21.5845 66.604C21.5845 66.9587 21.5098 67.2853 21.3605 67.584C21.2205 67.8827 21.0198 68.144 20.7585 68.368C20.5065 68.5827 20.2032 68.7507 19.8485 68.872C19.4938 68.9933 19.1018 69.054 18.6725 69.054C18.6258 69.054 18.5838 69.054 18.5465 69.054C18.5092 69.054 18.4672 69.0493 18.4205 69.04C18.3738 69.1053 18.3505 69.1893 18.3505 69.292C18.3505 69.404 18.3878 69.4927 18.4625 69.558C18.5465 69.6233 18.6632 69.684 18.8125 69.74C18.9712 69.7867 19.1625 69.8333 19.3865 69.88C19.6198 69.9267 19.8812 69.9873 20.1705 70.062C20.4132 70.1273 20.6512 70.2067 20.8845 70.3C21.1178 70.3933 21.3232 70.5147 21.5005 70.664C21.6872 70.804 21.8365 70.972 21.9485 71.168C22.0698 71.3733 22.1305 71.616 22.1305 71.896C22.1305 72.54 21.8225 73.044 21.2065 73.408C20.5905 73.772 19.7225 73.954 18.6025 73.954C17.4638 73.954 16.6238 73.8 16.0825 73.492C15.5505 73.1933 15.2845 72.7267 15.2845 72.092C15.2845 71.8493 15.3358 71.6253 15.4385 71.42C15.5505 71.2147 15.7045 71.0373 15.9005 70.888C16.0965 70.7293 16.3252 70.5987 16.5865 70.496C16.8478 70.384 17.1325 70.3 17.4405 70.244C17.3565 70.1693 17.2865 70.0807 17.2305 69.978C17.1838 69.8753 17.1605 69.754 17.1605 69.614C17.1605 69.474 17.1932 69.3433 17.2585 69.222C17.3332 69.0913 17.4265 68.9793 17.5385 68.886C16.9972 68.7087 16.5678 68.424 16.2505 68.032C15.9332 67.64 15.7745 67.178 15.7745 66.646C15.7745 66.2913 15.8445 65.96 15.9845 65.652C16.1338 65.344 16.3345 65.0733 16.5865 64.84C16.8478 64.6067 17.1512 64.4247 17.4965 64.294C17.8512 64.1633 18.2385 64.098 18.6585 64.098C18.9572 64.098 19.2418 64.1353 19.5125 64.21C19.7832 64.2753 20.0352 64.3733 20.2685 64.504L20.6325 63.86ZM27.7901 69.992C27.5568 70.3373 27.2534 70.622 26.8801 70.846C26.5161 71.0607 26.0728 71.168 25.5501 71.168C25.1021 71.168 24.7148 71.098 24.3881 70.958C24.0708 70.8087 23.8048 70.608 23.5901 70.356C23.3754 70.104 23.2168 69.8007 23.1141 69.446C23.0114 69.0913 22.9601 68.704 22.9601 68.284V64.868C22.9601 64.616 23.0161 64.4433 23.1281 64.35C23.2401 64.2473 23.3848 64.196 23.5621 64.196H23.7161C23.9028 64.196 24.0521 64.2427 24.1641 64.336C24.2761 64.4293 24.3321 64.6067 24.3321 64.868V68.116C24.3321 68.704 24.4721 69.1613 24.7521 69.488C25.0321 69.8053 25.4288 69.964 25.9421 69.964C26.3621 69.964 26.7308 69.8567 27.0481 69.642C27.3654 69.418 27.6128 69.1287 27.7901 68.774V64.868C27.7901 64.616 27.8461 64.4433 27.9581 64.35C28.0701 64.2473 28.2148 64.196 28.3921 64.196H28.5461C28.7328 64.196 28.8821 64.2427 28.9941 64.336C29.1061 64.4293 29.1621 64.6067 29.1621 64.868V70.902C29.1621 70.9207 29.1108 70.9533 29.0081 71C28.9148 71.0373 28.8028 71.056 28.6721 71.056C28.5694 71.056 28.4668 71.0373 28.3641 71C28.2614 70.972 28.1681 70.9207 28.0841 70.846C28.0094 70.762 27.9441 70.6547 27.8881 70.524C27.8321 70.384 27.7994 70.2067 27.7901 69.992ZM32.2358 65.372C32.5344 64.5227 33.1038 64.098 33.9438 64.098C34.2984 64.098 34.5691 64.1773 34.7558 64.336C34.9518 64.4947 35.0498 64.714 35.0498 64.994C35.0498 65.1247 35.0264 65.2367 34.9798 65.33C34.9424 65.4233 34.8958 65.5027 34.8398 65.568C34.7931 65.624 34.7464 65.666 34.6998 65.694C34.6624 65.7127 34.6391 65.7173 34.6298 65.708C34.5271 65.624 34.4058 65.554 34.2658 65.498C34.1258 65.442 33.9624 65.414 33.7758 65.414C33.5051 65.414 33.2718 65.4793 33.0758 65.61C32.8798 65.7313 32.7211 65.9087 32.5998 66.142C32.4784 66.3753 32.3898 66.6507 32.3338 66.968C32.2778 67.2853 32.2498 67.64 32.2498 68.032V70.398C32.2498 70.65 32.1891 70.8227 32.0678 70.916C31.9558 71.0093 31.8111 71.056 31.6338 71.056H31.4798C31.2931 71.056 31.1438 71.0093 31.0318 70.916C30.9198 70.8227 30.8638 70.65 30.8638 70.398V64.35C30.8638 64.3313 30.9104 64.3033 31.0038 64.266C31.1064 64.2193 31.2278 64.196 31.3678 64.196C31.4704 64.196 31.5731 64.2147 31.6758 64.252C31.7784 64.28 31.8718 64.3407 31.9558 64.434C32.0398 64.518 32.1051 64.6347 32.1518 64.784C32.2078 64.9333 32.2358 65.1293 32.2358 65.372ZM39.1127 71.182C38.5901 71.182 38.1094 71.098 37.6707 70.93C37.2414 70.7527 36.8727 70.5053 36.5647 70.188C36.2567 69.8707 36.0141 69.4973 35.8367 69.068C35.6687 68.6293 35.5847 68.1487 35.5847 67.626C35.5847 67.1127 35.6687 66.6413 35.8367 66.212C36.0141 65.7733 36.2567 65.4 36.5647 65.092C36.8821 64.7747 37.2554 64.532 37.6847 64.364C38.1234 64.1867 38.6041 64.098 39.1267 64.098C39.6401 64.098 40.1114 64.1867 40.5407 64.364C40.9701 64.5413 41.3387 64.7887 41.6467 65.106C41.9641 65.414 42.2067 65.7873 42.3747 66.226C42.5521 66.6553 42.6407 67.1313 42.6407 67.654C42.6407 68.1673 42.5521 68.6433 42.3747 69.082C42.2067 69.5113 41.9641 69.8847 41.6467 70.202C41.3387 70.51 40.9701 70.7527 40.5407 70.93C40.1114 71.098 39.6354 71.182 39.1127 71.182ZM39.1127 70.048C39.4394 70.048 39.7381 69.9873 40.0087 69.866C40.2794 69.7447 40.5127 69.5767 40.7087 69.362C40.9141 69.1473 41.0727 68.8953 41.1847 68.606C41.2967 68.3167 41.3527 67.9993 41.3527 67.654C41.3527 67.2993 41.2967 66.9773 41.1847 66.688C41.0727 66.3893 40.9187 66.1327 40.7227 65.918C40.5267 65.7033 40.2887 65.5353 40.0087 65.414C39.7381 65.2927 39.4394 65.232 39.1127 65.232C38.7954 65.232 38.4967 65.2927 38.2167 65.414C37.9461 65.5353 37.7081 65.7033 37.5027 65.918C37.2974 66.1233 37.1387 66.3753 37.0267 66.674C36.9147 66.9633 36.8587 67.2807 36.8587 67.626C36.8587 67.9713 36.9147 68.2933 37.0267 68.592C37.1387 68.8813 37.2974 69.138 37.5027 69.362C37.7081 69.5767 37.9461 69.7447 38.2167 69.866C38.4967 69.9873 38.7954 70.048 39.1127 70.048ZM46.2998 71.168C45.8331 71.168 45.4224 71.1213 45.0678 71.028C44.7131 70.944 44.4144 70.832 44.1718 70.692C43.9384 70.552 43.7611 70.398 43.6398 70.23C43.5184 70.062 43.4578 69.8987 43.4578 69.74C43.4578 69.628 43.4811 69.5347 43.5278 69.46C43.5838 69.376 43.6444 69.306 43.7098 69.25C43.7751 69.194 43.8358 69.1567 43.8918 69.138C43.9571 69.11 43.9944 69.1007 44.0038 69.11C44.2278 69.3993 44.5264 69.642 44.8998 69.838C45.2824 70.0247 45.7398 70.118 46.2718 70.118C46.7478 70.118 47.1118 70.0387 47.3638 69.88C47.6251 69.712 47.7558 69.488 47.7558 69.208C47.7558 69.04 47.7138 68.9 47.6298 68.788C47.5551 68.676 47.4431 68.5873 47.2938 68.522C47.1538 68.4473 46.9764 68.382 46.7618 68.326C46.5471 68.27 46.2998 68.214 46.0198 68.158C45.7678 68.102 45.5018 68.0367 45.2218 67.962C44.9511 67.8873 44.6991 67.78 44.4658 67.64C44.2324 67.5 44.0364 67.318 43.8778 67.094C43.7284 66.8607 43.6538 66.5667 43.6538 66.212C43.6538 65.5773 43.8964 65.0687 44.3818 64.686C44.8671 64.294 45.5204 64.098 46.3418 64.098C46.7711 64.098 47.1444 64.14 47.4618 64.224C47.7884 64.308 48.0591 64.4153 48.2738 64.546C48.4978 64.6767 48.6611 64.8213 48.7638 64.98C48.8758 65.1387 48.9318 65.2973 48.9318 65.456C48.9318 65.568 48.9038 65.666 48.8478 65.75C48.7918 65.834 48.7264 65.904 48.6518 65.96C48.5864 66.016 48.5258 66.058 48.4698 66.086C48.4138 66.1047 48.3811 66.1093 48.3718 66.1C48.1571 65.82 47.8818 65.5913 47.5458 65.414C47.2098 65.2367 46.8271 65.148 46.3978 65.148C45.9218 65.148 45.5578 65.232 45.3058 65.4C45.0631 65.568 44.9417 65.792 44.9417 66.072C44.9417 66.2213 44.9791 66.3473 45.0538 66.45C45.1284 66.5527 45.2358 66.6413 45.3758 66.716C45.5158 66.7813 45.6884 66.842 45.8938 66.898C46.1084 66.954 46.3511 67.01 46.6218 67.066C46.8831 67.122 47.1584 67.192 47.4478 67.276C47.7371 67.3507 48.0031 67.458 48.2458 67.598C48.4978 67.738 48.7031 67.9247 48.8618 68.158C49.0204 68.3913 49.0998 68.69 49.0998 69.054C49.0998 69.698 48.8524 70.2113 48.3578 70.594C47.8631 70.9767 47.1771 71.168 46.2998 71.168Z" fill="#ED1C24"/>
<defs>
<linearGradient id="paint0_linear_1602_2222" x1="25" y1="0" x2="25" y2="50" gradientUnits="userSpaceOnUse">
<stop stop-color="#E91D27"/>
<stop offset="1" stop-color="#3E484A"/>
</linearGradient>
</defs>
</svg>
