<svg width="50" height="50" viewBox="0 0 50 50" fill="none" xmlns="http://www.w3.org/2000/svg">
<path d="M7 0.75H49.25V43C49.25 46.4518 46.4518 49.25 43 49.25H0.75V7C0.75 3.54822 3.54822 0.75 7 0.75Z" fill="white" stroke="url(#paint0_linear_403_368)" stroke-width="1.5"/>
<path d="M38.4523 21.6684C38.4518 22.4189 38.3294 23.1644 38.0898 23.8757C36.9662 28.9594 27.2503 35.1118 26.8374 35.3731C26.711 35.4525 26.5648 35.4948 26.4154 35.4952C26.2654 35.497 26.1181 35.4545 25.9921 35.3731C24.029 34.105 22.1504 32.7106 20.3682 31.1988C20.2147 31.0614 20.1209 30.8694 20.107 30.6638C20.0931 30.4583 20.1602 30.2554 20.2939 30.0987C20.4275 29.9419 20.6172 29.8436 20.8224 29.8248C21.0276 29.806 21.2319 29.8682 21.3919 29.9981C22.9944 31.3513 24.6739 32.6107 26.422 33.77C29.3368 31.8677 35.7786 27.0257 36.5684 23.4563C36.7639 22.8811 36.8649 22.2779 36.8675 21.6703C36.8673 20.6747 36.6 19.6973 36.0934 18.8401C35.5868 17.983 34.8595 17.2774 33.9873 16.797C32.849 16.1947 31.5396 15.9974 30.2744 16.2377C29.0091 16.478 27.8632 17.1415 27.0249 18.1192C26.9483 18.2045 26.8545 18.2727 26.7498 18.3194C26.6451 18.3661 26.5317 18.3902 26.4171 18.3902C26.3024 18.3902 26.189 18.3661 26.0843 18.3194C25.9796 18.2727 25.8858 18.2045 25.8092 18.1192C24.9702 17.1416 23.8239 16.4781 22.5583 16.2374C21.2927 15.9966 19.9829 16.1931 18.8435 16.7944C17.9703 17.2738 17.2419 17.9789 16.7343 18.8361C16.2268 19.6932 15.9587 20.6709 15.9581 21.6671C15.9598 22.2476 16.0535 22.8242 16.2357 23.3753C16.3723 23.9208 16.5828 24.445 16.8615 24.9334H21.4637L23.044 21.3013C23.1081 21.1478 23.2194 21.0187 23.3617 20.9327C23.5041 20.8467 23.6701 20.8082 23.8358 20.8227C24.0015 20.8373 24.1582 20.9041 24.2834 21.0136C24.4086 21.1231 24.4957 21.2696 24.5321 21.4319L25.6955 26.3509L27.198 23.8829C27.2685 23.767 27.3678 23.6713 27.4863 23.6052C27.6048 23.5391 27.7385 23.5049 27.8742 23.506H30.7302C30.9393 23.506 31.1399 23.5891 31.2877 23.7369C31.4356 23.8848 31.5187 24.0854 31.5187 24.2945C31.5187 24.5036 31.4356 24.7041 31.2877 24.852C31.1399 24.9999 30.9393 25.083 30.7302 25.083H28.3171L26.0496 28.8065C25.98 28.9221 25.8817 29.0178 25.7643 29.0843C25.6469 29.1508 25.5143 29.1858 25.3794 29.1861C25.338 29.1861 25.2968 29.1831 25.2559 29.1769C25.1017 29.1524 24.9581 29.0828 24.8435 28.9767C24.7289 28.8707 24.6482 28.733 24.6118 28.5811L23.5483 24.1005L22.7082 26.0341C22.6474 26.1755 22.5464 26.2958 22.4177 26.3802C22.2889 26.4645 22.1383 26.5091 21.9844 26.5084H12.7885C12.5794 26.5084 12.3788 26.4253 12.2309 26.2774C12.0831 26.1296 12 25.929 12 25.7199C12 25.5108 12.0831 25.3102 12.2309 25.1623C12.3788 25.0145 12.5794 24.9314 12.7885 24.9314H15.1004C14.941 24.5637 14.8142 24.1827 14.7215 23.7928C14.4933 23.1061 14.3788 22.3868 14.3824 21.6632C14.3827 20.3851 14.7262 19.1305 15.3769 18.0304C16.0276 16.9304 16.9618 16.0252 18.0818 15.4095C19.4103 14.7042 20.9243 14.4267 22.4165 14.615C23.9088 14.8032 25.3064 15.4481 26.418 16.4613C27.5287 15.4478 28.9257 14.8026 30.4174 14.6143C31.9092 14.426 33.4227 14.7038 34.7503 15.4095C35.8712 16.0258 36.8061 16.9317 37.4573 18.0327C38.1085 19.1337 38.4521 20.3893 38.4523 21.6684V21.6684Z" fill="#ED1C24"/>
<defs>
<linearGradient id="paint0_linear_403_368" x1="25" y1="0" x2="25" y2="50" gradientUnits="userSpaceOnUse">
<stop stop-color="#E91D27"/>
<stop offset="1" stop-color="#3E484A"/>
</linearGradient>
</defs>
</svg>
