<svg width="50" height="72" viewBox="0 0 50 72" fill="none" xmlns="http://www.w3.org/2000/svg">
<path opacity="0.59" d="M14.832 62.544C14.916 62.3013 15.028 62.1333 15.168 62.04C15.3173 61.9373 15.4713 61.886 15.63 61.886C15.742 61.886 15.8493 61.9047 15.952 61.942C16.064 61.9793 16.1573 62.0213 16.232 62.068C16.316 62.1147 16.3767 62.166 16.414 62.222C16.4607 62.278 16.4793 62.32 16.47 62.348L13.236 70.538C13.1613 70.7247 13.0587 70.8647 12.928 70.958C12.8067 71.042 12.6107 71.084 12.34 71.084C12.0787 71.084 11.8873 71.042 11.766 70.958C11.6447 70.874 11.542 70.734 11.458 70.538L8.21 62.348C8.20067 62.32 8.21467 62.278 8.252 62.222C8.29867 62.166 8.35933 62.1147 8.434 62.068C8.518 62.0213 8.616 61.9793 8.728 61.942C8.84 61.9047 8.952 61.886 9.064 61.886C9.25067 61.886 9.41867 61.9373 9.568 62.04C9.71733 62.1427 9.82933 62.3107 9.904 62.544L12.368 69.446L14.832 62.544ZM21.8858 69.992C21.6525 70.3373 21.3491 70.622 20.9758 70.846C20.6118 71.0607 20.1685 71.168 19.6458 71.168C19.1978 71.168 18.8105 71.098 18.4838 70.958C18.1665 70.8087 17.9005 70.608 17.6858 70.356C17.4711 70.104 17.3125 69.8007 17.2098 69.446C17.1071 69.0913 17.0558 68.704 17.0558 68.284V64.868C17.0558 64.616 17.1118 64.4433 17.2238 64.35C17.3358 64.2473 17.4805 64.196 17.6578 64.196H17.8118C17.9985 64.196 18.1478 64.2427 18.2598 64.336C18.3718 64.4293 18.4278 64.6067 18.4278 64.868V68.116C18.4278 68.704 18.5678 69.1613 18.8478 69.488C19.1278 69.8053 19.5245 69.964 20.0378 69.964C20.4578 69.964 20.8265 69.8567 21.1438 69.642C21.4611 69.418 21.7085 69.1287 21.8858 68.774V64.868C21.8858 64.616 21.9418 64.4433 22.0538 64.35C22.1658 64.2473 22.3105 64.196 22.4878 64.196H22.6418C22.8285 64.196 22.9778 64.2427 23.0898 64.336C23.2018 64.4293 23.2578 64.6067 23.2578 64.868V70.902C23.2578 70.9207 23.2065 70.9533 23.1038 71C23.0105 71.0373 22.8985 71.056 22.7678 71.056C22.6651 71.056 22.5625 71.0373 22.4598 71C22.3571 70.972 22.2638 70.9207 22.1798 70.846C22.1051 70.762 22.0398 70.6547 21.9838 70.524C21.9278 70.384 21.8951 70.2067 21.8858 69.992ZM29.8875 67.066C29.8501 66.478 29.6635 66.0113 29.3275 65.666C28.9915 65.3207 28.5435 65.148 27.9835 65.148C27.7035 65.148 27.4421 65.1947 27.1995 65.288C26.9661 65.3813 26.7561 65.5167 26.5695 65.694C26.3828 65.862 26.2288 66.0627 26.1075 66.296C25.9861 66.5293 25.9021 66.786 25.8555 67.066H29.8875ZM25.8555 68.004C25.8835 68.312 25.9581 68.5967 26.0795 68.858C26.2008 69.11 26.3595 69.3293 26.5555 69.516C26.7515 69.6933 26.9848 69.8333 27.2555 69.936C27.5261 70.0387 27.8201 70.09 28.1375 70.09C28.4361 70.09 28.6975 70.062 28.9215 70.006C29.1455 69.9407 29.3415 69.8567 29.5095 69.754C29.6775 69.6513 29.8221 69.5347 29.9435 69.404C30.0648 69.264 30.1675 69.1193 30.2515 68.97C30.2608 68.9607 30.3028 68.9653 30.3775 68.984C30.4521 69.0027 30.5315 69.0353 30.6155 69.082C30.7088 69.1287 30.7928 69.1987 30.8675 69.292C30.9421 69.3853 30.9795 69.5067 30.9795 69.656C30.9795 69.8053 30.9141 69.9687 30.7835 70.146C30.6621 70.3233 30.4755 70.4913 30.2235 70.65C29.9808 70.7993 29.6821 70.9253 29.3275 71.028C28.9728 71.1307 28.5668 71.182 28.1095 71.182C27.5775 71.182 27.0921 71.098 26.6535 70.93C26.2148 70.762 25.8415 70.524 25.5335 70.216C25.2255 69.908 24.9828 69.5393 24.8055 69.11C24.6375 68.6713 24.5535 68.1907 24.5535 67.668C24.5535 67.1547 24.6375 66.6833 24.8055 66.254C24.9828 65.8153 25.2255 65.4373 25.5335 65.12C25.8415 64.8027 26.2055 64.5553 26.6255 64.378C27.0455 64.1913 27.5028 64.098 27.9975 64.098C28.4828 64.098 28.9215 64.182 29.3135 64.35C29.7148 64.5087 30.0555 64.7373 30.3355 65.036C30.6248 65.3347 30.8441 65.694 30.9935 66.114C31.1521 66.5247 31.2315 66.982 31.2315 67.486V67.598C31.2315 67.7473 31.1988 67.8547 31.1335 67.92C31.0775 67.976 30.9701 68.004 30.8115 68.004H25.8555ZM33.206 71.056C33.0193 71.056 32.8653 71.0093 32.744 70.916C32.632 70.8227 32.576 70.65 32.576 70.398V61.536C32.576 61.5173 32.6273 61.4893 32.73 61.452C32.8327 61.4053 32.9493 61.382 33.08 61.382C33.192 61.382 33.2993 61.4007 33.402 61.438C33.5047 61.466 33.598 61.5267 33.682 61.62C33.766 61.704 33.8313 61.8253 33.878 61.984C33.934 62.1333 33.962 62.3293 33.962 62.572V70.398C33.962 70.65 33.906 70.8227 33.794 70.916C33.682 71.0093 33.5327 71.056 33.346 71.056H33.206ZM38.8686 71.182C38.3459 71.182 37.8652 71.098 37.4266 70.93C36.9972 70.7527 36.6286 70.5053 36.3206 70.188C36.0126 69.8707 35.7699 69.4973 35.5926 69.068C35.4246 68.6293 35.3406 68.1487 35.3406 67.626C35.3406 67.1127 35.4246 66.6413 35.5926 66.212C35.7699 65.7733 36.0126 65.4 36.3206 65.092C36.6379 64.7747 37.0112 64.532 37.4406 64.364C37.8792 64.1867 38.3599 64.098 38.8826 64.098C39.3959 64.098 39.8672 64.1867 40.2966 64.364C40.7259 64.5413 41.0946 64.7887 41.4026 65.106C41.7199 65.414 41.9626 65.7873 42.1306 66.226C42.3079 66.6553 42.3966 67.1313 42.3966 67.654C42.3966 68.1673 42.3079 68.6433 42.1306 69.082C41.9626 69.5113 41.7199 69.8847 41.4026 70.202C41.0946 70.51 40.7259 70.7527 40.2966 70.93C39.8672 71.098 39.3912 71.182 38.8686 71.182ZM38.8686 70.048C39.1952 70.048 39.4939 69.9873 39.7646 69.866C40.0352 69.7447 40.2686 69.5767 40.4646 69.362C40.6699 69.1473 40.8286 68.8953 40.9406 68.606C41.0526 68.3167 41.1086 67.9993 41.1086 67.654C41.1086 67.2993 41.0526 66.9773 40.9406 66.688C40.8286 66.3893 40.6746 66.1327 40.4786 65.918C40.2826 65.7033 40.0446 65.5353 39.7646 65.414C39.4939 65.2927 39.1952 65.232 38.8686 65.232C38.5512 65.232 38.2526 65.2927 37.9726 65.414C37.7019 65.5353 37.4639 65.7033 37.2586 65.918C37.0532 66.1233 36.8946 66.3753 36.7826 66.674C36.6706 66.9633 36.6146 67.2807 36.6146 67.626C36.6146 67.9713 36.6706 68.2933 36.7826 68.592C36.8946 68.8813 37.0532 69.138 37.2586 69.362C37.4639 69.5767 37.7019 69.7447 37.9726 69.866C38.2526 69.9873 38.5512 70.048 38.8686 70.048Z" fill="black"/>
<path opacity="0.59" d="M0.5 7C0.5 3.41015 3.41015 0.5 7 0.5H49.5V43C49.5 46.5899 46.5899 49.5 43 49.5H0.5V7Z" fill="white" stroke="#828282"/>
<g opacity="0.59">
<path d="M12.7354 27.6683C12.6028 27.7307 12.4999 27.8425 12.4486 27.9798C12.3974 28.117 12.4018 28.2689 12.4611 28.4029L13.7229 31.1114C13.7851 31.2456 13.8978 31.3497 14.0364 31.4011C14.175 31.4525 14.3284 31.447 14.463 31.3857L23.9979 26.9343L23.1316 35.9623C23.1234 36.0498 23.1358 36.1381 23.1679 36.22C23.2 36.3018 23.2509 36.375 23.3165 36.4336C23.7345 36.7795 24.2555 36.9767 24.7978 36.9942C24.9471 36.9944 25.0958 36.9759 25.2405 36.9394C26.0146 36.7375 26.6121 36.0479 27.0241 34.87L30.7755 23.7616L38.2071 20.2944C40.3938 19.274 41.5212 17.2046 40.7642 15.5895C40.5524 15.1735 40.2414 14.8162 39.8586 14.5491C39.4759 14.282 39.0332 14.1134 38.5697 14.0583C37.5249 13.9005 36.4569 14.0649 35.5079 14.5295L26.9335 18.5509L17.7146 14.9465C16.5537 14.5076 15.6343 14.5202 14.9891 14.986C14.7221 15.2051 14.5083 15.4818 14.3636 15.7953C14.2189 16.1089 14.1471 16.4511 14.1535 16.7964C14.1568 16.884 14.1805 16.9696 14.2228 17.0464C14.2651 17.1232 14.3248 17.189 14.3971 17.2386L20.6047 21.5057L17.0497 23.1878L11.0862 21.6741C10.9673 21.6451 10.8422 21.6557 10.7299 21.7043C10.6176 21.7529 10.5242 21.8369 10.4641 21.9435L8.9779 24.618C8.93989 24.6881 8.91729 24.7656 8.91159 24.8451C8.90589 24.9247 8.91723 25.0045 8.94486 25.0794C8.97248 25.1542 9.01575 25.2223 9.07178 25.279C9.12781 25.3358 9.19531 25.38 9.26976 25.4086L13.6839 27.2311L12.7354 27.6683ZM15.3034 16.5155C15.3369 16.2795 15.4569 16.0644 15.6403 15.912C15.9601 15.6822 16.5433 15.7156 17.3223 16.0069L25.534 19.207L21.7881 20.9566L15.3034 16.5155ZM10.2562 24.6125L11.2316 22.88L16.9679 24.3064C17.0916 24.3376 17.2222 24.3258 17.3383 24.2729L35.9846 15.562C36.7257 15.1955 37.5603 15.0616 38.3788 15.178C38.6615 15.204 38.9337 15.2983 39.172 15.4526C39.4103 15.6069 39.6076 15.8167 39.747 16.064C40.2177 17.0735 39.2928 18.5481 37.7281 19.2772L31.2682 22.3056L31.661 21.1447C31.6845 21.0737 31.6939 20.9986 31.6884 20.924C31.683 20.8493 31.6629 20.7764 31.6293 20.7095C31.5957 20.6426 31.5493 20.5829 31.4926 20.534C31.436 20.485 31.3702 20.4477 31.2992 20.4241C31.2281 20.4006 31.1531 20.3912 31.0784 20.3967C31.0037 20.4021 30.9308 20.4222 30.8639 20.4558C30.797 20.4894 30.7374 20.5358 30.6884 20.5925C30.6394 20.6491 30.6021 20.7149 30.5786 20.7859L25.9636 34.5211C25.6893 35.3007 25.347 35.7664 24.9657 35.8668C24.7295 35.9125 24.4848 35.8668 24.281 35.739L25.4024 23.963C25.4121 23.8166 25.3644 23.6722 25.2693 23.5605C25.1743 23.4488 25.0394 23.3785 24.8934 23.3646C24.7474 23.3508 24.6017 23.3944 24.4873 23.4863C24.373 23.5781 24.299 23.711 24.281 23.8565L24.1076 25.6555L14.4844 30.1431L13.6944 28.4611L15.2749 27.7193C15.3745 27.6755 15.4592 27.6037 15.5187 27.5125C15.5782 27.4214 15.6098 27.3149 15.6098 27.2061C15.6098 27.0973 15.5782 26.9908 15.5187 26.8997C15.4592 26.8086 15.3745 26.7367 15.2749 26.6929L10.2562 24.6125Z" fill="#676767"/>
</g>
</svg>
