<svg width="50" height="50" viewBox="0 0 50 50" fill="none" xmlns="http://www.w3.org/2000/svg">
<g opacity="0.59">
<path d="M7 0.5H49.5V43C49.5 46.5899 46.5899 49.5 43 49.5H0.5V7C0.5 3.41015 3.41015 0.5 7 0.5Z" fill="white" stroke="#828282"/>
<path d="M22.3203 23.4093C23.4187 23.4093 24.3091 22.5189 24.3091 21.4205C24.3091 20.3222 23.4187 19.4318 22.3203 19.4318C21.2219 19.4318 20.3315 20.3222 20.3315 21.4205C20.3315 22.5189 21.2219 23.4093 22.3203 23.4093Z" fill="white"/>
<path d="M22.3203 23.4093C23.4187 23.4093 24.3091 22.5189 24.3091 21.4205C24.3091 20.3222 23.4187 19.4318 22.3203 19.4318C21.2219 19.4318 20.3315 20.3222 20.3315 21.4205C20.3315 22.5189 21.2219 23.4093 22.3203 23.4093Z" fill="white"/>
</g>
<g opacity="0.59">
<path d="M26.1173 19.1966C26.1173 19.1966 23.1801 21.6983 21.2462 21.8892C20.4957 21.9633 20.8199 20.9708 19.7929 20.2801C18.5261 19.4314 14.8608 16.7915 14.8608 16.7915L15.9032 15.0315L26.1173 19.1966Z" fill="#6B253C"/>
<path d="M12.7359 27.6683C12.6033 27.7307 12.5004 27.8425 12.4491 27.9798C12.3979 28.117 12.4023 28.2689 12.4616 28.4029L13.7234 31.1114C13.7856 31.2456 13.8982 31.3497 14.0369 31.4011C14.1755 31.4525 14.3289 31.447 14.4634 31.3857L23.9984 26.9343L23.1321 35.9623C23.1239 36.0498 23.1363 36.1381 23.1684 36.22C23.2005 36.3018 23.2514 36.375 23.317 36.4336C23.735 36.7795 24.256 36.9767 24.7983 36.9942C24.9476 36.9944 25.0963 36.9759 25.241 36.9394C26.0151 36.7375 26.6125 36.0479 27.0246 34.87L30.776 23.7616L38.2075 20.2944C40.3943 19.274 41.5217 17.2046 40.7646 15.5895C40.5529 15.1735 40.2419 14.8162 39.8591 14.5491C39.4763 14.282 39.0336 14.1134 38.5702 14.0583C37.5254 13.9005 36.4573 14.0649 35.5084 14.5295L26.934 18.5509L17.7151 14.9465C16.5542 14.5076 15.6347 14.5202 14.9896 14.986C14.7226 15.2051 14.5088 15.4818 14.3641 15.7953C14.2194 16.1089 14.1476 16.4511 14.154 16.7964C14.1573 16.884 14.181 16.9696 14.2233 17.0464C14.2656 17.1232 14.3253 17.189 14.3976 17.2386L20.6052 21.5057L17.0502 23.1878L11.0867 21.6741C10.9678 21.6451 10.8427 21.6557 10.7304 21.7043C10.6181 21.7529 10.5247 21.8369 10.4646 21.9435L8.97839 24.618C8.94038 24.6881 8.91778 24.7656 8.91208 24.8451C8.90638 24.9247 8.91772 25.0045 8.94535 25.0794C8.97297 25.1542 9.01624 25.2223 9.07227 25.279C9.1283 25.3358 9.1958 25.38 9.27025 25.4086L13.6844 27.2311L12.7359 27.6683ZM15.3039 16.5155C15.3374 16.2795 15.4574 16.0644 15.6408 15.912C15.9606 15.6822 16.5438 15.7156 17.3228 16.0069L25.5345 19.207L21.7886 20.9566L15.3039 16.5155ZM10.2567 24.6125L11.2321 22.88L16.9684 24.3064C17.0921 24.3376 17.2227 24.3258 17.3387 24.2729L35.9851 15.562C36.7262 15.1955 37.5607 15.0616 38.3793 15.178C38.662 15.204 38.9341 15.2983 39.1724 15.4526C39.4108 15.6069 39.6081 15.8167 39.7475 16.064C40.2182 17.0735 39.2933 18.5481 37.7286 19.2772L31.2686 22.3056L31.6615 21.1447C31.685 21.0737 31.6943 20.9986 31.6889 20.924C31.6835 20.8493 31.6634 20.7764 31.6298 20.7095C31.5962 20.6426 31.5497 20.5829 31.4931 20.534C31.4365 20.485 31.3707 20.4477 31.2996 20.4241C31.2286 20.4006 31.1536 20.3912 31.0789 20.3967C31.0042 20.4021 30.9313 20.4222 30.8644 20.4558C30.7975 20.4894 30.7379 20.5358 30.6889 20.5925C30.6399 20.6491 30.6026 20.7149 30.579 20.7859L25.9641 34.5211C25.6898 35.3007 25.3474 35.7664 24.9662 35.8668C24.73 35.9125 24.4853 35.8668 24.2815 35.739L25.4028 23.963C25.4126 23.8166 25.3649 23.6722 25.2698 23.5605C25.1748 23.4488 25.0399 23.3785 24.8939 23.3646C24.7479 23.3508 24.6022 23.3944 24.4878 23.4863C24.3735 23.5781 24.2994 23.711 24.2815 23.8565L24.1081 25.6555L14.4848 30.1431L13.6948 28.4611L15.2754 27.7193C15.375 27.6755 15.4597 27.6037 15.5192 27.5125C15.5787 27.4214 15.6103 27.3149 15.6103 27.2061C15.6103 27.0973 15.5787 26.9908 15.5192 26.8997C15.4597 26.8086 15.375 26.7367 15.2754 26.6929L10.2567 24.6125Z" fill="#828282"/>
</g>
</svg>
