<svg width="50" height="50" viewBox="0 0 50 50" fill="none" xmlns="http://www.w3.org/2000/svg">
<path d="M7 0.75H49.25V43C49.25 46.4518 46.4518 49.25 43 49.25H0.75V7C0.75 3.54822 3.54822 0.75 7 0.75Z" fill="white" stroke="url(#paint0_linear_402_312)" stroke-width="1.5"/>
<path d="M12.8252 27.6683C12.6926 27.7307 12.5897 27.8425 12.5385 27.9798C12.4872 28.117 12.4917 28.2689 12.5509 28.4029L13.8127 31.1114C13.8749 31.2456 13.9876 31.3497 14.1262 31.4011C14.2649 31.4525 14.4182 31.447 14.5528 31.3857L24.0877 26.9343L23.2215 35.9623C23.2132 36.0498 23.2257 36.1381 23.2578 36.22C23.2899 36.3018 23.3408 36.375 23.4064 36.4336C23.8243 36.7795 24.3454 36.9767 24.8876 36.9942C25.0369 36.9944 25.1856 36.9759 25.3304 36.9394C26.1045 36.7375 26.7019 36.0479 27.1139 34.87L30.8653 23.7616L38.2969 20.2944C40.4837 19.274 41.6111 17.2046 40.854 15.5895C40.6423 15.1735 40.3312 14.8162 39.9485 14.5491C39.5657 14.282 39.123 14.1134 38.6595 14.0583C37.6147 13.9005 36.5467 14.0649 35.5977 14.5295L27.0234 18.5509L17.8045 14.9465C16.6436 14.5076 15.7241 14.5202 15.0789 14.986C14.812 15.2051 14.5981 15.4818 14.4534 15.7953C14.3087 16.1089 14.2369 16.4511 14.2434 16.7964C14.2466 16.884 14.2704 16.9696 14.3127 17.0464C14.355 17.1232 14.4147 17.189 14.487 17.2386L20.6946 21.5057L17.1395 23.1878L11.1761 21.6741C11.0572 21.6451 10.9321 21.6557 10.8197 21.7043C10.7074 21.7529 10.6141 21.8369 10.5539 21.9435L9.06774 24.618C9.02974 24.6881 9.00713 24.7656 9.00143 24.8451C8.99573 24.9247 9.00708 25.0045 9.0347 25.0794C9.06233 25.1542 9.1056 25.2223 9.16163 25.279C9.21766 25.3358 9.28515 25.38 9.35961 25.4086L13.7738 27.2311L12.8252 27.6683ZM15.3933 16.5155C15.4267 16.2795 15.5468 16.0644 15.7301 15.912C16.05 15.6822 16.6332 15.7156 17.4122 16.0069L25.6239 19.207L21.8779 20.9566L15.3933 16.5155ZM10.346 24.6125L11.3215 22.88L17.0578 24.3064C17.1814 24.3376 17.312 24.3258 17.4281 24.2729L36.0745 15.562C36.8155 15.1955 37.6501 15.0616 38.4686 15.178C38.7513 15.204 39.0235 15.2983 39.2618 15.4526C39.5001 15.6069 39.6974 15.8167 39.8369 16.064C40.3076 17.0735 39.3826 18.5481 37.818 19.2772L31.358 22.3056L31.7508 21.1447C31.7744 21.0737 31.7837 20.9986 31.7783 20.924C31.7728 20.8493 31.7527 20.7764 31.7191 20.7095C31.6856 20.6426 31.6391 20.5829 31.5825 20.534C31.5258 20.485 31.4601 20.4477 31.389 20.4241C31.3179 20.4006 31.2429 20.3912 31.1682 20.3967C31.0936 20.4021 31.0207 20.4222 30.9538 20.4558C30.8868 20.4894 30.8272 20.5358 30.7782 20.5925C30.7293 20.6491 30.692 20.7149 30.6684 20.7859L26.0534 34.5211C25.7791 35.3007 25.4368 35.7664 25.0555 35.8668C24.8193 35.9125 24.5746 35.8668 24.3708 35.739L25.4922 23.963C25.5019 23.8166 25.4542 23.6722 25.3592 23.5605C25.2641 23.4488 25.1293 23.3785 24.9833 23.3646C24.8372 23.3508 24.6916 23.3944 24.5772 23.4863C24.4628 23.5781 24.3888 23.711 24.3708 23.8565L24.1975 25.6555L14.5742 30.1431L13.7842 28.4611L15.3648 27.7193C15.4644 27.6755 15.5491 27.6037 15.6086 27.5125C15.668 27.4214 15.6997 27.3149 15.6997 27.2061C15.6997 27.0973 15.668 26.9908 15.6086 26.8997C15.5491 26.8086 15.4644 26.7367 15.3648 26.6929L10.346 24.6125Z" fill="#ED1C24"/>
<defs>
<linearGradient id="paint0_linear_402_312" x1="25" y1="0" x2="25" y2="50" gradientUnits="userSpaceOnUse">
<stop stop-color="#E91D27"/>
<stop offset="1" stop-color="#3E484A"/>
</linearGradient>
</defs>
</svg>
